<?xml version="1.0" encoding="utf-8"?>
<!-- Generator: Adobe Illustrator 27.4.1, SVG Export Plug-In . SVG Version: 6.00 Build 0)  -->
<svg version="1.1" id="Layer_1" xmlns="http://www.w3.org/2000/svg" xmlns:xlink="http://www.w3.org/1999/xlink" x="0px" y="0px"
	 viewBox="0 0 800 800" style="enable-background:new 0 0 800 800;" xml:space="preserve">
<style type="text/css">
	.st0{fill:#204265;}
	.st1{fill:#F4F9FD;}
	.st2{fill:#3C5A79;}
	.st3{fill:#DD585C;}
	.st4{fill:#DD575A;}
	.st5{fill:#8C3668;}
	.st6{fill:#0A3B5C;}
</style>
<g>
	<path class="st0" d="M674.2,510c-0.4,0.8-1.6,0.8-1.9-0.1c-6.8-16.2-19.1-32.9-35.9-47.4c-17.8-15.3-42.1-24.8-56.8-35.3
		c-15.9-11.4-31-22.1-30.8-45.4l-0.7,0.8c-0.2,2.3-0.5,3.6-0.5,3.6c-17,199.8-146.3,216.8-146.3,216.8c-7.3,1.8-14.3,2.8-21.1,3.3
		c-0.1,0.1-0.2,0.2-0.4,0.2c-10.4,2.8-13.5,7.9-16.3,11.8c-3.6,5-6.1,10.7-7.3,16.8c-3.6,18.3-9,38.3-24.1,49.5
		c-8.2,6.2-18.4,9-27.7,13.4c-5.8,2.7-11.3,6.1-16.4,10c-0.8,0.7-1.9-0.2-1.5-1.2c5.6-12.4,1.3-31.8,6.7-44.2
		c7.5-17.4,25.2-29.1,42.7-36.5c5-2.1,15.3-5.6,16.5-13.2c0.6-3.6-0.2-5.9-2.8-8.2c-18.5-3.3-33.8-10.6-45.8-18.5
		c-9.5-4.7-13.4-5.5-17.7-1c-5.3,5.6-1.7,15.8-0.3,21.1c4.8,18.4,6.5,39.5-2.7,56.1c-6.7,12.2-25.4,20.8-31.3,33.3
		c-0.4,0.7-1.4,0.5-1.4-0.4c0.1-6.8-0.6-13.5-2-20.1c-2.2-10-6.2-19.8-6.4-30.1c-0.3-18.8,12.1-35.3,24.4-49.4
		c4.1-4.7,7.1-10.1,8.8-16c1.3-4.4,3.3-9.9-0.3-19.3c0,0,0,0,0-0.1c-1.3-1.7-2-2.6-2-2.6c-70.3-100.5,15.9-225.3,41.9-263
		c0.3-0.5,0.6-0.9,1-1.3c-14.9,6.6-29.6,2.1-45-2.5c-17.3-5.2-39.7-18.6-62.7-23.3c-21.7-4.5-42.5-3.9-59.4,0.6
		c-0.9,0.2-1.7-0.7-1.2-1.5c9.3-18.2,31.4-27.2,52-28c21.4-0.9,23.6,0.1,45,2.3c18.4,1.9,30.1,0.6,45.5-0.8
		c23.2-2.2,56.3-8.1,84.5-27.6c0,0,0,0,0.1,0c7-6.1,16.8-14.6,19-16.6l15,13.8c0,0,3.7,24.8,26.4,36.9
		c22.7,12.1,21.8,10.9,21.8,10.9c8,3.1,29.4,8.2,29.4,8.2c35.7,8.5,55.1-2.1,55.1-2.1l25.7,4.9c-0.2,4.6,3.4,21.4,3.4,21.4
		c0,0.2,0.1,0.5,0.1,0.8c0.2,1.7,0.6,3.7,1.1,5.8c0,0,0,0,0,0.1c1,11.9,4.3,23.5,8.8,34.4c0,0,0,0,0,0.1c8.1,19.8,19.8,37,27.7,49.5
		c8.3,13,14.4,23.2,27.2,36.5c14.8,15.5,17,16.6,29.4,34.1C676.5,468.5,682.9,491.5,674.2,510z"/>
</g>
<path class="st1" d="M480.5,103.4c-25.1,7.8-52.3,44.1-52.3,44.1l-27.5,38.2l-14.5,16.7c0,0,5.3,1.2,22.1,22.6
	c12.6,18.8,70.4,50.5,105.1,53.6c15.8,4.1,41.1-12.9,52.9-2.8c0,0-6.3-20.6,0.8-45.3s14.1-66,7-78.4
	C568.2,125.9,531.3,81.6,480.5,103.4z"/>
<g>
	<path class="st1" d="M455.4,264.7c0,0-98.1-57.6-162.8,87.7c-31.1,67.6-24,190,46.4,221.9c96.2,43.2,171.5-96.4,184.1-126.3
		S573.5,313.8,455.4,264.7"/>
	<path class="st0" d="M375.9,583.7c-12.6,0-25.1-2.8-37.4-8.3c-23.2-10.5-41.4-31.8-52.5-61.6c-18.2-48.7-15.9-115.2,5.5-161.8
		c23-51.7,52.7-83.7,88.4-95.1c40.2-12.9,74.2,5.8,76,6.8c38.2,15.9,63.7,39.1,75.9,69c16.8,41.2,5.1,85.7-7.7,115.8
		c-11.9,27.9-55.5,105.5-114.5,128.6C398.4,581.5,387.1,583.7,375.9,583.7z M409.1,254.6c-8.8,0-18.4,1.2-28.5,4.4
		c-35,11.2-64.2,42.8-87,93.9c-21.2,46.1-23.4,111.9-5.5,160.1c10.9,29.2,28.6,50.1,51.3,60.3c22.8,10.2,46.1,10.8,69.4,1.6
		c58.2-22.8,101.4-99.7,113.2-127.4c6.8-16,11.5-31.8,13.9-47.1c3.9-24.8,1.8-47.3-6.2-67c-12-29.3-37.1-52.1-74.8-67.8l-0.1-0.1
		C454.6,265.5,435.5,254.6,409.1,254.6z"/>
</g>
<path class="st0" d="M342.8,236.7c17.8-8.5,33.2-22,46.9-36.1c5.6-5.8,10.8-12,15.3-18.7c3.6-5.5,6.9-11.2,10.5-16.6
	c5.2-7.7,11.3-14.6,17.3-21.7c6.5-7.7,12.8-15.5,20.3-22.2c7.3-6.5,15.9-11.8,24.6-16.2c4.2-2.1,8.5-4.1,13-5.4
	c4.7-1.3,9.6-1.9,14.5-1.8c9.8,0.2,19.5,3,28.4,7.1c8.3,3.9,15.9,8.9,22.3,15.6c6.2,6.5,11.2,14.1,14.5,22.4
	c3.7,9.2,5.3,19,5.3,28.9c0,21.7-6.8,42.7-10.1,64c-0.8,5-1.6,10.1-1.7,15.2c-0.2,8.4,0.7,16.9,1.9,25.2c2.3,16,6,31.8,10.3,47.3
	c1.4,5.2,3,10.4,4.6,15.5c0.4,1.4,2.6,0.8,2.2-0.6c-5.5-17.7-10.3-35.7-13.5-54c-1.7-9.9-3.1-19.9-3.2-29.9c0-2.4,0-4.8,0.2-7.2
	c0-0.6,0.1-1.2,0.2-1.8c0-0.3,0,0.2,0-0.2c0-0.1,0-0.1,0-0.2c1.4-10,3.1-19.8,5.2-29.6c2.2-10.6,4.5-21.1,5.6-31.9
	c1.1-10.5,0.9-21.2-1.6-31.5c-2.1-8.6-5.8-16.9-10.9-24.2c-10.7-15.4-27.3-25.9-45.3-30.4c-9.2-2.3-19.1-2.8-28.3-0.4
	c-9.3,2.4-18.1,7.4-26.2,12.4c-8.5,5.3-15.9,11.7-22.6,19.1c-3.4,3.7-6.6,7.6-9.8,11.5c-3.4,4-6.9,7.9-10.2,11.9
	c-4.9,6-9.4,12.4-13.4,19c-3.5,5.7-7,11.5-11.2,16.8c-5.8,7.3-12.4,14-19.2,20.3c-7.5,7-15.4,13.6-24,19.2
	c-4.1,2.7-8.4,5.2-12.9,7.3C340.3,235.3,341.4,237.3,342.8,236.7L342.8,236.7z"/>
<g>
	<path class="st2" d="M533.5,189.4L533.5,189.4C533.6,189.3,533.6,189.3,533.5,189.4z"/>
	<path class="st2" d="M540.3,198.4L540.3,198.4C540.3,198.4,540.3,198.4,540.3,198.4z"/>
	<polygon class="st2" points="536.9,186.2 536.9,186.2 536.9,186.2 	"/>
	<path class="st2" d="M534.7,191.2c0.5-1.5,0.9-1.8,1.3-3.2c0.3-0.6,0.6-1.3,0.9-1.8c0-0.4,0.5-0.6,0.7-1l0.2,0
		c0.1-0.1,0.1-0.2,0.3-0.3l0,0c0.1-0.2,0.3-0.2,0.3-0.3l0,0l0.2-0.1l0,0.1c0.2-0.2,0.5-0.3,0.8-0.3l-0.1-0.1c0.6,0,0.8-0.2,1.3,0
		l0,0c0.8-0.2,1,0.5,1.7,0.6c-0.1,0,0,0.1,0,0.1c0.3,0.1,0.6,0.4,0.8,0.2c0.2,0.2,0.1,0.2,0.1,0.3c0.1-0.1,0.3,0,0.4,0.2l-0.1,0
		c0.1,0.1,0.3,0.3,0.4,0.4l0.1-0.2c0.1,0.3-0.2,0.2,0.1,0.4l0.1-0.1c0.2,0.4,0.1,0.7,0.2,1.2c0.6,1.5,1.1,3.5,0.3,4.9l-0.1,0
		c-0.2,0,0.1,0.5-0.1,0.5l0,0.2c-0.1,0-0.1,0.1-0.1,0c-0.1,0.1-0.1,0.2-0.1,0.3l-0.2,0.1c-0.4,0.5-0.6,1.1-1.1,1.6
		c-0.7,0.5-1.9,1.6-2.8,2c-1.2,0.8-2.9,0.3-4.2,0.6c0,0-0.2,0-0.2,0.1c-0.4,0-0.8-0.1-1.3-0.2c0,0-0.4-0.1-0.9-0.2
		c-0.2,0-0.5-0.1-0.8-0.2c-0.2,0-0.2-0.1-0.3,0c0.1,0-0.2,0-0.2-0.1c0,0,0,0,0,0c0,0,0-0.1-0.1-0.1c0-0.1-0.3-0.2-0.5,0.2
		c-0.1,0.2-0.1,0.5,0.1,0.8c0.2,0.3,0.5,0.5,0.8,0.7l0,0c0.7,0.3,1.2,0.4,1.8,0.3c0,0.3,0.6,0.1,0.8,0.2l0,0c0.5-0.2,1,0.2,1.5,0
		c0,0,0,0.1-0.1,0.1c0.3,0,0.8-0.1,0.8,0c0.8-0.1,2-0.3,2.4-0.7l0,0.1c0.2-0.3,0.4-0.1,0.6-0.3c0,0,0,0,0,0c0.2-0.3,0.9-0.4,1.1-0.6
		l0.1,0.1l0.5-0.3l-0.2,0.1c-0.1-0.3,0.5-0.1,0.8-0.5c0.4-0.2,0.3-1,0.7-1.2c0.1-0.2,0,0.3,0.2,0c0.1,0.1,0,0.2,0.1,0.2
		c0.2-0.3,0.5-0.3,0.7-0.6l0.1,0.1c0.2-0.5,0.7-0.7,0.7-1.1c0.2-0.5,0.5-0.1,0.6-0.7l0.2-0.1c0.1-0.2-0.1-0.2,0.1-0.5
		c0.1,0.1,0.2-0.3,0.2-0.1c0.4-0.5,0.2-1.3,0.5-2c-0.2-0.2,0-0.6-0.2-0.7c0.1,0,0-0.8,0.2-0.4c0,0,0,0.1,0,0.1l0.1,0.1
		c0.2-0.5-0.1-0.9-0.2-1.3c0,0.1,0,0.3-0.1,0.2c0-0.1,0-0.3,0-0.4l0.1,0.1c0-0.2,0-0.4-0.1-0.6l-0.1,0.1c0-0.3,0.1-0.5-0.1-0.8
		c-0.1-0.1-0.1,0.3-0.2,0c-0.1-0.4-0.2-1.1-0.4-1.5c-0.1,0.1-0.2,0-0.3-0.1l0.1-0.1c-0.4-0.4,0.1-0.3-0.3-0.7l0.1,0l-0.3,0
		c-0.5-0.2,0-0.4-0.6-0.6c0.2,0.2-0.1,0.2-0.3,0l0.1,0c-0.1-0.1-0.2-0.1-0.3-0.2c0.1,0,0.1-0.1,0-0.2l0.2,0l-0.5-0.1
		c-0.2-0.3-0.7-0.5-0.8-0.7c0,0-0.6-0.4-0.8-0.3c0.2,0-0.2-0.2,0-0.3c-0.2,0-0.8,0-1-0.2l0,0c-0.8-0.3-1.5,0-2.3,0
		c0.1,0.1-0.4,0.2-0.2,0.3c-0.7,0.4-1.5,0.3-1.4,0.9c-0.3,0.2-0.4,0.1-0.6,0.2l0-0.1c-0.5,0.4-0.6,0.6-0.9,0.9
		c-0.1,0.2,0,0.4-0.2,0.7c0-0.2-0.1,0-0.2,0.1c0-0.1,0-0.1-0.1,0c0,0,0,0.1,0,0.1l0,0c-0.1,0.2-0.1,0.2,0,0.1c0,0,0,0,0.1,0
		c-0.3,0.1-0.4,0.6-0.5,0.6c-0.3,0.7-0.4,1.2-0.5,1.8c-0.1,0-0.1-0.1-0.1-0.3l-0.1,0.4c-0.1,0,0-0.3,0-0.4c-0.4,0.4-0.2,1-0.5,1.5
		l0.1,0.1l0,0c0,0,0.1,0.2,0.1,0.2c-0.1,0-0.2-0.1-0.3,0.2c-0.2,0.2-0.1,0.6-0.2,0.9c0.1-0.1,0.1-0.1,0.1,0c0,0.1-0.2,0.2-0.2,0.3
		l-0.1,0c0.1,0,0,0.4,0.1,0.5c-0.1,0,0-0.2-0.1-0.3c-0.2,0.5-0.1,0.3-0.2,0.8c0,0.3,0.1,0,0.2,0.2c-0.1,0.3,0,0.5-0.2,0.8l0.2-0.1
		c-0.1,0.5-0.2,0.8-0.4,1.1c-0.2,3.9,1.1,1.2,1.1,1.2C534.3,193.8,534.2,193,534.7,191.2z"/>
</g>
<g>
	<path class="st2" d="M472.8,164.3L472.8,164.3C472.9,164.2,472.8,164.2,472.8,164.3z"/>
	<path class="st2" d="M463,164.7C463,164.7,463,164.7,463,164.7C463,164.7,463,164.7,463,164.7z"/>
	<polygon class="st2" points="475.9,160.6 475.9,160.6 475.9,160.6 	"/>
	<path class="st2" d="M473.5,166.4c0.5-0.7,0.8-1.1,1.1-1.6c0.3-0.6,0.5-1,0.7-1.8c0.3-0.7,0.5-1.6,0.6-2.4c-0.1-0.4,0.2-1.1,0-1.6
		l0.1-0.2c-0.1-0.2-0.1-0.4-0.1-0.6l0,0c-0.1-0.2-0.1-0.5-0.2-0.6l0,0l-0.1-0.3l0.1,0c-0.2-0.4-0.3-0.9-0.5-1.3l-0.1,0.1
		c-0.3-0.9-0.8-1-1.3-1.6l0,0c-1-0.3-1.2-1-2.2-1c0.1,0,0-0.1,0-0.1c-0.4-0.1-0.9-0.3-1,0c-0.3-0.1-0.2-0.1-0.2-0.3
		c0,0.1-0.3,0.1-0.6,0.1l0.1,0c-0.2,0-0.5-0.1-0.7-0.1l0.1,0.2c-0.4-0.1-0.1-0.3-0.4-0.2l0,0.2c-0.5,0-0.8-0.3-1.4-0.3
		c-1.1,0.1-2.2,0.8-3,1.6c-0.8,0.8-1.3,1.7-1.9,2.4l-0.2,0c-0.2-0.1,0,0.6-0.2,0.6l0,0.2c-0.1,0-0.1,0.1-0.1,0
		c-0.1,0.2-0.1,0.2-0.1,0.4l-0.2,0.2c-0.4,0.7-0.4,1.5-0.6,2.3c-0.5,1-0.4,3,0,4.1c0.5,1.4,0.6,3.5,2,4.6c0,0.1,0.2,0.1,0.2,0.1
		c0.3,0.4,0.7,0.7,1.1,1.1c0,0,0.4,0.3,0.9,0.6c0.5,0.3,1.2,0.6,1.8,0.6c0.6,0.1,1,0,0.9-0.2c0-0.3-0.6-0.6-1.4-1.4l0,0
		c-0.6-0.4-0.9-0.6-1.4-0.8c0.1-0.2-0.4-0.4-0.5-0.6l0,0c-0.4-0.2-0.4-0.7-0.8-0.9c0,0,0.1,0,0.1,0c-0.2-0.2-0.5-0.5-0.3-0.6
		c-0.4-0.6-0.7-1.5-1-1.8l0,0c-0.2-0.2-0.1-0.3-0.2-0.6c0,0,0,0,0,0c-0.2-0.2-0.1-0.8-0.2-1l0.1,0l0-0.6l0,0.2
		c-0.3-0.1,0.2-0.4,0-0.8c0-0.4-0.5-0.9-0.3-1.3c-0.1-0.2,0.2,0.2,0.1-0.1c0.1,0,0.1,0.2,0.2,0.1c0-0.3,0.2-0.4,0.2-0.8l0.1,0
		c-0.1-0.5,0.4-0.8,0.3-1.1c0.1-0.5,0.4-0.2,0.4-0.7l0.2-0.1c0.1-0.2-0.1-0.2,0.1-0.4c0.1,0.1,0.2-0.2,0.2-0.1
		c0.4-0.4,0.3-1,0.9-1.4c-0.1-0.2,0.2-0.4,0.2-0.6c0.1,0,0.5-0.4,0.3-0.1c0,0,0,0.1-0.1,0l0.1,0.1c0.4-0.1,0.4-0.5,0.7-0.7
		c-0.1,0-0.2,0.1-0.2,0l0.3-0.2l0,0.1c0.1-0.1,0.3-0.1,0.4-0.2l-0.1-0.1c0.2,0,0.4,0.1,0.6-0.1c0.1-0.1-0.3-0.1,0-0.2
		c0.3,0,0.8,0,1.2,0c0-0.1,0.1-0.1,0.2-0.2l0,0.1c0.4-0.2,0.1,0.2,0.6,0.1l0,0.1l0.1-0.2c0.4-0.2,0.2,0.2,0.6,0
		c-0.2,0,0-0.3,0.2-0.2l-0.1,0.1c0.1,0,0.2,0,0.2,0c-0.1,0-0.1,0.1,0.1,0.2l-0.1,0.1l0.4-0.1c0.2,0.2,0.7,0.2,0.7,0.4
		c0,0,0.5,0.3,0.7,0.2c-0.1,0,0.1,0.2,0,0.3c0.2,0,0.6,0.1,0.6,0.3l0,0c0.4,0.4,0.8,0.5,0.9,0.9c0.1-0.1,0.1,0.2,0.3,0.1
		c0.4,0.4-0.1,1,0.5,1.1c0.1,0.3-0.1,0.3-0.1,0.5l0-0.1c0.1,0.5,0,0.6,0,1c0,0.2,0.3,0.3,0.1,0.6c-0.1-0.1-0.1,0-0.1,0.1
		c0-0.1,0-0.1-0.1,0c0,0,0,0.1,0,0.1l0,0c0,0.2,0,0.2,0.1,0.1c0,0,0,0,0.1,0c-0.2,0.2-0.2,0.6-0.3,0.6c-0.2,0.7-0.2,1.2-0.3,1.7
		c-0.1,0-0.1-0.1-0.1-0.3l-0.1,0.4c-0.1,0,0-0.2,0-0.4c-0.4,0.4-0.1,1-0.5,1.4l0,0.1l0,0c0,0,0,0.2,0,0.2c-0.1,0-0.2-0.1-0.3,0.1
		c-0.2,0.1-0.3,0.5-0.4,0.8c0.1-0.1,0.1,0,0.1,0c-0.1,0.1-0.2,0.1-0.2,0.2l-0.1-0.1c0.1,0-0.1,0.4-0.1,0.5c-0.1,0,0.1-0.2,0-0.3
		c-0.3,0.5-0.2,0.2-0.5,0.7c-0.1,0.3,0.1,0,0.2,0.2c-0.1,0.2-0.2,0.5-0.5,0.7l0.2,0c-0.2,0.5-0.4,0.7-0.7,0.9
		c-0.7,1.9-0.3,2.2,0,2.1c0.3-0.1,0.7-0.6,0.7-0.6C472.3,168.7,472.5,167.9,473.5,166.4z"/>
</g>
<g>
	<path class="st2" d="M468.1,165L468.1,165C468.1,165,468.1,165,468.1,165z"/>
	<path class="st2" d="M468.4,164.1L468.4,164.1L468.4,164.1z"/>
	<polygon class="st2" points="467.8,167.2 467.8,167.2 467.8,167.2 	"/>
	<path class="st2" d="M467.3,163.5c-0.5,0.4-0.6,0.7-0.8,0.9c-0.1,0.3-0.5,0.6-0.3,1.6c0.3,1.1,1,1.2,1.6,1.3c0.3-0.2,1-0.2,1.4-0.6
		l0.2,0c0.1-0.1,0.2-0.3,0.4-0.4l0,0c0.1-0.1,0.1-0.2,0.2-0.3c0.1-0.1,0.1-0.2,0.1-0.2l0,0c0-0.1,0.1-0.2,0.1-0.2l0,0.1
		c0.1-0.4,0.1-0.7,0.1-1l-0.1,0.1c0.1-0.7-0.3-0.7-0.4-1.2l0,0c-0.6-0.1-0.8-0.8-1.5-0.4c0.1-0.1,0-0.1,0-0.1
		c-0.3,0.1-0.6,0.2-0.5,0.5c-0.2,0.1-0.2,0-0.2-0.1c0,0.1-0.1,0.2-0.2,0.3L467.3,163.5c0,0.1-0.1,0.3-0.2,0.4l0.2,0.1
		c-0.2,0.1-0.2-0.1-0.3,0.1l0.1,0.1c-0.2,0.2-0.5,0.2-0.7,0.4c-0.1,0.3-0.2,0.6-0.2,1.1c0,0.5,0.4,1,0.9,1.2c0.7,0.3,1.4,0,2.1-0.2
		l0.1,0.1c0.2,0.1,0.1-0.4,0.3-0.4l0-0.2c0.1,0,0.2-0.1,0.1,0c0.1-0.1,0.1-0.1,0.1-0.2l0.2-0.1c0.4-0.5,0.4-0.9,0.5-1.4
		c0.3-0.5,0.1-1.3-0.4-1.6c-0.2-0.1-0.4-0.2-0.6-0.3c-0.5-0.1-0.9-0.2-1.3-0.2c-0.5,0-1.1,0.2-1.4,0.8c0,0-0.1,0.1-0.1,0.1
		c-0.2,0.2-0.5,0.5-0.7,0.8c0,0,0,0-0.1,0.2c-0.1,0.2-0.1,0.5,0,0.8c0.3,0.8,1,0.8,1.3,0.8c0.3,0,0.5-0.2,0.5-0.4
		c0-0.2-0.4-0.6-0.4-1l0,0c-0.2,0.2-0.2,0.2-0.2,0.2c0,0,0,0,0.1,0l0.1,0c0.2,0.1,0,0,0.1,0l0-0.1c0.2,0.1,0.1-0.1,0.2-0.1l0,0
		c-0.1-0.2,0.2,0,0.2-0.2c0,0,0,0.1,0,0.1c0-0.1,0.1-0.2,0.1,0c0.1-0.1,0.1-0.1,0.4-0.4l0,0.1c0.2-0.2,0.1,0,0.2-0.1c0,0,0,0,0,0.1
		c0.2-0.2,0.2,0,0.3,0l-0.1,0.1l0,0l0.1,0.1l0-0.1c0.4-0.3-0.2,0.3,0.1,0.2c0,0.1,0.8-0.2,0.6,0.1c0.2,0-0.3,0-0.2,0.1
		c-0.2,0.1-0.1,0-0.3,0.1c0.1,0.1-0.2,0.2-0.1,0.2l-0.1,0c0.2,0.1-0.3,0.1-0.1,0.2c0,0.1-0.4-0.1-0.2,0.1l-0.1-0.1
		c0,0,0.1,0.1,0,0.1c-0.1-0.1-0.1,0-0.1-0.1c-0.1-0.1-0.1,0.3-0.2,0c0,0.2-0.1,0.1-0.1,0.2c0-0.1-0.1,0,0-0.2c0,0,0,0,0,0l0-0.1
		c0-0.1,0-0.1,0-0.1c0,0.1-0.1,0.2-0.2,0.4c0,0,0,0,0,0c0,0,0,0,0,0s0,0,0,0l0,0l0,0c0,0,0.1,0,0.2,0l0,0c0.1,0,0.4,0,0.2,0
		c-0.1,0-0.2,0-0.2,0c0.1,0,0.3-0.1,0.4-0.2c-0.1-0.1-0.1-0.1-0.1-0.1l0.1,0.1c-0.1-0.2,0.3,0.1,0.2,0l0.1,0.1l-0.2-0.2
		c-0.1-0.2,0.2,0.2,0-0.1c0,0-0.1-0.2-0.1-0.2l0,0.1c0,0,0-0.1,0-0.1c0,0.1,0.1,0.2,0.1,0.1l0,0.1c0-0.1,0-0.1,0-0.2
		c0.1,0.1,0.1-0.1,0.1,0.1c0,0,0,0.1,0.1-0.1c0,0.1,0,0.2-0.1,0.3c0-0.1,0.1-0.2,0.1-0.1l0,0c-0.1,0.1,0.2,0,0,0.1c0.1,0,0,0,0.2,0
		c0.1,0.1-0.2,0.1-0.1,0.2c0,0,0,0,0.1,0.1c0,0.1-0.1,0-0.1,0l0,0c-0.1,0.1-0.1,0.1-0.2,0.1c0,0-0.1,0.2-0.1,0.2c0-0.1,0,0,0,0
		c0,0,0,0,0-0.1c0,0,0,0,0,0l0,0c-0.1,0-0.1,0.1,0,0.1l0,0c0-0.1-0.2,0-0.1-0.1c-0.2-0.1-0.3,0.1-0.4-0.1c0.1,0,0.2,0,0.2,0
		c0,0,0,0,0-0.1c0.1,0,0.1,0,0.1,0.1c0.2,0-0.2-0.2,0.1-0.4l-0.1-0.1l0,0c0,0-0.1-0.1-0.1-0.1c0.1,0,0.2,0.1,0.3,0
		c0.1,0,0.1-0.2,0.1-0.3c0,0-0.1,0-0.1-0.1c0,0,0.1,0,0.1,0l0.1,0.1c-0.1-0.1,0-0.2,0-0.2c0.1,0.1,0,0.1,0,0.2c0.1-0.1,0,0,0.2-0.1
		c0-0.1-0.1-0.1,0-0.3c0.1,0,0.2-0.1,0.3,0l0-0.1c0.2,0,0.3,0.1,0.3,0.3c0.2,0.8,0.1-0.7,0.4-0.8c1,0.5,0.6-0.1,0.6-0.1
		c-0.1-0.5-0.7-0.8-1.2-0.8C468.3,162.7,467.8,162.9,467.3,163.5z"/>
</g>
<g>
	<path class="st2" d="M537.3,193L537.3,193C537.3,193.1,537.3,193.1,537.3,193z"/>
	<path class="st2" d="M539,192.5L539,192.5L539,192.5z"/>
	<polygon class="st2" points="537.4,195.5 537.4,195.5 537.4,195.5 	"/>
	<path class="st2" d="M536.2,191.7c-0.4,0.4-0.6,0.7-0.7,1.1c-0.1,0.4-0.1,0.9,0.2,1.5c0.3,0.6,1,1.1,1.7,1.2c0.4-0.1,0.9,0,1.1-0.3
		l0.2,0c0.1-0.1,0.2-0.2,0.3-0.2l0,0c0.1-0.2,0.3-0.3,0.3-0.4l0,0l0.1-0.2l0,0.1c0.3-0.6,0.2-0.5,0.4-0.8l-0.1,0
		c0.3-0.5,0-0.7,0.2-1.2l0,0c-0.4-0.4,0-1.1-0.7-1.3c0.1,0,0-0.1,0-0.1c-0.2-0.2-0.5-0.2-0.6,0c-0.2,0-0.1-0.1-0.1-0.2
		c0,0.1-0.2,0.1-0.3,0.2l0.1-0.1c-0.1,0-0.2,0.1-0.3,0.1l-0.1,0l0,0.2c-0.1,0,0-0.3-0.2-0.1l0,0.2c-0.2,0.1-0.4-0.1-0.7,0
		c-0.7,0.6-1.1,2.1-0.8,2.7c0.2,0.6,0.7,1,1.4,1.1l0.1,0.1c0.1,0.2,0.3-0.3,0.4-0.2l0.1-0.1c0,0,0.1,0,0.1,0.1
		c0.1,0,0.1-0.1,0.2-0.2l0.1,0.1c0.4-0.1,0.6-0.4,1-0.7c0.4-0.1,0.7-0.6,0.9-1.1c0.1-0.5,0.1-1-0.1-1.3c-0.1-0.2-0.1-0.2-0.1-0.3
		c-0.2-0.4-0.4-0.8-0.8-1c-0.3-0.2-0.7-0.3-1.3,0.2c0,0-0.1,0.1-0.1,0.1c-0.3,0.2-0.7,0.4-1,0.8c0,0-0.3,0.3-0.5,0.7
		c-0.2,0.4-0.2,0.9,0,1.2c0.1,0.3,0.7,0.5,0.7,0.2c0-0.2,0.1-0.7,0.6-1l0,0c0.2-0.1,0.2-0.1,0.2-0.3c0.1,0.1,0.1-0.1,0.1,0l0,0
		c0.1-0.2,0.1,0,0.2-0.1c0,0,0,0.1,0,0.1c0-0.1,0.1-0.1,0.1,0c0.1-0.1,0.2,0,0.5-0.1l-0.1,0c0.2-0.1,0.1,0,0.1,0c0,0,0,0,0,0
		c0,0,0,0,0,0c0.2,0,0,0.2,0.1,0.2l-0.1,0c0,0,0,0.1,0,0.1l0,0c0.3,0-0.2,0.1-0.1,0.2c-0.1,0,0.4,0.4,0.2,0.5c0,0.1-0.1-0.2-0.1,0
		c-0.1-0.1,0-0.1-0.1-0.2c0,0.1-0.2,0-0.2,0.1l-0.1-0.1c0,0.3-0.4,0-0.4,0.3c-0.1,0.2-0.3-0.2-0.3,0l-0.1-0.1c0,0,0,0.2,0,0.1
		c0-0.1-0.1-0.1,0-0.2c0-0.1-0.2,0.2-0.2-0.1c-0.1,0.1-0.1,0-0.1,0.1c0-0.1,0-0.1,0.1-0.1c0,0,0,0,0,0l0.1-0.1c0.1-0.1-0.1,0,0-0.1
		c0,0,0,0-0.1,0l0-0.1l0,0l0,0l-0.1,0c0,0,0.1,0,0.1,0c0,0-0.1,0-0.1-0.1c0.1,0,0.1,0,0.1,0c0-0.1,0-0.1,0-0.1l0,0.1
		c0-0.2,0,0.2,0,0.1l0,0.1l0-0.2l0,0c0.1-0.2-0.1,0.3,0.1-0.1c0,0,0.1-0.3,0.1-0.2l-0.1,0.1c0,0,0.1-0.1,0.1-0.1
		c0,0.1-0.1,0.2-0.1,0.2l-0.1,0.2c0-0.1,0.1-0.2,0.2-0.2c0,0.1,0.1,0,0,0.2c0,0,0,0.1,0.1,0c-0.1,0.1-0.1,0.1-0.3,0.2
		c0.1-0.1,0.2-0.1,0.1,0l0,0c-0.1,0,0.2,0.1,0,0.1c0.1,0,0,0,0.2,0.1c0.1,0.2-0.3-0.1,0,0.3c0,0.1-0.1-0.1-0.2-0.1l0,0
		c-0.1,0.1-0.1,0.1-0.2,0.1c0,0.1,0,0.3-0.1,0.2c0-0.1,0-0.1,0-0.1c0,0,0,0,0-0.1c0,0,0,0,0,0.1l0,0c0,0,0,0.1,0,0.1c0,0,0,0,0,0.1
		c0-0.1-0.1,0,0-0.2c-0.1,0-0.3,0-0.4-0.2c0.1,0,0.2,0,0.2,0l-0.1-0.1c0.1,0,0.1,0,0.1,0c0.2-0.1-0.2-0.2,0-0.3l-0.1,0l0,0
		c0,0-0.1-0.1-0.1-0.1c0.1,0,0.2,0.1,0.2,0c0.1,0,0-0.2,0-0.3c0,0-0.1,0-0.1-0.1c0,0,0.1,0,0.1,0l0.1,0.1c-0.1-0.1,0-0.2-0.1-0.2
		c0.1,0.1,0,0.1,0.1,0.2c0.1-0.1,0.1-0.1,0.2-0.2c0-0.1-0.1-0.1-0.1-0.2c0.1-0.1,0.1-0.2,0.2-0.2l-0.1-0.1c0.2-0.2,0.3-0.1,0.4,0
		c0.4-0.2,0.7-0.2,0.9-0.2c0.2,0,0.3-0.2,0.3-0.3c0.1-0.4-0.4-0.8-0.5-0.8C537.8,190,536.8,190.8,536.2,191.7z"/>
</g>
<path class="st0" d="M408.3,225c0,0-12-19.3,13-38.4c8-6.1,9.6-17.4,1.1-20.3s-13.2,8-8,11c0,0,2.5,1.6,4,1.1c0,0,0.5-0.1,0.8-1.1
	l0.9-2c0,0,0.3-0.6-0.4-0.7l-1.5,0.5c0,0-0.8,0.3-1.5-0.5c0,0-2-2.1,0.4-4.2c2.4-2.2,6,1,6.2,3c0,0,1.8,5.4-7.9,11.1
	s-7.4,4.3-10.6,6.2s-22.3,5.8-22.5,29L408.3,225z"/>
<path class="st0" d="M532,277.2c13.6-3.5,8.7-30.4,10.3-43.4c0,0,1.4-12,8.9-14.6c7.5-2.6,13.1,3,15.2,5.4c0,0,2,1.7-0.4,4.2
	l-2.2,2.2c0,0-1.1,1.4-1.7-0.3c0,0,0-7.5-5.7-7.6c-1.8,0-8.6-0.3-8.5,15.7c0,8.2,7,14.9,8.7,17.1c0,0,20.4,20.1,2.7,29.8
	C559.4,285.8,526.4,278.7,532,277.2z"/>
<path class="st3" d="M350.1,567.5l76.8-14.6c0,0-25.8,16.4-38.4,17.6C388.4,570.5,373.6,570,350.1,567.5z"/>
<path class="st0" d="M502.1,220.1c-0.5,0-1,0-1.6,0c-7.1-0.1-14-2.4-19.2-4.3c-10.2-3.9-20-9-29-15.1l-1.3-0.9l1.2-1
	c4.2-3.4,8.5-6.7,12.3-9.6c2.8-2.1,5.2-4,7.1-5.5l0.4-0.3l0.5,0c9.2,1,45.1,18.3,46.6,19.1l0.6,0.3l0,0.7c0.1,0.9,0.5,8.6-2.7,11.7
	C512.6,219.6,508.2,220.1,502.1,220.1z M455,199.7c8.5,5.6,17.7,10.3,27.2,14c5,1.9,11.6,4.1,18.4,4.2c6.5,0.1,10.7-0.2,14.9-4.2
	c1.9-1.9,2.2-6.8,2.1-9.3c-4.8-2.3-36-17.2-44.8-18.5c-1.8,1.4-4.1,3.2-6.7,5.2C462.6,193.7,458.7,196.7,455,199.7z"/>
<polygon class="st4" points="328.6,555.3 343.2,561.9 371.5,555.8 350.7,546.3 351.4,554.1 "/>
<polygon class="st3" points="404.2,549.7 444.4,542.8 455.5,533.5 "/>
<polygon class="st5" points="362.1,278.1 348.4,287.7 377.7,299.4 "/>
<polygon class="st5" points="370.2,274.6 374.6,282.8 407.4,268.4 434.3,263.4 404.5,261.9 383.1,267.5 "/>
<polygon class="st5" points="442.9,267.7 409.7,274.6 454.5,273.1 "/>
<polygon class="st5" points="344.7,293 326.9,308.5 316.6,323.3 351.1,295.9 "/>
<g>
	<path class="st6" d="M416.2,482.1c0.3-0.9-0.2-1.9-1.1-2.2c-0.9-0.3-1.9,0.2-2.2,1.1c-0.3,0.9,0.2,1.9,1.1,2.2
		C415,483.5,415.9,483,416.2,482.1L416.2,482.1L416.2,482.1z M419.8,483.3c-1.2,3.7-4.2,5.6-7.3,4.5s-4.4-4.3-3.2-8
		c1.2-3.7,4.2-5.6,7.3-4.5C419.7,476.3,421.1,479.6,419.8,483.3L419.8,483.3L419.8,483.3z M455.3,498.6c1.9-7.3-8.1-9.3-6.9-13.6
		c0.4-1.6,2.2-2.6,4.5-1.9c1.2,0.3,1.9,1,2,1.9l0.3,2.1c0,0.2,0.3,0.4,0.5,0.4c0.1,0,0.2-0.1,0.3-0.2l2.2-2.8c0.1-0.2,0.1-0.4,0-0.6
		c-0.8-0.9-2.2-1.8-4.7-2.5c-4.4-1.2-7.4,0.8-8.2,3.6c-2,7.2,8,9.3,6.9,13.7c-0.5,2.1-2.4,3.1-5,2.5c-1.3-0.3-2.2-1-2.4-2l-0.8-2.6
		c-0.1-0.2-0.3-0.4-0.6-0.3c-0.1,0-0.2,0.1-0.2,0.2l-2,3c-0.1,0.2-0.1,0.4,0.1,0.6c1.5,1.4,3.4,2.3,5.3,2.9
		C451,504.1,454.4,502.2,455.3,498.6L455.3,498.6L455.3,498.6z M436.8,499.7c2-6.6,3.9-13,6-19.6c0.1-0.3-0.1-0.6-0.4-0.7
		c0,0,0,0,0,0l-2.8-0.8c-0.2-0.1-0.5,0.1-0.6,0.3c0,0.1,0,0.2,0,0.3l0.7,1.4c0.1,0.3,0.1,0.5,0.1,0.8c-0.5,1.7-1.5,4.9-2.2,7.1
		c-0.1,0.4-0.5,0.5-0.6,0c-1.6-3.8-3.6-8.9-5-12.2c-0.1-0.2-0.3-0.4-0.5-0.5l-3.5-1.2c-0.2-0.1-0.5,0.1-0.6,0.3c0,0.1,0,0.2,0,0.3
		l1.1,2.4c0.1,0.3,0.1,0.5,0,0.8c-1.8,5.4-3.9,11.8-5.6,17.1c-0.1,0.3,0.1,0.6,0.4,0.7c0,0,0,0,0,0l1.3,0.4c0.4,0.1,0.7-0.2,0.8-0.5
		l4.6-14.1c0.1-0.4,0.5-0.5,0.6,0c1.6,3.9,3.7,9,4.9,12c0.1,0.3,0.1,0.5,0,0.8c-0.4,1.4-0.8,2.7-1.3,4.1c-0.1,0.3,0.1,0.6,0.4,0.7
		c0,0,0,0,0,0c0.5,0.1,0.9,0.2,1.3,0.3C436.3,500.1,436.7,500,436.8,499.7L436.8,499.7z M423,484.4c1.5-4.5-0.8-9.3-5.7-10.9
		s-9.6,0.8-11.1,5.3c-1.5,4.6,0.8,9.3,5.7,10.9C416.9,491.3,421.5,488.9,423,484.4L423,484.4L423,484.4z M424.7,447.8
		c-1.9,5.4-3.9,10.9-5.8,16.3c-0.2,0.6,0.1,1.2,0.7,1.4l2.2,0.8c3.6,1.3,6.7-1.2,8.6-7c2.5-7.4,0.1-10-2.4-10.8l-2.7-1
		C425,447.5,424.8,447.6,424.7,447.8L424.7,447.8L424.7,447.8z M399.1,487c2.4-6.6,4.9-13.3,7.3-20c0.1-0.3,0-0.6-0.3-0.7
		c0,0,0,0,0,0c-1-0.4-2.5-1-3.7-1.5c-0.2-0.1-0.5,0-0.6,0.3c0,0.1,0,0.2,0,0.3l0.6,1.6c0.1,0.3,0.1,0.5,0,0.8
		c-2.1,5.7-4.6,12.3-6.6,17.9c-0.1,0.3,0,0.6,0.4,0.8l2.3,0.9C398.7,487.4,399,487.3,399.1,487L399.1,487L399.1,487z M393.8,478.9
		c2.7-7.2-7-10.2-5.3-14.5c0.6-1.5,2.4-2.4,4.7-1.5c0.9,0.4,1.8,1,1.8,2l0.1,2.2c0,0.2,0.2,0.4,0.5,0.4c0.1,0,0.2,0,0.3-0.1l2.5-2.6
		c0.2-0.2,0.2-0.4,0-0.6c-0.7-1-1.9-2.1-4.4-3c-4.3-1.7-7.5,0-8.6,2.8c-2.8,7.1,6.9,10.2,5.3,14.6c-0.8,2.1-2.8,2.9-5.2,2
		c-1-0.4-2-1.1-2.2-2.2l-0.5-2.7c0-0.2-0.3-0.4-0.5-0.4c-0.1,0-0.2,0.1-0.3,0.2l-2.4,2.8c-0.1,0.2-0.1,0.4,0,0.6
		c1.4,1.5,3.1,2.7,5,3.5C388.9,484,392.5,482.4,393.8,478.9L393.8,478.9z M389,453.9c0.1-1.5,0.1-3,0.2-4.1c0-0.2-0.1-0.4-0.3-0.5
		c-2-0.8-4.1-1.6-6.1-2.5c-0.2-0.1-0.4,0-0.6,0.1l-2,2.2c-0.3,0.3-0.4,0.7-0.2,1.1l0.4,1.1c0.2,0.6,0.7,1.1,1.3,1.3l5.7,2.3
		C388.3,455.2,389,454.7,389,453.9L389,453.9L389,453.9z M383.6,458.1c0.1-0.3,0-0.6-0.3-0.8l-3.7-1.5c-0.2-0.1-0.5,0-0.6,0.2
		c0,0.1,0,0.2,0,0.3l0.5,1.6c0.1,0.3,0.1,0.5,0,0.8c-2.3,5.6-5,12.2-7.3,17.6c-0.1,0.3,0,0.6,0.3,0.8c0,0,0,0,0,0l2.3,0.9
		c0.3,0.1,0.6,0,0.8-0.3c0,0,0,0,0,0C378.3,471.2,380.9,464.6,383.6,458.1L383.6,458.1L383.6,458.1z M376.4,454.5
		c-0.6-0.2-2.2-0.9-3.4-1.4c-0.2-0.1-0.5,0-0.6,0.3c0,0.1,0,0.2,0,0.3l0.6,1.7c0.1,0.3,0,0.6-0.2,0.9c-2.2,2.6-6.1,7.1-8.6,10
		c-0.3,0.3-0.6,0.2-0.6-0.2c0.5-4.8,1.1-11.2,1.5-15.5c0-0.4-0.2-0.7-0.5-0.8c-0.7-0.3-2.3-1-3.7-1.5c-0.2-0.1-0.5,0-0.6,0.2
		c0,0.1,0,0.2,0,0.3l0.8,2.5c0.1,0.2,0.1,0.4,0.1,0.6c-0.6,6.1-1.4,13.6-1.9,19.6c0,0.3,0.1,0.5,0.4,0.6l1.4,0.6
		c0.2,0.1,0.5,0,0.7-0.2c5-5.6,9.9-11.4,14.8-17.1C376.7,455,376.6,454.7,376.4,454.5C376.4,454.6,376.4,454.5,376.4,454.5
		L376.4,454.5L376.4,454.5z M356.6,458.6c1.9-4.4,0-9.3-4.8-11.4c-4.8-2.1-9.6-0.1-11.5,4.3c-1.9,4.4,0,9.3,4.8,11.4
		C349.8,465,354.7,463,356.6,458.6L356.6,458.6L356.6,458.6z M336.3,460.9l-1.1-3.3c-0.1-0.2-0.1-0.4-0.1-0.6
		c-0.1-2.4-0.2-5.6-0.2-7.7c0-0.3,0.2-0.6,0.5-0.6c2.6-0.3,4.6-1.4,5.8-3.8c1.3-2.7,0.2-5.4-3.7-7.3c-2.1-1-4.8-2.4-6.7-3.3
		c-0.2-0.1-0.5,0-0.6,0.2c-0.1,0.1-0.1,0.2,0,0.3l0.4,1.6c0.1,0.3,0,0.6-0.1,0.8c-2.7,5.3-5.8,11.5-8.4,16.7c-0.2,0.3,0,0.7,0.4,0.9
		c0.6,0.4,1.3,0.7,2,1c0.3,0.1,0.7,0.1,0.9-0.2c0.9-1.8,2.2-4.4,3.2-6.4c0.2-0.4,0.6-0.7,1.1-0.6l1.6,0.1c0.3,0,0.5,0.3,0.5,0.6
		c0.1,3.3,0.1,6.6,0.2,9.9c0,0.3,0.2,0.6,0.5,0.7l3.4,1.6c0.2,0.1,0.5,0,0.6-0.2C336.4,461.1,336.4,461,336.3,460.9L336.3,460.9z
		 M323.2,430c-1.4-0.9-4.4-2.7-6.4-4c-0.2-0.1-0.5-0.1-0.6,0.1c-0.1,0.1-0.1,0.2-0.1,0.3l0.4,1.6c0.1,0.3,0,0.5-0.1,0.8
		c-2.7,5-5.8,11.1-8.4,15.9c-0.1,0.3-0.1,0.7,0.2,0.9c0.6,0.5,1.3,1,2,1.5c0.2,0.2,0.6,0.1,0.7-0.1c0,0,0,0,0-0.1c1-1.9,2-3.9,3-5.8
		c0.4-0.7,0.6-0.7,1.5-0.5c5,0.9,9.1,0.8,11.1-3C327.9,435.1,326.9,432.1,323.2,430L323.2,430z M384.8,445.1l3.9,1.6
		c0.2,0.1,0.5,0,0.7-0.2c0-0.1,0-0.1,0-0.2c0.1-2.1,0.2-4.6,0.3-6.7c0-0.6-0.3-0.6-0.6-0.2c-1.4,1.6-3.1,3.5-4.5,5.1
		c-0.2,0.2-0.2,0.5,0,0.7C384.6,445,384.7,445,384.8,445.1L384.8,445.1L384.8,445.1z M403.4,445c-1.2,3.1-3.4,8.9-5,13
		c-0.2,0.6,0.1,1.2,0.6,1.4c2.3,0.9,4.6,1.8,6.7,2.7c0.6,0.2,1.2,0,1.5-0.6c0,0,0,0,0,0c0.5-1.2,0.9-2.5,1.4-3.6
		c0.1-0.2,0.1-0.5,0-0.7c-1.5-4-2.9-8-4.3-12C404,444.4,403.6,444.4,403.4,445L403.4,445z M478.2,491.7c-9.8,24.6-34.5,18.1-102-9
		s-89.8-39.4-80-64c5.1-12.8,24.3-15.9,28.1-25.4c1.3-3.2-0.2-5.6-2.5-6.5c-2-0.8-3.6-0.1-4.2,1.5c-0.7,1.7,0.2,2.9,1.2,3.4
		c0.3,0.1,0.6,0.1,0.9,0l1.3-0.5c0.2-0.1,0.5,0,0.6,0.3c0,0.1,0,0.2,0,0.3l-1,2.5c-0.2,0.5-0.7,0.7-1.1,0.7c-3.3-0.3-7.2-3-5.2-8
		c1.3-3.2,4.9-4.6,8.7-3.1c4.4,1.7,6.7,6.6,4.5,12c-3.4,8.5-11.4,9.8-13.9,16.1c-1.4,3.5,0.6,7.2,7.1,11.9c0.5,0.4,1.2,0.3,1.5-0.2
		c0.1-0.1,0.1-0.1,0.1-0.2c2.6-4.8,5.8-10.8,8.4-15.8c0.1-0.3,0.2-0.5,0.1-0.8l-0.5-1.8c-0.1-0.2,0.1-0.5,0.3-0.6c0.1,0,0.2,0,0.3,0
		c1.3,0.7,3,1.6,3.9,2.1c0.4,0.2,0.5,0.6,0.3,0.9c-3.2,6.1-6.4,12.2-9.6,18.3c-0.3,0.4-0.2,1.1,0.2,1.4c0.1,0,0.1,0.1,0.2,0.1
		c1.8,1.1,3.9,2.2,6.2,3.4c0.7,0.3,1.2-0.1,0.7-0.8c-1.8-3.2-1.8-7.4,0.2-11.3c3.1-6.1,9.2-8.7,14.4-6.2c1.6,0.7,3,1.8,4,3.2
		c0.3,0.5,0.2,1.2-0.2,1.6l-2.3,2.6c-0.2,0.2-0.4,0.2-0.6,0c-0.1-0.1-0.1-0.2-0.2-0.3l-0.1-3c0-1-0.6-1.9-1.5-2.3
		c-1.6-0.8-5.6-1.7-9.5,6.3c-3.8,7.7-0.9,10.6,1.2,11.6c0.7,0.3,1.4,0.3,2.1,0l3.9-1.7c0.2-0.1,0.5,0,0.6,0.2c0.1,0.1,0.1,0.3,0,0.4
		l-1.5,3.2c-0.2,0.4-0.4,0.5-1.2,0.7c-0.4,0.1-0.4,0.4,0,0.6c1.1,0.5,2.3,1.1,3.5,1.6c0.5,0.3,1.2,0.1,1.4-0.5c0,0,0,0,0-0.1
		c2.4-5.1,5.6-11.9,8-17.1c0.1-0.3,0.1-0.6,0-0.8l-0.6-1.8c-0.1-0.2,0-0.5,0.3-0.6c0.1,0,0.2,0,0.3,0c2.9,1.4,8.5,3.9,12,5.5
		c0.4,0.2,0.5,0.6,0.4,0.9c0,0,0,0,0,0l-1.3,3.1c-0.1,0.2-0.4,0.3-0.6,0.2c-0.1,0-0.2-0.1-0.3-0.3l-1.1-2.7
		c-0.1-0.3-0.3-0.5-0.6-0.6c-1.4-0.7-3.4-1.5-4.3-2c-0.2-0.1-0.5,0-0.7,0.2c0,0,0,0,0,0l-2.8,6c-0.1,0.2,0,0.5,0.2,0.6l3.5,1.6
		c0.3,0.1,0.6,0.1,0.8,0l1.4-0.5c0.2-0.1,0.5,0.1,0.6,0.3c0,0.1,0,0.2,0,0.3l-1.7,3.7c-0.1,0.2-0.4,0.3-0.6,0.2
		c-0.1,0-0.2-0.1-0.2-0.2l-0.6-1.4c-0.1-0.3-0.3-0.5-0.6-0.6l-3.6-1.6c-0.2-0.1-0.5,0-0.6,0.2c-1,2.3-2.1,4.5-3.1,6.7
		c-0.3,0.5-0.1,1.2,0.5,1.4c0,0,0.1,0,0.1,0c1.1,0.5,3.1,1.4,4.5,2.1c0.3,0.1,0.6,0.1,0.8,0l2.7-0.9c0.2-0.1,0.5,0,0.6,0.3
		c0,0.1,0,0.2,0,0.3l-1.1,2.4c-0.3,0.5-0.1,1.1,0.4,1.4c0.1,0,0.1,0.1,0.2,0.1l1.8,0.8c0.3,0.2,0.7,0,0.9-0.3c0,0,0,0,0,0
		c2.3-5.1,5.3-12.1,7.7-17.5c0.1-0.3,0.1-0.6,0-0.8l-0.7-1.7c-0.1-0.2,0-0.5,0.3-0.6c0.1,0,0.2,0,0.3,0l4.1,1.8
		c0.4,0.2,0.5,0.6,0.4,0.9c0,0,0,0,0,0c-2.5,5.8-5.1,11.6-7.6,17.4c-0.2,0.6,0,1.2,0.6,1.4c0,0,0,0,0,0l3.6,1.6
		c0.3,0.1,0.6,0.1,0.9,0l2.9-1.4c0.2-0.1,0.5,0,0.6,0.2c0.1,0.1,0.1,0.3,0,0.4l-1.3,3.1c-0.2,0.4,0,0.8,0.4,0.9
		c0.3,0.1,0.6,0,0.8-0.2c3.9-4.3,9.1-10,13-14.4c0.3-0.3,0.4-0.8,0.2-1.1l-0.9-2.4c-0.1-0.2,0-0.5,0.3-0.6c0.1,0,0.2,0,0.3,0
		l4.4,1.8c0.3,0.1,0.5,0.4,0.4,0.7c-0.4,7-0.7,15.2-0.9,22.5c0,0.5,0.3,0.9,0.7,1.1c0.2,0.1,0.4,0.2,0.6,0.3c0.5,0.2,1.2,0,1.4-0.5
		c0,0,0-0.1,0-0.1c1.9-5,4.4-11.3,6.4-16.4c0.1-0.3,0.1-0.6,0-0.8L401,437c-0.1-0.2,0-0.5,0.2-0.6c0.1,0,0.2,0,0.3,0l3.9,1.5
		c0.3,0.1,0.5,0.3,0.5,0.6c1.4,4,2.8,8.1,4.3,12.1c0.2,0.7,0.7,0.8,0.9,0c0.7-1.8,1.7-4.5,2.4-6.4c0.1-0.3,0.1-0.6,0-0.8l-0.8-1.8
		c-0.1-0.2,0-0.5,0.2-0.6c0.1,0,0.2-0.1,0.3,0l3.2,1.2c0.4,0.1,0.6,0.5,0.4,0.9c-2.4,6.4-4.8,13.1-7.2,19.5
		c-0.2,0.6,0.1,1.2,0.7,1.5l2.7,1c0.6,0.2,1.2-0.1,1.4-0.6c0,0,0,0,0,0c1.9-5.4,4.3-12.1,6.2-17.6c0.1-0.3,0.1-0.5,0-0.8l-0.7-1.8
		c-0.1-0.2,0-0.5,0.2-0.6c0.1,0,0.2,0,0.3,0c2.5,0.9,5.8,2.1,8,2.9c4.7,1.7,8.3,7,5.9,14.2c-1.6,4.8-4.9,7.4-8.4,8.1
		c-0.8,0.1-0.8,0.8-0.1,1.1c2.5,0.9,4.8,1.7,7,2.5c0.5,0.3,1.1,0.1,1.3-0.4c0-0.1,0.1-0.2,0.1-0.3c1.8-5.4,4.2-12.6,6-18.1
		c0.1-0.3,0.1-0.6,0-0.8l-0.8-1.7c-0.1-0.2,0-0.5,0.2-0.6c0.1,0,0.2-0.1,0.3,0l4.2,1.4c0.4,0.1,0.6,0.5,0.5,0.8c0,0,0,0,0,0
		c-2.1,6.5-4.4,13.7-6.6,20.2c-0.2,0.5,0,1.1,0.6,1.4c0.1,0,0.1,0,0.2,0.1c2.6,0.8,5.1,1.5,7.4,2.1c0.5,0.1,1.1-0.2,0.4-1
		c-2.7-2.8-3.7-7.3-2.2-12c2.1-6.5,7.8-10,13.3-8.3c1.6,0.5,3.2,1.3,4.4,2.5c0.5,0.5,0.6,1,0.1,1.7l-1.9,2.8
		c-0.1,0.2-0.4,0.3-0.6,0.1c-0.1-0.1-0.2-0.2-0.2-0.3l-0.6-2.9c-0.1-1-0.8-1.8-1.8-2c-1.7-0.5-5.8-0.8-8.4,7.7
		c-1,3.2-1.2,5.9-0.6,7.8c0.5,1.7,1.8,3,3.5,3.4c0.7,0.2,1.5,0.1,2.1-0.3l3.7-2.3c0.2-0.1,0.5-0.1,0.6,0.1c0.1,0.1,0.1,0.2,0.1,0.4
		l-0.8,2.8c-0.1,0.3-0.3,0.6-0.5,0.8c-0.4,0.4-0.5,0.6,0.3,0.7c6.6,0.4,10.2-1.7,12-6.1c3-7.4,0.8-16.2,3.8-23.9
		c2.8-7,8.9-8.1,13.3-6.3c2.1,0.8,3.9,2.1,5.4,3.7c0.3,0.3,0.3,0.8,0.1,1.2l-2.3,3.1c-0.4,0.6-1.3,0.4-1.4-0.4l-0.4-1.8
		c-0.3-1.5-1.1-2.5-2.8-3.2c-2.2-0.9-4.5,0-5.8,3.3C474.8,458.9,483.7,477.9,478.2,491.7L478.2,491.7L478.2,491.7z M336.1,439.1
		c-0.6-0.3-1.1-0.6-1.7-0.8c-0.3-0.1-0.6,0-0.8,0.3c-1.2,2.4-2.3,4.7-3.5,7.1c-0.3,0.5-0.3,0.8,0.5,0.8c2.8,0.1,5.8-0.4,7.1-3.2
		C338.6,441.5,338.1,440.1,336.1,439.1L336.1,439.1L336.1,439.1z M350,455.7c0.4-0.9,0-1.9-0.9-2.2c-0.9-0.4-1.9,0-2.2,0.9
		c-0.4,0.9,0,1.9,0.9,2.2C348.6,457,349.6,456.6,350,455.7C350,455.7,350,455.7,350,455.7L350,455.7L350,455.7z M353.5,457.2
		c-1.5,3.6-4.7,5.2-7.7,3.9c-3-1.3-4-4.7-2.4-8.2c1.5-3.6,4.7-5.2,7.7-3.9C354,450.3,355,453.7,353.5,457.2L353.5,457.2L353.5,457.2
		z M323.3,435.9c-1.4,2.7-4.3,3.1-7,2.7c-0.7-0.1-0.7-0.4-0.4-0.9c1.2-2.3,2.4-4.6,3.7-7c0.1-0.3,0.5-0.4,0.7-0.2c0,0,0,0,0,0
		c0.5,0.3,1.1,0.6,1.6,0.9C323.7,432.6,324.2,434.1,323.3,435.9L323.3,435.9z"/>
</g>
<path class="st0" d="M517,202.1c-8.1-3.4-37-15.2-45.1-18.6c0,0,14.8-12.1,24.6-36.5c3.9-12,4-14,3.7-21.2c-0.3-7.2-3-14.6-8.8-18.9
	c-3.5-2.6-8-3.9-12.4-3.6C499.7,89.8,528,101,528,101c40.3,17.1,44.8,47.7,44.8,47.7c-2.3-5-4.4-9.1-8.9-12.2s-10.2-4.7-15.5-3.6
	c-5.6,1.2-10.2,5.1-14.2,9.3c-13.8,14.8-16.6,40.6-14.7,60.8L517,202.1z"/>
</svg>
