<?xml version="1.0" encoding="utf-8"?>
<!-- Generator: Adobe Illustrator 27.4.1, SVG Export Plug-In . SVG Version: 6.00 Build 0)  -->
<svg version="1.1" id="Mr_Albertson" xmlns="http://www.w3.org/2000/svg" xmlns:xlink="http://www.w3.org/1999/xlink" x="0px"
	 y="0px" viewBox="0 0 800 800" style="enable-background:new 0 0 800 800;" xml:space="preserve">
<style type="text/css">
	.st0{fill:#FFFFFF;}
	.st1{fill:#0C5DA8;}
	.st2{fill:#00A0E0;}
	.st3{fill:#202020;}
	.st4{fill:#02A5E0;}
	.st5{fill:none;stroke:#4E82B7;stroke-width:0.75;stroke-linecap:round;stroke-linejoin:round;stroke-miterlimit:10;}
</style>
<g>
	<path class="st0" d="M550.1,261.9c0.4,0,0.6,0.4,0.5,0.7c-3.2,10.7-44,145.8-102.6,227.9c0,0-43,61.5-53.7,131.3
		c0,0.2-0.2,0.4-0.4,0.5c-4,1.2-42.3,11.9-136.5,2.3c0,0,0,0-0.1,0c-1.7-0.4-68.2-15.9-114.6-48.1c-0.5-0.4-0.2-1.2,0.4-1.1
		l104.4,17.2c0.3,0.1,0.7-0.2,0.7-0.5l13.1-223.3c0,0,2.6-72.1,63.6-78.6c0.1,0,0.1,0,0.2,0c1.7,0.3,32.2,5.1,48-20.8
		c0,0,0-0.1,0-0.1c0.9-2,34.9-81.1,102.2-34.6C475.3,234.8,509.8,257.8,550.1,261.9z"/>
	<path d="M712.1,212.3l-30.8-13.1c0,0-0.1,0-0.1-0.1c-1.5-1.1-31.6-24.6-47.6-56.5c0,0-18.8-35.7-96.1-7.1c0,0,0,0-0.1,0
		c-1.8,0.4-73.1,14.4-109.4,17.2c0,0-65.2,5.3-125.9,83.6c0,0-25.7,30.7-64.7,43.4c0,0-74,28.9-143,117.1c0,0,0,0.1-0.1,0.1
		c-0.3,0.7-4.3,9.1-5,18.5c0,0.4,0.3,0.7,0.7,0.6c2.3-0.5,9.8-2.3,23-9c0,0,0.1,0,0.1,0c2.1-1.6,95.9-71.8,132-79.3
		c0.5-0.1,0.9,0.4,0.6,0.9c-5.2,8.6-37.6,66.5-44.1,170.6c0,0,0,0.1,0,0.1c-0.4,1.5-10.4,34.2-47.8,35.7
		c-32.9,1.3-57.5-0.6-63.7-1.1c-0.5,0-0.8,0.6-0.5,1c6.6,7.1,43.8,45.3,84.4,53.4c0,0,62,15.5,88,19.3c0.3,0,0.6-0.2,0.7-0.5
		c0.8-12.2,13.8-198.7,14.8-226.5c0,0,0,0,0,0c-0.1-1.1-2.4-58.1,35.7-76.5c0.1,0,0.1,0,0.2-0.1l11.9-1.5c0.4,0,0.7,0.2,0.7,0.6
		v39.2c0,0.5,0.6,0.8,1,0.4c6.6-5.9,44.4-40.7,61.3-83.5c0,0,0,0,0-0.1c0.6-1.2,22.8-42.4,68.5-24.8c0,0,0,0,0.1,0
		c1.4,0.8,48.6,26.9,93.3,28.5c0.1,0,0.1,0,0.2,0c1.9-0.5,35.1-9.5,65.6-26.8c10.4-6.1,24.3-15.4,25.7-16.4c0.1-0.1,0.2-0.1,0.3-0.1
		l69.5-4.1C713.2,215.1,713.6,212.9,712.1,212.3z"/>
</g>
<path class="st0" d="M650.6,168.5c0,0-18.6-6.7-36.9,52.5c0,0-29.2-15.8-9.7-67c0,0,16.7,1.1,27.1-2.6c0,0,5.4-1.4,4-6.1
	C635,145.3,641.4,157.2,650.6,168.5z"/>
<path d="M377.7,625.6c0,0-6.9,55.5-48.4,85.3c0,0,44.7,18.1,94.2-3.1c0,0-28.9-16.6-34.1-27c-9-10.9-3.5-39.1,1.4-57.6L377.7,625.6z
	"/>
<path d="M317.9,628.4c0,0-8,60.4-49.4,90.2c0,0,44.7,18.1,94.2-3.1c0,0-28.9-16.6-34.1-27c-9-10.9-3-41.8,1.9-60.3L317.9,628.4z"/>
<path class="st1" d="M431.7,323.9h-92.8c-0.8,0-1.4-0.6-1.4-1.4v-26.2c0-0.8,0.6-1.4,1.4-1.4h92.8c0.8,0,1.4,0.6,1.4,1.4v26.2
	C433.1,323.3,432.4,323.9,431.7,323.9z"/>
<g>
	<g transform="translate(250.7732,50.4098)">
		<path class="st2" d="M175.8,259.2c0.2,0,0.4,0,0.4-0.2c0-0.2-0.2-0.2-0.3-0.2l-0.3,0l0,0.4 M176.4,259.9l-0.2,0l-0.4-0.6l-0.3,0
			l0,0.6l-0.1,0l0-1.2l0.5,0c0.1,0,0.2,0,0.3,0.1c0.1,0.1,0.1,0.2,0.1,0.3c0,0.2-0.2,0.3-0.4,0.3 M176.8,259.3c0-0.5-0.4-1-1-0.9
			c-0.5,0-1,0.4-1,1c0,0.5,0.4,1,1,1C176.4,260.3,176.8,259.8,176.8,259.3 M174.8,259.3c0-0.6,0.5-1.1,1.1-1.1
			c0.6,0,1.1,0.5,1.1,1.1c0,0.6-0.5,1.1-1.1,1.1C175.3,260.4,174.8,259.9,174.8,259.3"/>
	</g>
	<g transform="translate(176.6882,33.1617)">
		<path class="st2" d="M226.1,284c0-0.2-0.2-0.4-0.3-0.5c-0.2-0.1-0.4-0.3-0.5-0.4c-0.1-0.2-0.2-0.4-0.2-0.6c0-0.2,0-0.5,0-0.7
			c0-0.5,0-1,0-1.6c0-0.5,0-1,0.1-1.5c0-0.5,0.5-0.5,0.9-0.5c0.2,0,0.4-0.1,0.5-0.3c0.1-0.2,0.1-0.4,0.1-0.5c0-0.2,0-0.4-0.1-0.6
			c-0.1-0.1-0.3-0.2-0.5-0.2c-0.3,0-0.7,0.1-0.8-0.4c-0.1-0.4,0.1-0.8,0-1.2c0-0.2-0.2-0.4-0.4-0.4c-0.2,0-0.4,0.2-0.5,0.3
			c-0.4,0.3-0.8,0.6-1.2,1c-0.4,0.3-0.7,0.6-1.2,0.7c-0.5,0.1-1,0-1.5,0.1c-0.4,0.1-0.8,0.3-1.1,0.6c-0.1,0.1-0.2,0.3-0.4,0.3
			c-0.1,0-0.1-0.1-0.1-0.2c0-0.3,0-0.6-0.2-0.8c-0.1-0.1-0.4-0.2-0.6-0.2c-0.2,0-0.5,0-0.7,0c-0.3,0-0.5,0-0.8,0.1
			c-0.2,0-0.4,0.1-0.6,0.2c-0.2,0.1-0.3,0.3-0.3,0.5c0,0.2,0.3,0.3,0.4,0.5c0.1,0.2,0.2,0.4,0.2,0.6c0,0.2,0,0.5,0,0.7
			c0,1.1,0,2.1,0,3.2c0,0.3,0,0.5-0.1,0.8c0,0.2-0.1,0.4-0.2,0.6c-0.1,0.1-0.2,0.3-0.2,0.5c0,0.2,0.1,0.4,0.3,0.4
			c0.2,0.1,0.4,0.1,0.6,0.1c0.2,0,0.5,0,0.7,0c0.4,0,0.9,0,1.3,0c0.3,0,0.7-0.1,0.8-0.4c0.1-0.3-0.1-0.6-0.3-0.9
			c-0.1-0.2-0.1-0.3-0.1-0.5c0-0.3,0-0.5,0-0.8c0-0.5,0-1.1,0-1.6c0-0.3,0-0.5,0-0.8c0-0.2,0-0.4,0.1-0.6c0.4-0.6,1.1-0.7,1.8-0.7
			c0.2,0,0.3,0,0.5,0c0.2,0,0.3,0,0.5,0.1c0.2,0.1,0.2,0.2,0.2,0.4c0,0.2,0,0.5,0,0.7c0,0.5,0,1.1,0,1.6c0,0.5,0,1,0,1.5
			c0,0.4,0,0.9,0.3,1.3c0,0,0.3,0.6,1.6,0.6C225.3,284.7,226,284.6,226.1,284"/>
	</g>
	<g transform="translate(96.5227,51.2359)">
		<path class="st2" d="M271.6,258.1c-0.2,0-0.4,0.2-0.5,0.4l-0.8,2.4c0,0-0.1,0.2,0.1,0.2c0.3,0.1,0.6,0.1,0.9,0.1c0,0,0,0,0.3,0
			l0.2,0c0.2,0,0.5,0,0.7-0.2c0,0,0.1-0.1,0-0.3c0-0.1-0.3-1.2-0.4-1.9C272.2,258.9,272,258,271.6,258.1 M267.9,266.6
			c-1.3,0-1-1.1-1-1.1l0.8-2.2c0.7-1.6,1.2-3.2,1.8-4.8l0.4-1c0.1-0.2,0.2-0.5,0.2-0.8c0,0-0.1-0.4-0.2-0.4
			c-0.1-0.1-0.4-0.9,1.2-0.8c0,0,1.8,0,2.3,0.1c0,0,0.6,0.1,0.8,1.1l2.2,8.2c0,0,0.1,0.6,0.6,0.6c0.5,0,0.5-1,0.5-1s0-0.4,0-0.6
			c0-1.6,0.1-3.4,0-5.1l0-0.6c0-0.7-1.3-1.2-0.2-1.7c0.7-0.3,1.4-0.6,2.1-0.9c0,0,1-0.4,1,0.5c-0.1,2.6-0.2,5.4-0.2,7.9
			c0,0.1,0,0.9,0,0.9c0,0.4,0.4,0.6,0.5,0.9c0,0,0.3,0.4-0.6,0.7c-0.7,0.2-4.3,0.1-5.7,0.1c-1.3,0-1.2-0.8-1.2-0.8
			c0.1-0.4,0.1-0.3,0.3-0.7c0.2-0.3,0-0.7,0-0.7l0,0c-0.1-0.3-0.4-1.3-0.4-1.3s-0.1-0.3-0.4-0.3c-0.6,0-1.2,0.1-1.7-0.1
			c-0.5-0.1-0.8-0.6-0.8-0.6s-0.1-0.1-0.2-0.1c-0.1,0-0.1,0.1-0.1,0.1c-0.3,0.9-0.6,1.8-0.8,2.7c-0.2,0.8,0.5,0.8,0.3,1.4
			C269.4,266.2,269.4,266.6,267.9,266.6"/>
	</g>
	<g transform="translate(191.2761,33.2481)">
		<path class="st2" d="M217.8,283.8c0.4-0.4,0.6-1,0.6-1.5c0,0,0.2-1-0.3-1.7c-0.7-1-2.2-1-3.1-1.7c0,0-0.5-0.3-0.5-0.7
			c0,0,0-0.6,0.7-0.7c0.7-0.1,1,0.2,1,0.2c0,0,0.1,0.1,0.1,0.1c0.3,0.4-0.1,0.7-0.2,1.1c0,0.1,0,0.2,0,0.2c0.1,0.1,0.3,0.2,0.5,0.2
			c0.3,0.1,0.5,0,0.6-0.1c0.2-0.1,0.4-0.5,0.4-0.5c0.1-0.1,0.2-0.2,0.2-0.4c0.2-0.4,0.3-0.8,0.2-1.1c0,0,0-0.3-0.4-0.5
			c-1.4-0.8-3.3-0.7-4.7,0c-0.6,0.3-0.8,0.9-0.9,1.5c0,0-0.1,0.7,0,1.2c0.1,1,1,1.5,1.8,1.8c0,0,2,0.6,2.1,1.2c0.1,0.6-0.4,1-1,0.9
			c0,0-0.8,0-1.3-0.4c-0.4-0.3-0.7-0.8-0.9-1c0-0.1-0.1-0.1-0.2-0.1c-0.1-0.1-0.4-0.1-0.6,0.1c0,0-0.1,0.1-0.1,0.1
			c-0.1,0.3-0.3,1.9,0.5,2.3C213.4,284.6,216.7,285,217.8,283.8"/>
	</g>
	<g transform="translate(226.5906,50.36)">
		<path class="st2" d="M197.8,259.4c-0.4-0.5-1.1-0.3-1.7-0.1c-0.6,0.2-0.9,0.5-1.4,0.7c-0.2,0.1-0.2-0.1-0.2-0.1
			c0-0.1,0-0.3-0.1-0.5c-0.2-0.3-0.5-0.3-0.8-0.3c-0.4,0-1.5,0.2-1.5,0.2c-0.2,0.1-0.5,0.2-0.7,0.4c-0.3,0.5,0.4,0.8,0.4,1.3
			c0.1,1.5,0.2,3.2,0.1,4.8c-0.1,0.4-0.5,0.6-0.4,1c0,0,0,0.6,1.4,0.7c1.4,0,2.1-0.1,2.2-0.5c0,0,0.1-0.4-0.3-0.8
			c-0.4-0.5-0.3-4-0.3-4s-0.1-0.8,0.5-0.9c0.6-0.1,0.8,0.6,0.8,0.6c0.5,1.6,0.8,3.3,1.2,4.9c0,0,0.2,0.7,1.2,0.7
			c0.9,0,1.8,0,2.1-0.3c0,0,0.4-0.7-0.3-1.1c0,0-0.2-0.1-0.2-0.4c-0.6-1.6-0.9-3.3-1.4-5C198.2,260.1,198.1,259.8,197.8,259.4"/>
	</g>
	<g transform="translate(202.5408,47.8355)">
		<path class="st2" d="M211.4,262.9c0,0-1.2-0.2-1.3,1.1c0,0.6,0,2.3,0.1,3.1c0.1,0.7,0.4,1.1,0.6,1.3c0.2,0.2,0.5,0.2,0.8,0.2
			c0,0,0.6-0.1,0.8-0.4c0.2-0.5,0.2-0.9,0.2-1.6c0,0-0.1-2.6-0.6-3.2C211.9,263,211.4,262.9,211.4,262.9 M212.9,269.9
			c-1.2,0.2-2.7,0.1-3.5-0.1c-1-0.3-1.4-1.2-1.6-2.1c-0.4-2.2,0-3.8,0-3.8c0.1-0.8,0.4-1.6,1.2-1.9c1.5-0.6,3-0.5,3.9-0.3
			c0.5,0.1,0.8,0.3,0.8,0.3c0.4,0.3,0.9,0.8,1.2,1.5c0.4,1.3,0.5,2.5,0.3,3.9C215.1,267.3,214.8,269.6,212.9,269.9"/>
	</g>
	<g transform="translate(129.1306,35.2603)">
		<path class="st2" d="M253.1,280.9c0,0,0.2-0.1,0.3-0.5c0.2-0.7-0.1-1.5-0.2-2.3l-0.1-0.5c-0.1-0.5-0.3-1.1-0.8-1.3
			c-0.1-0.1-0.2,0-0.2,0c-0.2,0-0.3,0-0.5,0.2c0,0-0.1,0.1-0.1,0.5c0,0-0.1,2.7,0,3.1c0,0.5,0.1,0.7,0.1,0.7
			c0.1,0.3,0.3,0.3,0.3,0.3c0.1,0.1,0.3,0.1,0.5,0.1C252.8,281.3,253.1,280.9,253.1,280.9 M253.5,282.5c-1.3,0.3-3.7,0-3.7,0
			c-0.5,0-1-0.1-1.1-0.4c-0.2-0.3,0.2-0.8,0.2-0.8c0.1-0.1,0.1-0.2,0.1-0.2c0.2-2.1,0.2-4,0.1-6.1l0-0.8c0-0.5-1-0.7-0.3-1.2
			c0.8-0.5,1.5-0.9,2.4-1.3c0.3-0.1,0.4,0,0.4,0c0.1,0.1,0.1,0.3,0.1,0.3v2.8c0,0,0,0.3,0.2,0.2c0.4-0.2,0.9-0.4,1.3-0.6
			c1-0.4,1.6,0.4,1.6,0.4c0.7,0.8,1.1,2.8,1.1,2.8c0.3,1.4,0.4,3.2-0.7,4.3C254.6,282.3,253.5,282.5,253.5,282.5"/>
	</g>
	<g transform="translate(143.5838,41.4112)">
		<path class="st2" d="M244.9,272.2c0.5,0,1.2,0,1.4-0.5c0.3-0.6,0.1-1.4-0.2-2c0,0-0.1-0.2-0.3-0.3c-0.2-0.1-0.4-0.1-0.7,0
			c-0.1,0-0.1,0.1-0.1,0.1c-0.3,0.2-0.4,0.5-0.5,0.8c0,0-0.1,0.8-0.1,1.6C244.5,271.8,244.5,272.1,244.9,272.2 M247.6,272.9
			c0.1,0,0.3,0.1,0.3,0.1c0.4,0.2,0.8,0.4,0.8,0.9c0,0.9-0.5,1.8-1.3,2.2c-1,0.5-2.3,0.5-3.4,0.2c-1.2-0.2-1.6-1.3-1.6-1.3
			c-0.4-1.6-0.4-3.6,0.1-5.2c0.2-0.5,0.3-0.7,0.3-0.7c0.4-0.6,1.1-0.8,1.8-0.9c1.1-0.2,1.9,0,2.3,0.1c0.5,0.1,0.7,0.3,0.7,0.3
			c0.2,0.1,0.4,0.3,0.5,0.5c0.1,0.1,0.2,0.2,0.2,0.2c0.4,0.8,0.7,1.7,0.5,2.6c0,0.1,0,0.2-0.1,0.2c-0.1,0.1-0.1,0.2-0.2,0.3
			c-0.2,0.1-0.7,0.4-1.5,0.5c0,0-1.3,0.3-1.8,0.4c0,0-0.5,0.1-0.5,0.4c0.1,0.9,0.4,1.2,0.4,1.2s0.2,0.2,0.5,0.3c0,0,0.8,0.2,1.2-0.3
			c0,0,0.3-0.2,0.5-1.1c0,0,0.1-0.5,0.3-0.8C247.4,273,247.5,272.9,247.6,272.9"/>
	</g>
	<g transform="translate(96.5227,51.2359)">
		<path class="st0" d="M256.8,266.6l-3.1-0.1c0,0-1-0.4-0.2-1c0.5,0,0.5-1,0.5-1s0-0.4,0-0.6c0-1.3,0.1-2.8,0-4.2l-1.7,2.4
			c-0.1,0.1-0.2,0.1-0.2,0l-2-2.6c0,1.6-0.1,3.1,0,4.6c0,0.1,0,0.9,0,0.9c0,0.4,0.4,0.6,0.5,0.9c0,0,0.3,0.4-0.6,0.7l-3.1-0.1
			c0,0-1-0.4-0.1-1c0.5,0,0.5-1,0.5-1s0-0.4,0-0.6c0-1.6,0.1-3.4,0-5.1l0-0.6c0-0.7-1.3-1.2-0.2-1.7c0.7-0.3,1.4-0.6,2.1-0.9
			c0,0,0.6-0.2,0.9,0.1c0,0,0,0,0,0c0,0,0,0,0,0.1c0,0,0,0.1,0.1,0.2c0,0,0,0,0,0.1c0,0,0,0,0,0c0.1,1.1,1.9,3.7,1.9,3.7l1.8-2.5
			c0.9-1.3,1.2-1.3,2-1.6c0,0,1-0.4,1,0.5c-0.1,2.6-0.2,5.4-0.2,7.9c0,0.1,0,0.9,0,0.9c0,0.4,0.4,0.6,0.5,0.9
			C257.4,265.8,257.7,266.3,256.8,266.6z"/>
	</g>
	<path class="st0" d="M361.4,310.8c0,0.5-0.4,0.9-1,0.9c-0.2,0-0.4-0.1-0.5-0.2c-0.6,0-1.4,0.1-1.7,0.7c-0.1,0.2-0.1,0.4-0.1,0.6
		v0.8c0,0.5,0,1.1,0,1.6v0.8c0,0.2,0,0.3,0.1,0.5c0.2,0.3,0.4,0.5,0.3,0.9c-0.1,0.3-0.5,0.4-0.8,0.4c-0.5,0-0.9,0-1.3,0
		c-0.2,0-0.5,0-0.7,0c-0.2,0-0.4,0-0.6-0.1c-0.2-0.1-0.3-0.3-0.3-0.5c0-0.2,0.1-0.4,0.2-0.5c0.2-0.2,0.2-0.4,0.3-0.6
		c0-0.3,0-0.5,0.1-0.8c0.1-1,0.1-2.1,0-3.2c0-0.2,0-0.5,0-0.7c0-0.2,0-0.4-0.2-0.6s-0.4-0.3-0.4-0.5c-0.1-0.2,0.1-0.4,0.3-0.5
		c0.2-0.1,0.4-0.1,0.6-0.2c0.3,0,0.5-0.1,0.8-0.1c0.3,0,0.5,0,0.7,0c0.2,0,0.4,0,0.6,0.2c0.2,0.2,0.2,0.5,0.2,0.8
		c0,0.1,0,0.2,0.1,0.2c0.2,0,0.3-0.2,0.4-0.3c0.3-0.3,0.7-0.5,1.1-0.6c0.4-0.1,0.7-0.1,0.9-0.1h0.1
		C360.9,309.8,361.4,310.2,361.4,310.8z"/>
	<circle class="st0" cx="360.2" cy="316.8" r="1"/>
</g>
<g>
	<path class="st3" d="M617.4,180.9l0.1-0.1C617.5,180.8,617.4,180.8,617.4,180.9z"/>
	<path class="st3" d="M609.6,185.7L609.6,185.7L609.6,185.7z"/>
	<polygon class="st3" points="620,175.8 620,175.8 620.1,175.8 	"/>
	<path class="st3" d="M619.7,182.7c0.3-1.7,0.8-2,0.7-4c0.1-0.9-0.1-2-0.3-2.9c-0.4-0.4-0.3-1.3-0.8-1.7l0.1-0.3
		c-0.2-0.1-0.3-0.3-0.3-0.5l0,0c-0.3-0.2-0.4-0.5-0.5-0.6l0,0l-0.2-0.3l0.1,0c-0.4-0.3-0.8-0.7-1.2-1.1l-0.1,0.2
		c-0.7-0.8-1.3-0.6-2-1.1l0,0c-1.2,0.2-1.8-0.7-2.9,0c0.1-0.1-0.1-0.1-0.1-0.1c-0.5,0.1-1,0.3-0.9,0.7c-0.3,0.1-0.3,0-0.4-0.2
		c0.1,0.2-0.2,0.3-0.5,0.4l0.1-0.1l-0.7,0.4l0.3,0.2c-0.4,0.1-0.3-0.3-0.6,0l0.1,0.2c-0.5,0.2-1,0.1-1.6,0.4c-2,1.6-2.5,4.3-3.1,6.3
		l-0.2,0.1c-0.3,0,0.4,0.6,0.1,0.7l0.1,0.3c0,0.1-0.1,0.2-0.2,0.1c0,0.2,0,0.2,0.1,0.4l-0.2,0.3c0,1,0.5,1.7,0.7,2.6
		c0,1.3,1.5,3.1,2.5,3.8c1.4,0.9,2.5,3.1,4.4,3.3c0,0.1,0.2,0,0.2,0c0.5,0.2,1,0.4,1.5,0.6c0,0,0.5,0.1,1.1,0.2
		c0.5,0,1.5,0.5,2.8-0.5c1-1.1-0.3-2.3-0.3-1.7c0,0.5-0.7,1.1-1.4,0.2l0-0.1c-0.7-0.3-1.1-0.4-1.7-0.2c0-0.4-0.6-0.2-0.7-0.4l0,0
		c-0.5,0.1-0.8-0.6-1.3-0.5c0,0,0.1-0.1,0.2-0.1c-0.3-0.1-0.7-0.2-0.6-0.4c-0.7-0.3-1.4-1-2-1.1l0.1,0c-0.4,0-0.3-0.2-0.6-0.3
		c0,0,0-0.1,0-0.1c-0.4,0-0.6-0.6-0.8-0.8l0.1-0.1l-0.4-0.5l0.1,0.2c-0.4,0.2,0-0.5-0.5-0.7c-0.1-0.4-1.2-0.4-1.1-0.9
		c-0.3-0.1,0.4,0.1,0.1-0.2c0.2-0.1,0.2,0.1,0.3,0c-0.2-0.2,0-0.5-0.2-0.8l0.2-0.1c-0.4-0.4,0-0.9-0.3-1.2c-0.2-0.5,0.4-0.4,0.1-0.8
		l0.2-0.2c0-0.2-0.3-0.1-0.2-0.4c0.1,0,0.1-0.3,0.3-0.1c0.2-0.5-0.2-1.1,0.4-1.6c-0.2-0.2,0-0.5-0.1-0.7c0.1,0,0.3-0.6,0.4-0.2
		c0,0,0,0.1-0.1,0.1l0.1,0.1c0.4-0.2,0.1-0.7,0.4-1c-0.1,0.1-0.2,0.2-0.2,0.1l0.2-0.3l0.1,0.1l0.4-0.4l-0.2,0c0.2-0.2,0.5,0,0.5-0.4
		c0-0.2-0.3,0-0.2-0.2c0.4-0.2,1-0.5,1.2-0.6c-0.1-0.1-0.1-0.2,0-0.3l0.1,0.1c0.2-0.4,0.3,0.2,0.6-0.1l0,0.1l-0.1-0.4
		c0.2-0.5,0.3,0.2,0.5-0.4c-0.1,0.1-0.2-0.3,0-0.3l0,0.2c0.1-0.1,0.1-0.1,0.2-0.1c0,0.1,0,0.2,0.2,0.2l-0.1,0.2l0.2-0.4
		c0.3,0.1,0.6-0.2,0.8,0.1c0,0,0.5,0.1,0.6-0.2c-0.1,0.1,0.2,0.2,0.1,0.4c0.1-0.2,0.6-0.3,0.7,0l0,0c0.4,0.3,1,0.1,1.2,0.5
		c0.1-0.2,0.2,0.1,0.3-0.2c0.6,0.2,0.2,1,1,0.8c0.2,0.2,0,0.4,0,0.5l-0.1,0c0.3,0.4,0.3,0.6,0.4,0.9c0.1,0.2,0.5,0.1,0.5,0.5
		c-0.2-0.1-0.1,0.1-0.1,0.2c0-0.1-0.1-0.1-0.2,0.1c0,0,0.1,0,0.1,0.1l0,0c0.1,0.2,0.1,0.2,0.1,0.1c0,0,0,0,0.1,0
		c-0.1,0.3,0.1,0.7-0.1,0.7c0.1,0.7,0.3,1.2,0.4,1.8c-0.1,0.1-0.2-0.1-0.3-0.3l0,0.4c-0.2,0-0.1-0.3-0.1-0.4
		c-0.3,0.5,0.2,1.1-0.1,1.7l0.1,0.1l0,0c0.1,0,0.2,0.2,0.2,0.3c-0.2,0.1-0.4,0-0.4,0.3c-0.2,0.2,0,0.7,0,1c0-0.2,0.1-0.1,0.2,0
		c0,0.2-0.2,0.2-0.1,0.4l-0.2,0c0.2,0,0.2,0.4,0.2,0.5c-0.2,0.1-0.1-0.3-0.2-0.3c-0.1,0.6,0,0.3-0.1,0.9c0.1,0.3,0.2,0,0.4,0.1
		c0,0.3,0.1,0.6,0,0.9l0.2-0.1c0.1,0.6,0,0.9-0.2,1.2c1,4.3,2,1.1,2,1.1C620,185.5,619.6,184.6,619.7,182.7z"/>
</g>
<g>
	<path class="st3" d="M616.4,184.9l-0.1,0.1C616.3,185.1,616.3,185,616.4,184.9z"/>
	<path class="st3" d="M610.3,178.9L610.3,178.9L610.3,178.9z"/>
	<polygon class="st3" points="612.8,184.8 612.8,184.8 612.8,184.8 	"/>
	<path class="st3" d="M614.2,183.5c-0.1,0.9-0.5,0.8-0.8,1.2c-0.2,0.1-0.4,0.2-0.5,0.2c-0.2,0.2-0.2-0.1-0.5-0.1l0.1-0.1
		c-0.1,0-0.2-0.1-0.1-0.2l0,0c-0.1,0-0.1-0.2-0.2-0.2l0,0l0-0.1l0.1,0c-0.1-0.1-0.1-0.4,0-0.5l-0.2,0c0.3-0.3,0.1-0.8,0.4-0.7l0,0
		c-0.1-0.7,0.3,0.2,0.4-0.5c0,0.1,0,0.1,0,0.2c0.1-0.1,0.2-0.1,0.4-0.6c0.1,0.1,0,0.2-0.1,0.4c0.1-0.1,0.1-0.2,0.2-0.2l0.1,0.1
		l-0.1,0c0.1,0.1,0.1,0.1,0.2,0.2l0.3-0.3c0,0.3-0.3,0.4-0.2,0.5l0.2-0.2c0,0.3-0.4,0.6-0.6,0.7c-0.1,0.5-0.1,0.9-0.2,1.6
		c0,0.4-0.6,0.7-0.7,0.1l0.1-0.2c0.1-0.3-0.3,0.3-0.2,0.1l-0.1,0.1c0-0.1,0-0.1,0.1-0.1c0,0-0.1,0-0.1,0l0.1-0.1
		c-0.2-0.6-0.7-0.9-0.8-1.5c0.1-0.7-0.1-1.8,0-2.1c0-0.5,0.7-0.4,0.8,0c0.1,0.4-0.1,0.2,0.3,0.7c0,0.1,0.1,0.1,0.1,0.1
		c0.1,0.3,0.2,0.7,0.2,1.1c0,0,0,0.1,0.2,1.5c0.4,0.5,0.1,0.1,0.2,0.6c0,0.1,0.1,0.4,0.5,0.4c0.4,0,1-0.4,1.4-1.2l0.1,0.1
		c0.2-1.1,0.1-1.4-0.3-1.9c0.4-0.2-0.1-0.6,0-0.8l0,0c-0.4-0.4,0-0.9-0.6-1.5c0,0,0.1,0,0.2,0.1c-0.2-0.5-0.7-0.8-0.6-1
		c-0.3-0.3-0.5-0.5-0.7-0.7c-0.7-0.5-1.9-0.3-2.3,0.2l0-0.1c-0.3,0.4-0.4,0.3-0.7,0.6c0,0-0.1,0-0.1,0c-0.2,0.4-0.8,1-0.8,1.3
		l-0.1,0c-0.1,0.3-0.2,0.5-0.2,0.8l0.1-0.3c0.4,0.2-0.4,0.5-0.2,1c-0.1,0.5,0.9,0.9,0.7,1.3c0.2,0.2-0.3-0.1-0.1,0.2
		c-0.2,0.1-0.2-0.1-0.3,0c0.2,0.3-0.1,0.6,0.2,0.9l-0.2,0.1c0.5,0.4,0.2,1,0.6,1.1c0.4,0.3-0.3,0.5,0.4,1l0,0.4
		c0.2,0.3,0.3,0,0.5,0.3c-0.1,0.1,0.3,0.4,0.1,0.4c0.6,0.7,1.5,0.6,2.6,0.6c0.1-0.3,0.6-0.5,0.6-0.8c0.1,0.1,0.7-0.8,0.5-0.1
		c0,0.1-0.1,0.1-0.1,0.1l0,0.2c0.7-0.2,0.6-1.1,0.9-1.7c-0.1,0.2-0.2,0.4-0.3,0.2l0.2-0.5c0,0,0.1,0.1,0.1,0.1l0.3-0.6l-0.2,0
		c0.2-0.3,0.5-0.3,0.3-0.8c-0.1-0.2-0.3,0.3-0.3-0.1c0.2-0.3,0.4-1.2,0.3-2c-0.2,0.1-0.2-0.1-0.3-0.3l0.2-0.1
		c-0.4-0.6,0.2-0.5-0.3-1.1l0.1,0l-0.4,0.1c-0.5-0.3,0-0.6-0.5-0.8c0,0-0.1,0-0.1,0c0,0,0.1,0.1,0.1,0.1c0,0.1,0,0.1-0.1,0.2
		c-0.1,0-0.2,0-0.2-0.1l0.1-0.1c-0.1-0.1-0.2,0-0.3-0.1c0.1,0,0.2-0.2-0.1-0.3l0.3-0.1c-0.2,0-0.4,0-0.6,0.1c-0.4-0.3-1,0-1.2-0.2
		c0,0-0.9,0.2-1,0.6c0.1-0.3-0.3,0-0.3-0.3c-0.2,0.3-0.7,0.9-1,1l0-0.1c-1,0.9-0.8,1.7-1.3,2.4c0.2,0,0,0.4,0.3,0.4
		c0.1,0.8-0.5,1.7,0.4,1.8c0.2,0.3,0,0.5,0,0.7l-0.1-0.1c0.4,0.6,0.6,0.8,1,1.2c0.3,0.1,0.5-0.1,0.9,0.2c-0.2,0.1,0,0.1,0.2,0.2
		c-0.1,0-0.2,0,0,0.2c0.1,0,0.1,0,0.2,0l0,0c0.3,0,0.3,0,0.1-0.1c0,0,0,0,0-0.1c0.3,0.3,0.9,0.1,0.9,0.3c1-0.1,1.4-0.7,1.9-1.1
		c0.1,0,0.1,0.2-0.1,0.4l0.4-0.4c0.1,0.1-0.2,0.3-0.3,0.4c0.7-0.2,0.8-1.1,1.3-1.6l-0.1-0.2l0,0c-0.1,0-0.1-0.2-0.1-0.3
		c0.2,0,0.4,0.1,0.4-0.2c0.2-0.3,0-0.8-0.1-1.1c0,0.2-0.1,0.1-0.2,0.1c0-0.2,0.1-0.3,0.1-0.4l0.2,0c-0.2,0.1-0.3-0.4-0.4-0.4
		c0.1-0.1,0.2,0.2,0.3,0.2c-0.2-0.6-0.1-0.3-0.3-0.9c-0.3-0.3-0.2,0.1-0.4,0.1c-0.2-0.3-0.4-0.4-0.5-0.8l-0.1,0.2
		c-0.4-0.3-0.6-0.5-0.9-0.8c-1.1-0.1-1.5,0.6-1.5,0.8c0,0.3,0,0.5,0.2,0.6c0.2,0.2,0.2,0.4,0.2,0.4
		C613.1,182.8,613.8,182.3,614.2,183.5z"/>
</g>
<path class="st4" d="M616.7,205.8c-4.3,0-9-0.2-12.9-0.8l0,0c-2.9-0.4-5.5-2.5-7.6-6.1c-3.4-5.9-4.5-14.4-2.5-19.4
	c1.9-4.9,9.9-4.5,10.3-4.5l31.2,0.2c2.7,0,5.2,1.2,6.9,3.3c1.7,2.1,2.4,4.8,1.9,7.4l0,0.1c-4.2,10.8-12.1,17.9-16.2,18.9
	C625.7,205.5,621.5,205.8,616.7,205.8z M604.1,203.4c7.9,1.1,19.5,1,23.4,0c3.6-0.9,11.1-7.8,15-17.9c0.4-2.1-0.2-4.3-1.6-6
	c-1.4-1.7-3.5-2.7-5.7-2.7l-31.2-0.2c-0.1,0-7.2-0.3-8.7,3.5c-1.8,4.5-0.7,12.6,2.4,18C598.9,200.3,601.1,202.9,604.1,203.4
	L604.1,203.4z"/>
<path class="st4" d="M658.4,177c-4.4,0-13.9,0-24.5-0.2l0-1.6c10.6,0.2,22.3,0.2,23,0.3C657.7,175.5,658.4,177,658.4,177z"/>
<path class="st4" d="M643.9,186.2l-1.4-1.1c0.2-0.2,4.4-5.7,18.1-5.3c0.8,0,1.6,1.7,1.6,1.7c-0.2,0-1.7-0.1-1.9-0.1
	C647.4,181.3,644,186.2,643.9,186.2z"/>
<path class="st4" d="M550,188.7C549.9,188.7,549.9,188.7,550,188.7c-0.5-0.1-0.9-0.5-0.8-0.9c0-0.2,0.6-4.9,2.8-7.9
	c2.3-3,5.8-4.4,10.8-4.3l35,0.6c0.5,0,0.8,0.4,0.8,0.8c0,0.5-0.4,0.8-0.8,0.8l-35-0.6c-4.4-0.1-7.5,1.1-9.5,3.7
	c-1.9,2.6-2.4,7-2.4,7.1C550.7,188.4,550.4,188.7,550,188.7z"/>
<g>
	<g>
		<path class="st5" d="M574.1,249.5"/>
	</g>
</g>
<g>
	<path class="st1" d="M501.7,242l-0.1,0C501.6,242,501.6,242,501.7,242C501.6,242,501.6,242,501.7,242z"/>
	<path class="st1" d="M572.7,277.1C572.7,277.1,572.6,277.1,572.7,277.1C572.7,277.1,572.7,277.1,572.7,277.1z"/>
	<path class="st1" d="M593.5,274c-0.2,0-0.3-0.3-0.2-0.7c-0.7,0.2-0.6-0.5-1.1-0.5c0.2-0.1-0.4-1.3,0.5-0.8c0.1,0,0.1,0.1,0,0.2
		l0.4-0.1c0.2-0.4,0.1-0.7-0.2-1c-0.3-0.3-0.6-0.6-0.6-1.1c-0.1,0.3,0,0.6-0.3,0.4c0-0.3,0-0.5,0-0.8l0.4,0.1c0-0.4,0-0.8,0.1-1.2
		l-0.4,0.2c0.1-0.3,0.3-0.5,0.4-0.8c0.1-0.2,0.1-0.5-0.2-0.9c-0.3-0.4-0.6,0.7-0.7-0.1c0.3-0.9,0.7-2.4,0.8-3.6
		c-0.5,0.1-0.5-0.2-0.6-0.6l0.4,0c-0.6-1.3,0.9-0.5,0.4-1.9l-0.6-0.2c-0.9-1.2,0.8-0.8-0.5-2.1c0.1,0.6-0.9,0.4-0.8-0.3l0.4,0.1
		c-0.1-0.4-0.3-0.5-0.3-0.7c0.2,0.2,0.6,0,0.4-0.5l0.6,0.3c-0.3-0.3-0.6-0.6-0.9-0.9c0.3-0.9-0.6-2.1-0.2-2.6c0,0-0.1-0.5-0.3-1
		c-0.2-0.5-0.5-1-0.9-1.1c0.5,0.2,0.2-0.8,0.7-0.8c-0.6-0.3-1.7-1.4-1.7-2.2l0.1,0.1c-0.5-1.1-1.3-1.8-2.1-2.4
		c-0.8-0.6-1.7-1.1-2.5-1.9c-0.2,0.5-1-0.4-1.1,0.3c-1.1-0.2-1.9-0.8-2.7-1.2c-0.8-0.3-1.4-0.4-1.9,0.5c-0.9,0-1-0.5-1.5-0.6
		l0.2-0.1c-1.7,0.1-2.2,0.3-3.4,0.4c-0.6,0.3-0.5,1.2-1.5,1.2c0.3-0.4-0.1-0.3-0.5-0.2c0.2-0.1,0.3-0.3-0.3-0.4
		c0,0.1-0.1,0.2-0.2,0.3c0,0,0,0,0-0.1c-0.6,0.3-0.4,0.4-0.1,0.3c0,0,0,0.1,0.2,0.2c-0.8-0.3-1.7,0.6-2,0c-1.7,0.7-2.8,1.8-4.1,2.6
		c-0.3-0.2-0.1-0.6,0.3-0.9l-1,0.5c-0.2-0.4,0.5-0.5,0.8-0.7c-1.5-0.1-2.2,1.7-3.8,1.8l-0.1,0.5l-0.1,0c0,0,0,0,0,0
		c0-0.1-0.1-0.1-0.4,0l0.4,0c0.1,0.2-0.1,0.5-0.3,0.7c-0.4-0.2-0.4-0.8-1.1-0.4c-0.7,0-1.4,1-1.9,1.6c0.4-0.2,0.4,0.1,0.3,0.3
		c-0.3,0.2-0.7,0-0.9,0.3l-0.2-0.3c0.1,0.4-0.6,0.9-0.6,1.1c-0.4-0.2,0.3-0.6,0.2-0.9c-1.3,0.8-0.6,0.4-1.9,1.3
		c-0.4,0.8,0.4,0.3,0.3,0.9c-0.1,0.1-0.2,0.2-0.3,0.3l-0.1-0.5l-0.7,1.3l0,0c-0.2,0.1-0.4,0.2-0.6,0.3l0.3,0.2l-0.4,0.6l0,0
		c-0.6,0.6-1.2,0.9-2,1.1c-0.4,0.7-0.8,1.3-1,1.9c-0.3-0.1-0.6-0.1-0.9-0.1c-0.1-0.6,0-1,0.3-1.5c-0.6-0.9-1.1-1.5-1.6-2
		c0.1-0.4,0.1-0.8-0.1-1.3c-0.3-0.7-1-1.5-1.8-2c0,0,0.1-0.1,0.1-0.1c-0.5-0.2-1-0.3-1.4-0.4c-0.1,0-0.2,0-0.3,0c-0.1,0-0.1,0-0.2,0
		c-0.1,0-0.3,0-0.4,0c-0.5,0-1,0.2-1.4,0.6c-0.1-1-1.1-0.1-1.5-0.4l0-0.1c-0.9,0.7-1.7-0.6-2.6,0c0-0.1,0-0.3,0.2-0.3
		c-0.6,0.1-1.4,0.3-1.4-0.2c-1.4,0.1-3.5-0.1-4.4,0.9l0.1-0.2c-0.5,0.6-0.7,0.1-1.3,0.4c0-0.1-0.1-0.1-0.1-0.1
		c-0.6,0.6-1.7,0.2-2.2,0.5l-0.1-0.4l-0.6,0.1l-0.7,0.2c0.2,0,0.4,0,0.6,0c0,0.5-0.3,0.4-0.8,0.3c-0.5-0.1-0.8,0.9-1.3,1.5
		c-0.2,0.1-0.8,2.3-0.9,2.5c-0.2-0.2-2.5-3.3-2.5-3.3c-1.2-1.6-2.8-1.9-3.9-3.1c-1.3-1.4-1-1.6-3.2-2.4c-1.8-1-2.9-1.7-4-2.4
		c-1.1-0.7-2.3-1.2-4.2-1.7c-1.9-0.8-4.2-1.2-6.4-1.4c-0.6,0.3-1.3,0.2-2.1,0.2c-0.8,0-1.6,0-2.3,0.4c-0.2-0.1-0.4-0.2-0.6-0.3
		c-0.5,0.3-1,0.5-1.5,0.5v-0.1c-0.6,0.5-1.5,0.6-1.7,0.9l0-0.1c-0.3,0.1-0.5,0.3-0.8,0.4l0.1-0.2c-1,0.9-2,1.6-2.9,2.3l0.4,0.3
		c-1,0.6-1.5,1.3-1.8,1.9c-0.4,0.6-0.7,1.2-1.5,1.9l-0.1-0.1c-0.1,1.4-0.6,2.1-1.2,3c-0.5,0.8-1.1,1.7-0.8,3
		c-0.1-0.2-0.3,0.1-0.4,0.1c-0.1,1.1-0.2,2.3,0.7,2.4c-0.1,0.8-0.4,0.6-0.7,0.6c0.4,0,0.5,0.7,0.5,1.3l-0.1-0.3c0,0.6,0,1.1,0,1.7
		l0.8-0.3c-0.3,0.8-1,0.2-0.8,1l0.6,0c-0.2,1.2-1.2,1.8-1.7,2.9c-0.2,2.2,0,3.9-0.3,5.6c-0.1,0.7-0.4,1.4-0.6,1.9
		c-0.1,0-0.3,0-0.4,0.1l0,0.4c-0.3,0.2-0.6,0.3-0.9,0.3l0.5,5.5c0.3,0.1,0.6,0.1,0.9,0.2l0,0.3c0.1,0,0.3-0.1,0.4-0.2l0.2,0.4
		c0.1,0.7,1.3-1,1.5-0.4l0.5-0.3c0.2,0.1,0.5,0.2,0.2,0.4c0.5,0,0.5-0.1,0.9-0.3l0.6,0.4c2,0.2,3.5-0.9,5.5-1c2.5,0.5,6.7-1,9.1-1.9
		c3.3-1.6,7.9,0.5,11.3-1.2c0.1,0.1,0.4-0.2,0.4-0.3l3.3-0.4c0,0,1-0.1,2.3-0.4c0.7-0.1,1.4-0.3,2.1-0.5c0.4-0.1,0.8-0.2,1.3-0.4
		c0,0.5,0.1,0.9,0.7,1.2c0.3,0.1,0.2-0.2,0.3-0.4c0-0.2,0-0.3,0.4,0c0.2,0.5,0.6,1.2,1.2,1.7c0.6,0.6,1.3,1.1,2,1.4
		c0-0.5,0.4-0.3,0.9-0.3l-0.1,0.4c0.5,0,0.6,0,0.7,0c0.1,0.1,0.1,0.2,0.2,0.3c0.1,0.2,0.1,0.5,0.7,0.4c0,0.1-0.1,0.2-0.1,0.3
		l0.1-0.3c0.1-0.2,0.2-0.4,0.3-0.5c1-0.7,0.4,0.9,1.5-0.1c-0.2,0-0.2-0.2-0.1-0.4c0.1,0,0.3,0,0.4,0l0,0.1c0.3-0.1,0.4-0.2,0.5-0.1
		c-0.2,0.2-0.1,0.6,0.3,0.5l-0.3,0.5l0.8-0.7c0.5,0.5,1.5,0,1.7,0.6c0,0,0.3,0.1,0.7,0.1c0.4,0,0.7-0.1,0.9-0.4
		c-0.3,0.4,0.4,0.5,0.2,1c0.3-0.4,1.3-0.8,1.6-0.3l-0.1,0c1.3,0.5,2.3-0.7,3.4-0.1c-0.1-0.5,0.6-0.2,0.4-0.8
		c1.2-0.6,2.3,1.2,2.7-0.7c0.6-0.1,0.7,0.4,1,0.5c0,0-0.1,0.1-0.1,0.1c0.8-0.1,1.3-0.2,1.8-0.3c0.5-0.1,0.9-0.1,1.5-0.3
		c0.5-0.4,0.1-1.1,1-1.5c0,0.5,0.3,0.2,0.5-0.1c-0.1,0.2-0.1,0.4,0.4,0.2c0-0.1,0-0.3,0-0.4c0,0,0.1,0,0.1,0
		c0.3-0.6,0.1-0.6-0.1-0.4c0,0-0.1-0.1-0.2-0.1c0.4-0.1,0.6-0.5,0.8-0.8c0.2-0.3,0.3-0.6,0.6-0.5c0-0.2,0.1-0.3,0.1-0.5l1.5,1.1
		l0.5-0.6c0.1,0.1,0.2,0.1,0.3,0.2l-0.1,0.1c1.1,0.4,1.7,0.6,2.4,0.7c0.7,0.1,1.3,0,2.1-0.2c0,1,1.5,0.4,1.9,0.8l-0.1,0.1
		c1.3-0.5,2.2,1,3.5,0.6c-0.1,0.1-0.1,0.3-0.3,0.3c0.8,0,1.9,0,1.9,0.6c1.9,0.2,4.6,1,6,0.3l-0.1,0.1c0.8-0.5,0.9,0.1,1.8-0.1
		c0,0.1,0.1,0.1,0.1,0.2c0.9-0.4,2.2,0.3,2.9,0.2l0,0.4l1.5,0.2l-0.6-0.2c0.4-1,1,0.8,2.3,0.4c0.1,0,0.2,0,0.3,0c0,0.1,0,0.1,0,0.1
		c0.2,1.1,0.7-0.1,1.3-0.4c0.4,0.3,0.2,1.2,0.8,1c0.2,0.1,0.5,0,0.7-0.1c0.3-0.6,0.3,0.1,0.5-0.5l-0.1,0.4c0.1-0.2,0.2-0.3,0.2-0.1
		l0,0.1c0.1-0.3,0.2-0.1,0.2-0.2l0,0.1l0.1,0l-0.1,0.2c0.2-0.3,0.3-0.3,0.4-0.1l0-0.1c0.3,0.2,0.7,0.4,1.3,0.3l0,0.4
		c1.3-0.5,2.3,0.9,3.2,0.3c1.3-0.2,0.8,1.3,2.2,0.6l0.5,0.6c0.6,0.1,0.5-0.7,1.1-0.4c0,0.3,0.9,0.3,0.5,0.6c0.4,0.2,0.9,0.1,1.4,0.1
		l0.7-7C593.9,274,593.7,274.1,593.5,274z"/>
	<path class="st1" d="M581.9,278.8L581.9,278.8L581.9,278.8C581.9,278.8,581.9,278.8,581.9,278.8z"/>
</g>
</svg>
