<?xml version="1.0" encoding="utf-8"?>
<!-- Generator: Adobe Illustrator 27.4.1, SVG Export Plug-In . SVG Version: 6.00 Build 0)  -->
<svg version="1.1" id="Layer_1" xmlns="http://www.w3.org/2000/svg" xmlns:xlink="http://www.w3.org/1999/xlink" x="0px" y="0px"
	 viewBox="0 0 800 800" style="enable-background:new 0 0 800 800;" xml:space="preserve">
<style type="text/css">
	.st0{fill:#00953B;}
	.st1{fill:#F4F9FD;}
	.st2{fill:#030104;}
	.st3{fill:#A5DBB7;}
	.st4{fill:#202020;}
	.st5{clip-path:url(#SVGID_00000159445740333882184090000011981677518003281333_);}
	.st6{fill:#FFFFFF;}
</style>
<g>
	<g>
		<path class="st0" d="M206.8,442.5c-5,6.3-9.2,6.8-12.6,7.5c-4.2,0.9-8.5,0.8-12.7-0.2c-12.6-3-26.7-5.2-38.2,1
			c-6.2,3.4-10.9,9.1-16.4,13.7c-3.6,3-7.5,5.6-11.7,7.8c-0.5,0.3-0.3,1,0.2,1c9.5-0.4,20.9,8.3,30.5,8.4
			c13.2,0.2,25.6-7.6,35.3-16.5c2.8-2.6,7.9-8.1,13-6.6c4.5,1.3,11.2,5.5,14.7,12.2c0.3,0.5-0.1,0.6,0,0l-1.4-27.8
			C207.9,442.4,207.2,442.1,206.8,442.5z"/>
	</g>
	<path class="st1" d="M642.4,421.4c0,0-3.8-12.2-7.4-14.3c0,0-25.5-21.8-29.1-23.2c-3.6-1.4-38.1,45.9-0.8,66.9
		C605,450.7,608.4,425.9,642.4,421.4z"/>
	<path class="st1" d="M237.5,482.6c31.8,11.3,153.9,26.2,230.8,20.4c68.6-5.3,59.6-92.9,59.6-92.9l-93.7-20.6L332.8,274.2
		C333.1,330,392.3,377,392.3,377l-0.9,5.1c-47.6,1.5-81.1,14.9-81.1,14.9c-31.9,10.4-47.6,12.6-47.6,12.6
		c-54.1,4.4-111.7-28.2-111.7-28.2c-13.4,28.8,19.2,45.8,19.2,45.8c29.4,15.6,32.2,21.1,38.9,44
		C212.1,474.5,230.1,480.2,237.5,482.6z"/>
	<path class="st2" d="M648.6,436.7c-3.9-15.7-10.9-27.3-13.3-29.4c-0.4-0.4-0.9-0.5-1.5-0.5c-17,0.6-26.9,30.6-29,38.2
		c-0.4,1.6-0.9,2.3-2.1,2.2c-20.2-13.2-10.4-41.5-8.5-46.1c0.4-1,1-1.9,2.1-1.8c12.3,0.2,18.6-1.3,21.7-2.5c1.4-0.5,1.7-2.4,0.6-3.4
		c-37.6-35-74.9-4.2-87.4-5.9c-1.1-0.1-1.9-1.1-1.7-2.2c5.6-34,7-124.3,7-124.3c-0.2-64.8-33.9-83.8-42.1-83.2
		c-1,0.1-1.8,0.9-1.8,1.9c-0.1,11.8,1.1,82-0.9,113.1c-2.6,39.3-13.6,68.9-16.3,76.2c-0.3,0.8-1,1.3-1.8,1.3l-35.4,0.7
		c-0.3,0-0.5,0-0.8-0.1c-18.7-6.7-63.8-53.5-86.9-78.3c-1.7-1.8-4.5,0.5-3.1,2.5c30.1,44.5,63,82.4,73,92.5c0.8,0.8,0.8,2.1-0.2,2.9
		c-13.5,11.1-36.6,4.9-55.3,3.4c-1.7-0.1,17.7,15.8,44.8,18.2c28.3,2.5,60.3-5.8,75.5-7.1c0.6-0.1,1.2-0.1,1.7,0.4
		c20,18,35.3,46.1,63.9,54.4c0.6,0.2,2.9,0.5,4.7,0.8c23.8,3.4,41.2,3,56.9,1.6C628.3,460.7,648.6,436.7,648.6,436.7z"/>
	<path class="st0" d="M612.5,462.2c-17.1-1.2,36-25,36-25s26.6,2.6,27.4,13.4C675.9,450.6,629.6,463.3,612.5,462.2z"/>
	<g>
		<path class="st0" d="M235.2,482.6c-7.5,0.4-10.3,3.5-12.7,5.7c-3.2,2.9-5.7,6.4-7.3,10.3c-5,11.9-11.6,24.6-23.4,30.1
			c-6.5,3-13.8,3.5-20.7,5.1c-4.3,1-8.5,2.5-12.5,4.5c-0.7,0.3-1.3-0.4-0.8-1c5.5-7.6,5.4-21.4,10.8-29
			c7.6-10.8,21.3-16.1,34.2-18.6c3.7-0.7,11.2-1.6,13.1-6.6c1.6-4.2-0.3-6.4-6.6-11.2c-0.6-0.5-0.1-1.5,0.7-1.2l25.6,10.6
			C236.1,481.5,235.9,482.5,235.2,482.6z"/>
	</g>
	<path class="st3" d="M600.4,430.7c-0.6-0.6-3.4-4.4-3.3-8.9c0-2.2,1.2-4.3,3.5-4.3c0.9,0,1.7,0.3,2.2,0.8c0.9,0.8,1.3,2.2,1.3,3.5
		c0,5.3-3.3,8.9-3.6,8.9C600.5,430.8,600.5,430.8,600.4,430.7"/>
	<g>
		<path class="st4" d="M600.2,425.2L600.2,425.2C600.2,425.2,600.2,425.2,600.2,425.2z"/>
		<path class="st4" d="M600.2,425.2L600.2,425.2L600.2,425.2z"/>
		<polygon class="st4" points="600.8,426.8 600.8,426.8 600.7,426.8 		"/>
		<path class="st4" d="M600.2,424.4L600.2,424.4L600.2,424.4l-1.3,0.5c-0.2,0.9-0.1,1.4,0.6,1.8c0.3,0.2,0.8,0.3,1.3,0.2
			c0.2-0.2,0.5-0.2,0.6-0.5l0.1,0c0-0.1,0.1-0.2,0.1-0.2l0,0c0-0.1,0.1-0.2,0.1-0.3l0,0l0-0.1l0,0c0-0.2,0.1-0.3,0.1-0.5l-0.1,0
			c0.2-0.3,0-0.4,0.1-0.7l0,0c-0.2-0.2-0.1-0.4-0.2-0.6c0-0.1-0.1-0.2-0.2-0.3c0.1,0,0,0,0.1-0.1c-0.1-0.1-0.3-0.2-0.4-0.1
			c-0.1-0.1,0-0.1,0-0.2c-0.1,0.1-0.2,0-0.2,0l0.1,0l-0.2-0.1l-0.1,0.2c-0.1-0.1,0.1-0.2,0-0.2l-0.1,0.1c-0.1-0.1-0.1-0.3-0.2-0.5
			c-0.2-0.1-0.4-0.1-0.6-0.1l-0.5,0l-0.1,0.3c-0.3,0.5-0.2,1-0.3,1.4l-0.1,0c-0.2,0,0.3,0.1,0.1,0.2l0.1,0.1c0,0,0,0.1-0.1,0.1
			c0,0.1,0,0.1,0.1,0.1l-0.1,0.1c0,0.3,0.3,0.4,0.5,0.7c0,0.3,0.4,0.6,0.8,0.6l0.5,0.1l0.1-0.1c0.1-0.1,0.2-0.3,0.3-0.4
			c0.1-0.3,0.3-0.5,0.5-0.8c0.2-0.3,0.2-0.6,0-0.9c0,0,0-0.1-0.1-0.1c0-0.2-0.1-0.3-0.2-0.5c0,0-0.4-0.6-0.8-0.6
			c-0.2,0-0.4,0.1-0.4,0.3C600.1,423.7,600.3,424,600.2,424.4L600.2,424.4c-0.1,0.1-0.1,0.1,0.1,0.1c-0.2,0.1,0,0.1,0,0.1l0,0
			c0.2,0-0.1,0.1,0,0.2c0,0-0.1,0-0.1,0c0,0,0.1,0.1,0,0.1c0,0.1,0,0.1,0.1,0.3l0,0c0.1,0.1,0,0,0,0.1c0,0,0,0,0,0
			c0.1,0.1,0,0.1,0,0.1l-0.1-0.1l0,0l0.5,0l-0.1,0l0,0c-0.1,0.2,0-0.2-0.1,0c0,0-0.4,0.3-0.4,0.1c-0.1,0,0.2-0.1,0.1-0.1
			c0.1-0.1,0.1,0,0.1-0.1c-0.1,0,0-0.1-0.1-0.1l0.1-0.1c-0.2,0,0-0.2-0.1-0.1c-0.1-0.1,0.3-0.1,0.1-0.2l0.1-0.1c0,0-0.2,0-0.1,0
			c0.1,0,0.1,0,0.1,0c0.1-0.1-0.2-0.1,0-0.2c-0.2,0-0.1-0.1-0.2-0.1c0.1,0,0-0.1,0.2,0c0,0,0,0,0,0l0.1,0c0.2,0-0.1-0.1,0-0.1
			c0,0,0,0-0.1,0l0,0l0.1,0.1l0,0l-0.8,0.3l0.1,0l0-0.1c0,0.1,0,0.2,0.1,0.1c0-0.1,0-0.1,0-0.2c0,0.1,0.1,0.2,0.1,0.3
			c0-0.1,0.1-0.1,0.1-0.1l0,0.1c0.1-0.1-0.1,0.2,0,0.1l0,0.1l0.1-0.2c0.2-0.1-0.1,0.2,0.1,0c0,0,0.1-0.2,0.1-0.1l-0.1,0.1
			c0,0,0.1,0,0.1,0c0,0-0.1,0.1-0.1,0.1l-0.1,0.1l0.1-0.1c-0.1,0.1,0.1,0,0,0.1c0,0,0,0,0,0c0,0,0,0,0.1,0c-0.1,0-0.1,0-0.2,0.1
			c0.1,0,0.2,0,0.1,0l0,0c-0.1,0,0.2,0.1,0,0.1c0.1,0,0,0,0.2,0.1c0.1,0.1-0.3-0.1,0.1,0.2c0,0-0.1,0-0.1-0.1l0,0c0,0,0,0.1,0,0
			c0,0,0.1,0.2,0.1,0.2c0-0.1,0-0.1,0-0.1c0,0,0,0,0-0.1c0,0,0,0,0,0.1l0,0c0,0,0,0.1,0,0.1c0,0,0,0,0,0.1c0-0.1,0,0,0-0.1
			c0,0-0.1,0.1-0.2,0.1c0-0.1,0.1-0.1,0.1-0.1l0,0c0.1-0.1,0.1,0,0.1,0c0.1-0.1-0.2,0.1-0.1,0l-0.1,0l0,0c0,0-0.1,0-0.1,0
			c0.1,0,0.2,0,0.1,0c0,0,0,0,0,0l-0.8,0.3v0l0,0l0,0v0l0.7-0.3c0,0,0,0-0.1,0l-0.6,0.3l0,0l0,0c0,0,0,0.1,0,0.1l-0.1,0.1
			c0.1-0.1,0.1-0.1,0.1-0.1c-0.1,0.1-0.1,0-0.1,0.1c0,0,0,0,0.1,0c0.1,0,0.1-0.1,0.2-0.1c0,0,0.1,0,0.1,0.1l0.1-0.1
			c0.1,0.1,0.1,0.1,0,0.2c0.3,0.1,0.4,0.3,0.5,0.5c0.1,0.1,0.3,0.1,0.4,0.1c0.2-0.1,0.3-0.4,0.3-0.4
			C601.3,425.1,600.8,424.8,600.2,424.4z"/>
	</g>
	<g>
		<path class="st4" d="M603.4,418.8L603.4,418.8C603.3,418.8,603.3,418.8,603.4,418.8z"/>
		<path class="st4" d="M598.2,418.6L598.2,418.6L598.2,418.6z"/>
		<polygon class="st4" points="603.1,417 603.1,417 603.1,417 		"/>
		<path class="st4" d="M604.2,417.7c-0.3-0.2-0.3-0.4-0.6-0.5c-0.1-0.1-0.3-0.1-0.5-0.2c-0.1,0.1-0.2-0.1-0.3,0l0-0.1
			c0,0-0.1,0-0.1,0l0,0c-0.1,0.1-0.1,0-0.1,0l0,0l-0.1,0l0,0c-0.1,0-0.2,0-0.3,0l0,0.1c-0.1-0.2-0.2,0-0.4-0.1l0,0
			c-0.3,0.2-0.3-0.3-0.5,0c0,0,0-0.1,0-0.1c-0.1,0-0.2,0-0.2,0.2c-0.1,0,0-0.1,0-0.2c0,0.1-0.1,0.1-0.1,0.1l0,0l-0.2,0l0,0.2
			c-0.1-0.1,0-0.2-0.1-0.2l0,0.2c-0.1,0-0.1-0.3-0.3-0.4c-0.5-0.1-0.9,0.3-1.4,0.2l0-0.1c-0.1-0.2-0.1,0.3-0.1,0.1l0,0.1
			c0,0-0.1,0,0-0.1c0,0,0,0-0.1,0.1l-0.1-0.1c-0.2,0-0.3,0.2-0.5,0.3c-0.3-0.1-0.6,0.3-0.8,0.5c-0.1,0.4-0.9,0.2-0.9,0.7
			c0,0,0,0.1,0,0.1c-0.1,0.1-0.2,0.2-0.2,0.3c0,0-0.2,0.4-0.2,0.7c0.1,0.3,0.4,0.3,1.2,0.2l0,0c0.1-0.1,0.2-0.1,0.1-0.3
			c0.2,0.1,0.1-0.1,0.1-0.1l0,0c-0.1-0.2,0.2,0,0.1-0.2c0,0,0.1,0.1,0.1,0.1c0-0.1,0-0.1,0.1-0.1c0.1-0.1,0.2-0.2,0.1-0.4l0,0
			c-0.1-0.1,0-0.1,0-0.1c0,0,0,0,0,0c0-0.1,0.1-0.1,0.1-0.2l0,0.1l0.1-0.1l0,0c-0.1-0.2,0.1,0.1,0.1-0.1c0.1,0-0.1-0.5,0-0.4
			c0-0.1,0,0.2,0.1,0.1c0.1,0.1,0,0.1,0.1,0.2c0-0.1,0.1,0.1,0.2,0l0,0.1c0-0.2,0.2,0.1,0.2-0.1c0.1-0.1,0.1,0.3,0.2,0l0.1,0.1
			c0,0,0-0.2,0-0.1c0,0.1,0.1,0.1,0.1,0.1c0.1,0.1,0.1-0.2,0.3,0c0-0.2,0.1-0.1,0.1-0.2c0,0.1,0.1,0,0.1,0.2c0,0,0,0,0,0l0,0.1
			c0.1,0.2,0.1-0.1,0.2-0.1c0,0,0,0,0-0.1l0.1,0l0,0.1l0.1,0l0-0.1c0,0.1,0.1,0.2,0.1,0.1c0-0.1,0-0.1,0-0.2
			c0.1,0.1,0.2,0.2,0.2,0.2c0-0.1,0-0.1,0-0.1l0,0.1c0.1-0.1,0,0.2,0.1,0.1l0,0.1l0-0.2c0.1-0.2,0,0.2,0.1,0c0,0,0-0.2,0.1-0.2
			l0,0.1c0,0,0-0.1,0.1,0c0,0,0,0.1,0,0.1l0,0.1l0.1-0.2c0,0.1,0.1,0,0.1,0.1c0,0,0.1,0.1,0.2,0c0,0.1,0,0.1,0,0.2
			c0-0.1,0.2-0.2,0.2,0l0,0c0.1,0.1,0.3-0.1,0.3,0.1c0-0.1,0.1,0,0.1-0.2c0.2-0.1,0.1,0.3,0.3-0.1c0.1,0,0,0.1,0.1,0.2l0,0
			c0.1,0,0.1,0,0.2,0c0.1,0,0.1-0.2,0.2-0.1c-0.1,0.1,0,0.1,0,0.1c0,0,0,0,0,0.1c0,0,0,0,0,0l0,0c0.1,0,0.1,0,0-0.1c0,0,0,0,0-0.1
			c0,0.1,0.1,0,0.1,0.2c0.1,0,0.3-0.1,0.4-0.1c0,0.1-0.1,0.1-0.1,0.1l0.1,0c0,0.1-0.1,0-0.1,0c0,0.2,0.3-0.1,0.3,0.1l0.1-0.1l0,0
			c0,0,0.1-0.1,0.1-0.1c0,0.1-0.1,0.2,0,0.2c0,0.1,0.1,0,0.2,0c0,0,0-0.1,0-0.1c0,0,0,0.1,0,0.1l-0.1,0.1c0-0.1,0.1-0.1,0.2-0.1
			c0,0.1-0.1,0-0.1,0.1c0.1,0,0.1,0,0.2,0.1c0.1-0.1,0-0.1,0.1-0.2c0.1,0,0.1,0,0.2,0l0-0.1c0.1,0,0.2,0,0.2,0.1
			c1.1-0.4,0.7-1,0.7-1C604.9,417.5,604.6,417.8,604.2,417.7z"/>
	</g>
	<g>
		<defs>
			<path id="SVGID_1_" d="M237.5,482.6c31.8,11.3,153.9,26.2,230.8,20.4c68.6-5.3,59.6-92.9,59.6-92.9l-93.7-20.6L332.8,274.2
				C333.1,330,392.3,377,392.3,377l-0.9,5.1c-47.6,1.5-81.1,14.9-81.1,14.9c-31.9,10.4-47.6,12.6-47.6,12.6
				c-54.1,4.4-111.7-28.2-111.7-28.2c-13.4,28.8,19.2,45.8,19.2,45.8c29.4,15.6,32.2,21.1,38.9,44
				C212.1,474.5,230.1,480.2,237.5,482.6z"/>
		</defs>
		<clipPath id="SVGID_00000028311871014964154450000002492482658189330857_">
			<use xlink:href="#SVGID_1_"  style="overflow:visible;"/>
		</clipPath>
		<g style="clip-path:url(#SVGID_00000028311871014964154450000002492482658189330857_);">
			<g>
				<g>
					<g>
						<g>
							<path class="st0" d="M492.9,422c-6.2-4.9-22.7-11.9-42.3-8c-22.8,4.5-38.1,11.6-45.7,27.4c-9.4,20.1,8.4,40.8,20.1,51.2
								c7.1,6,17.5,8.5,15.7,13.2c-1.4,4-1,9.4,3.1,8.8c8.6-1.2,36.5-6.9,49.1-30.3C504,461.1,514.4,438.4,492.9,422z"/>
							<path class="st6" d="M468.8,434.1c3.3-0.9,5.9-1.8,5.1-5c-0.6-2.4-3.5-3.1-5.9-2.4c-3.2,0.8-6.3,1.6-9.5,2.5
								c-3,0.8-1.1,2.1-2.8,2.5c-0.8,0.2-1.3-0.1-1.6-1c-0.5-1.8-1.1-3.6-1.6-5.3c-0.3-0.9,0.1-1.4,0.9-1.6c1.8-0.5,0.8,1.6,3.8,0.8
								c3.8-1,7.6-2,11.4-2.9c3.7-0.9,1.4-2.4,3.6-2.9c1.8-0.5,3.7,3.2,3.8,3.9c0.3,1.1-0.7,1.5-3.4,2.3c2.8,1,4.6,2.6,5.1,5
								c1,4.5-1.4,7.3-7.3,8.9c-2.9,0.8-5.7,1.5-8.5,2.3c-2.9,0.8-1,2.1-2.7,2.5c-0.7,0.2-1.3-0.1-1.6-1c-0.5-1.8-1.1-3.6-1.6-5.4
								c-0.3-0.9,0-1.4,0.8-1.6c1.7-0.4,0.8,1.6,3.7,0.8C463.3,435.6,466,434.8,468.8,434.1z M463.3,462.1c0.3,1.1,0.9,1.2,1.5,1
								c1.1-0.3,0.1-2,2.3-2.7c4.3-1.2,8.6-2.4,13-3.7c2.6-0.7,3-1.5,2.8-2.4c-0.1-0.5-1.7-4.7-3.1-4.3c-1.6,0.4,0,1.8-3,2.6
								c-2.9,0.8-5.7,1.6-8.6,2.4c-2.3,0.6-4.4-1-4.9-3c-0.6-2.1,0.1-3.1,4-4.2c3.4-0.9,6.8-1.8,10.3-2.8c2.7-0.7,3.1-1.5,2.9-2.4
								c-0.1-0.5-1.9-4.7-3.3-4.3c-1.7,0.4,0.1,1.7-3.1,2.6c-3,0.8-6,1.6-9,2.4c-4,1.1-6.6,3.7-5.4,7.8c0.7,2.3,2.5,4.1,4.8,5.2
								c-1.8,0.7-2.5,1.1-2,2.9C462.8,460.2,463.1,461.1,463.3,462.1z M484.6,465.7c1.8-0.5,3.6-1,5.5-1.5c1.2-0.3,1.6-0.6,1.5-1.4
								c-0.3-1.7-6.8,1.4-8-2.6c-0.4-1.3-0.7-1.9-1.7-1.7c-1,0.3-1.3,0.7-1.1,1.8c0.1,0.5,0.2,1,0.3,1.5c-4.8,1.3-9.4,2.7-14,4
								c-2.1,0.6-2.4,1.3-1.8,3.6c0.5,1.7,0.9,3.4,1.4,5.1c0.2,0.9,0.7,1.1,1.6,0.9c0.8-0.2,1-0.8,0.6-2.4c-0.5-1.8-0.1-2.6,1.7-3.1
								c3.7-1.1,7.5-2.2,11.4-3.3c0.2,1,0.4,2,0.5,3c0.1,0.8,0.5,1.3,1.5,1c0.9-0.3,1.2-0.9,1-1.7
								C484.9,467.7,484.8,466.7,484.6,465.7z M439.8,434.3c3.3-0.9,7-0.5,7.9,2.3c1.1,3.4-3.3,5.7-6.5,6.6c-3.2,0.9-8.1,1-9.4-2.3
								c-0.3-0.9-0.6-2-0.7-2.2c-0.2-0.6-0.9-0.7-1.5-0.6c-1.7,0.4-1,3-0.4,4.4c2.1,5.1,8.1,7.3,13.9,5.6c5.4-1.5,9.4-5.9,7.9-10.8
								c-0.8-2.5-2.2-4.1-5.2-4.9c2.4-0.9,3.3-1.3,2.9-2.5c-0.2-0.7-2.4-4.6-4.1-4.1c-2.1,0.5,0.3,2.2-3.2,3.1
								c-8,2.1-15.9,4.2-23.7,6.2c-2.9,0.8-2.2-1.2-3.9-0.8c-0.7,0.2-1,0.7-0.6,1.6c0.8,1.8,1.5,3.5,2.3,5.3
								c0.4,0.9,1.1,1.6,1.8,1.4c1.7-0.5-0.5-2.1,2.2-2.9C426.1,438,432.9,436.1,439.8,434.3z M449.7,491.3c0.6,1.4,1,1.6,1.6,1.4
								c0.7-0.3-0.2-1.9,1.4-2.5c7.2-2.5,14.9-5,23-7.6c1.1-0.3,1.2-0.7,1-1.7c-0.2-1-1.7-3.7-2-4.2c-0.2-0.4-0.7-0.7-1.2-0.6
								c-1.3,0.4-0.4,2.3-2.2,2.8c-2.8,0.9-5.6,1.8-8.3,2.6c0.5-1.8,0.7-3.1,0.2-4.8c-1.5-5.3-7.1-7.5-12.4-5.9
								c-4.7,1.4-7.8,4.9-5.5,10.4c1.1,2.7,2.5,4.1,4.6,5c-1.2,0.5-1.9,0.7-1.2,2.3C449,489.5,449.3,490.4,449.7,491.3z
								 M452.8,484.9c-1.7,0.6-3.8-0.8-4.6-2.7c-1-2.5,0.2-5.1,4.7-6.5c4.6-1.4,7.3-0.1,8,2.4c0.6,2.1-0.1,4.2-2.2,4.9
								C456.7,483.6,454.8,484.3,452.8,484.9z M468.3,496.1c-0.8-3.5-3.5-6.9-7.2-5.7c-5.7,2-0.1,10.6-3.2,11.8
								c-1.2,0.4-2.5-0.7-3.2-2.5c-1.4-3.6,1.6-4.7,1-6.5c-0.3-0.9-1.4-1.1-2.1-0.9c-1.1,0.4-2.2,4.1-0.6,8.1c1.9,4.7,4.7,7.1,7.6,6
								c4.7-1.8,0.1-10.8,3-11.9c0.8-0.3,2.3-0.2,2.9,2.2c0.9,3.6-1.5,4.5-1.1,6.1c0.2,0.6,0.4,0.7,2.2,0
								C468.5,502.6,469.2,500,468.3,496.1 M458.2,508.7c-0.2-0.6-0.8-1-1.3-0.8c-0.5,0.2-0.7,0.8-0.4,1.5c0.2,0.6,0.8,1,1.3,0.8
								C458.2,509.9,458.4,509.3,458.2,508.7C458.2,508.7,458.2,508.7,458.2,508.7 M456.3,509.4c-0.3-0.8-0.1-1.7,0.5-1.9
								c0.6-0.2,1.3,0.2,1.6,1c0.3,0.8,0,1.6-0.6,1.9C457.3,510.7,456.6,510.2,456.3,509.4 M457.7,508.5c-0.1,0-0.2,0.1-0.3,0.1
								c0,0.1,0.1,0.2,0.1,0.3c0.1,0.2,0.1,0.3,0.3,0.2c0.1,0,0.1-0.2,0.1-0.4C457.7,508.8,457.7,508.7,457.7,508.5 M457,510
								c0-0.1-0.1-0.2-0.1-0.4c0,0,0,0,0,0c0,0,0.1-0.1,0.2-0.2c0,0,0,0,0,0c0.1-0.1,0.2-0.1,0.1-0.4c0-0.1-0.1-0.2-0.1-0.3
								c-0.2,0.1-0.3,0.1-0.5,0.2c0-0.1-0.1-0.2-0.1-0.4c0.4-0.2,0.8-0.3,1.3-0.5c0.1,0.2,0.2,0.5,0.3,0.7c0.1,0.3,0.1,0.7-0.1,0.8
								c-0.1,0.1-0.2,0-0.4-0.1c0,0.1-0.1,0.2-0.2,0.3c0,0,0,0,0,0C457.1,509.9,457.1,509.9,457,510C457,510,457,510,457,510
								 M456.7,459.9c0.9,2.8-0.5,6.8-6.2,5.2c-3.8-1-3.9-2.7-4.9-3.5c-1.8-1.4-3-1.9-4-4.6c-0.1-0.4-0.3-0.8-0.4-1.3
								c-0.7-2.4,0.8-4.4,4.3-4.3c0.8,0,1.9,0.2,3,0.4c1.8,0.3,2.8,0.6,4,1.3c2.1,1.3,2.2,3.1,3.8,5.7
								C456.4,459.2,456.6,459.5,456.7,459.9 M437.1,462.7c0.3,0.7,0.7,1.5,1.2,2.2c3,4.5,8.4,5.9,14.1,4.3c6.5-1.8,6.6-8.1,6.6-8.1
								c0,0,0-0.9-0.4-2c-0.3-0.9-0.8-2-1.6-2.8c-1.8-1.7-0.5-3.3-4.7-5.3c-1.2-0.5-3.3-1.1-5.3-1.6c-6-1.5-10.5,3.7-10.7,7.8
								C436.1,459.2,436.4,460.9,437.1,462.7"/>
						</g>
						<path class="st3" d="M422.6,467.2c-0.1-0.2,1.4-3.5,5.8-4.8c1.8-0.5,3.9-0.2,4.7,1.6c0.8,1.8-0.5,3.2-2.2,3.7
							C427,468.9,422.7,467.3,422.6,467.2"/>
						<path class="st3" d="M422.1,452.7C422,452.7,422,452.6,422.1,452.7c0-0.2,3.8-1.3,7.9,0.4c1,0.4,1.9,1.1,2.3,1.9
							c0.2,0.5,0.2,1.1-0.1,1.7c-0.7,1.5-2.6,1.6-4.3,0.9C424.5,456.3,422.3,453.3,422.1,452.7"/>
						<path class="st3" d="M434.2,478.2c-0.3-0.6-1.3-3.9,0-6.8c0.6-1.4,2.1-2.3,3.7-1.5c0.7,0.3,1.1,0.8,1.3,1.3
							c0.4,0.8,0.2,1.8-0.2,2.7C437.5,477.3,434.4,478.4,434.2,478.2C434.2,478.3,434.2,478.3,434.2,478.2"/>
					</g>
				</g>
			</g>
		</g>
	</g>
</g>
</svg>
