<?xml version="1.0" encoding="utf-8"?>
<!-- Generator: Adobe Illustrator 27.4.1, SVG Export Plug-In . SVG Version: 6.00 Build 0)  -->
<svg version="1.1" id="Layer_1" xmlns="http://www.w3.org/2000/svg" xmlns:xlink="http://www.w3.org/1999/xlink" x="0px" y="0px"
	 viewBox="0 0 800 800" style="enable-background:new 0 0 800 800;" xml:space="preserve">
<style type="text/css">
	.st0{fill:#030104;}
	.st1{fill:#F4F9FD;}
	.st2{fill:#A1C9D6;}
	.st3{fill-rule:evenodd;clip-rule:evenodd;}
	.st4{fill-rule:evenodd;clip-rule:evenodd;fill:#A1C9D6;}
	.st5{fill:#F5FAFD;}
	.st6{clip-path:url(#SVGID_00000146463508290631534130000015162484720345716117_);}
	.st7{fill-rule:evenodd;clip-rule:evenodd;fill:#FFFFFF;}
	.st8{fill:#93CAD6;}
	.st9{fill:#98CCD8;}
	.st10{fill:#9FCFDB;}
	.st11{fill:#BEDFE5;}
	.st12{fill:#AED6E0;}
	.st13{fill:#A9D4DE;}
	.st14{fill:#B7DBE3;}
	.st15{fill:#BBDDE4;}
	.st16{fill:#B6DBE3;}
	.st17{fill:#E2F0F3;}
	.st18{fill:#9ACDD9;}
	.st19{fill:#ABD5DE;}
	.st20{fill:#AAD5DE;}
	.st21{fill:#A0D0DC;}
	.st22{fill:#C1E0E7;}
	.st23{fill:#B5DAE3;}
	.st24{fill:#A7D4DE;}
	.st25{fill:#AFD7E0;}
	.st26{fill:#A8D4DE;}
	.st27{fill:#99CDD9;}
	.st28{fill:#9ECFDB;}
	.st29{fill:#F5FAFB;}
	.st30{fill:#EBF5F6;}
	.st31{fill:#FEFEFE;}
	.st32{fill:#A5D3DD;}
	.st33{fill:#C3E1E8;}
	.st34{fill:#BCDEE5;}
	.st35{fill:#D3E9EE;}
	.st36{fill:#B5DBE3;}
	.st37{fill:#F3F9FA;}
	.st38{fill:#A2D1DC;}
	.st39{fill:#A1D0DC;}
	.st40{fill:#EFF6F8;}
	.st41{fill:#A8D4DF;}
	.st42{fill:#9DCEDA;}
	.st43{fill:#DCEDF1;}
	.st44{fill:#B2D9E2;}
	.st45{fill:#ADD6DF;}
	.st46{fill:#D5EAEF;}
	.st47{fill:#D0E7ED;}
	.st48{fill:#D7EBF0;}
	.st49{fill:#C0E0E6;}
	.st50{fill:#BADCE5;}
	.st51{fill:#BFDFE6;}
	.st52{fill:#E6F2F4;}
	.st53{fill:#B8DBE4;}
	.st54{fill:#9FD0DB;}
</style>
<g>
	<path class="st0" d="M589.5,496.1c0,0,54.2,33.6,95.5,25.4c0,0-19.9-21.6-58.6-41.9C626.4,479.6,601.7,478,589.5,496.1z"/>
	<g>
		<path class="st1" d="M629.4,487.4c0,0-20.8,11.3-111.7,11.5c0,0-89.7,2.5-132.9-0.8c0,0-55.7,1.2-124.4-30.4
			c0,0-51.8-24.9-59.2-55.7c0,0-11.6-29.6-17.4-39.5c0,0,41.5-51.1,113.1-36.2C516.4,387.4,629.4,487.4,629.4,487.4z"/>
		<path class="st0" d="M271.1,335.3L271.1,335.3c8.3,0,16.9,0.9,25.5,2.7c113.1,26.4,197.2,65.9,247.9,94.5
			c46.4,26.1,74,48.1,81.6,54.4c-10.8,4-43.5,10-108.3,10.2c-0.3,0-32.7,0.9-67.4,0.9c-28.5,0-50.4-0.6-65.3-1.8c0,0-0.1,0-0.1,0
			c0,0,0,0,0,0c0,0-0.3,0-0.8,0c-5.8,0-58.9-0.8-122.9-30.2c-0.5-0.2-51.1-24.9-58.2-54.5c0-0.1,0-0.2-0.1-0.2
			c-0.5-1.2-10.9-27.8-16.9-38.6C191.3,366.8,221.7,335.3,271.1,335.3 M271.1,333.5c-55.7,0-87.3,38.9-87.3,38.9
			c5.8,9.9,17.4,39.5,17.4,39.5c7.4,30.8,59.2,55.7,59.2,55.7c63.9,29.4,116.6,30.4,123.6,30.4c0.5,0,0.8,0,0.8,0
			c17.3,1.4,42,1.8,65.4,1.8c35.2,0,67.5-0.9,67.5-0.9c90.9-0.2,111.7-11.5,111.7-11.5s-113-100-332.5-151.2
			C287.9,334.4,279.2,333.5,271.1,333.5L271.1,333.5z"/>
	</g>
	<g>
		<path class="st2" d="M202.5,416.3c3.8,7.9,14.2,29.7,44.3,42.6c-34.2-51.4,89.2-73.9,89.2-73.9l-41.8-32.1c0,0,33.6,24.3-4.4,32.1
			C289.8,384.9,197.3,405.5,202.5,416.3z"/>
		<path class="st0" d="M308.2,365.8l23.5,18.1c-6.9,1.5-21.9,4.9-37.8,10.6c-29.1,10.3-46.9,22.6-52.8,36.5
			c-3.2,7.6-2.8,15.6,1.2,23.9c-25.4-12.7-34.6-31.7-38.2-39.2l-0.1-0.1c0-0.1-0.1-0.2,0.1-0.4c3.6-7.5,54.7-21.4,86-28.3
			c11.4-2.3,17.9-6.5,19.3-12.3C310.1,371.5,309.5,368.6,308.2,365.8 M294.2,352.8L294.2,352.8L294.2,352.8L294.2,352.8z
			 M294.2,352.8l1.2,0.9C294.7,353.1,294.2,352.8,294.2,352.8L294.2,352.8z M295.4,353.7c5.6,4.4,28.1,24.3-5.6,31.2
			c0,0-92.5,20.6-87.3,31.3c3.8,7.9,14.2,29.7,44.3,42.6c-34.2-51.4,89.2-73.9,89.2-73.9L295.4,353.7L295.4,353.7z"/>
	</g>
	<path class="st0" d="M609.1,481.4c-32.5-8.6-82.5-60.4-199.7-68.3c-95.4-4.7-111.7-75.6-141-76.3c0,0-17.5,70.8-83,39.1
		c0,0-10.2-20.4-21.7-31.1c0,0-14.8-13.4-22.4-30.7l-24.2-20.4c0,0,14.9-5.1,18.5-9.8c0,0,50.4,3.5,66.8,11.9c0,0,8.2,3.9,11.3,6.7
		c0,0,15.4,2.3,29.9,12.6c0,0,40,3.4,62.2,10.6c0,0,73.5-65.6,139.1-64.6c0,0-70.7,47.8-81.6,74.8c0,0,111.8-38.5,124.1-38.5
		c0,0,17.8-7.5,19.6-3.9c0,0,3.2,2.3-16.9,6.9c0,0-26.6,13.4-48.8,21.8c0,0-23,9.4-31.3,13.3c0,0-16.4,8.1-20.2,13.1
		c0,0,108.9,39,166.1,83.9c0,0,28.7,22.4,51.3,27c0,0,24.2,3.2,38.6,13.1c0,0,30.9-0.5,49.6,23.9c0,0-10.5,8.2-55.6-5.4
		C640.1,491.1,641.6,490.1,609.1,481.4z"/>
	<g>
		<path class="st2" d="M143.8,284.6c0,0-3.2,15.2-21.8,13.1c0,0-21-15.9-17.2-22.4C112,274.5,143.8,284.6,143.8,284.6z"/>
		<path class="st0" d="M106.1,277.1c7.5,0.3,29.2,6.8,35.4,8.8c-1.2,3.2-5.1,10.3-16.2,10.3c-0.9,0-1.8,0-2.7-0.1
			C114.1,289.4,106,280.8,106.1,277.1 M105.7,275.3c-0.3,0-0.6,0-0.9,0c-3.8,6.5,17.2,22.4,17.2,22.4c1.2,0.1,2.3,0.2,3.4,0.2
			c15.6,0,18.4-13.3,18.4-13.3S114.3,275.3,105.7,275.3L105.7,275.3z"/>
	</g>
	<g id="path22_00000109009193097482210730000010876251420909801898_">
		<path class="st3" d="M468.1,601.3c0.1,0.3,0.2,0.6,0.5,0.7C468.6,601.7,468.4,601.5,468.1,601.3z"/>
	</g>
	<g id="path30_00000162337744361434947110000002128203938593755301_">
		<path class="st4" d="M468.1,601.3c0.2,0.2,0.5,0.4,0.5,0.7C468.3,601.9,468.3,601.6,468.1,601.3z"/>
	</g>
	<g>
		<path class="st5" d="M200.1,307.1L200.1,307.1C200,307.1,200.1,307.1,200.1,307.1z"/>
		<path class="st5" d="M208.8,312.2C208.8,312.2,208.8,312.1,208.8,312.2C208.8,312.1,208.8,312.2,208.8,312.2z"/>
		<polygon class="st5" points="196.2,307.6 196.2,307.6 196.2,307.6 		"/>
		<path class="st5" d="M201.3,305.8c-1.3-0.1-1.7-0.3-3.1-0.1c-0.3,0-0.8,0.1-1.4,0.5c-0.5,0.4-0.7,1-0.7,1.4c0.1,0.4-0.1,0.9,0,1.2
			L196,309c0,0.1,0.1,0.3,0,0.4l0,0c0.1,0.2,0,0.4,0,0.5l0,0l0,0.2l0,0c0.1,0.3,0.1,0.7,0.1,1l0.1,0c0,0.7,0.2,0.9,0.4,1.5l0,0
			c0.6,0.6,0.5,1.3,1.4,1.6c-0.1,0,0,0.1,0,0.1c0.3,0.2,0.7,0.4,0.8,0.2c0.2,0.1,0.1,0.2,0.1,0.2c0-0.1,0.3,0,0.4,0.1l-0.1,0
			l0.5,0.2l0-0.2c0.2,0.2,0,0.2,0.2,0.3l0.1-0.1c0.4,0.2,0.5,0.5,0.8,0.7c1.5,0.6,3.3,0.6,4.8,0.8l0.1,0.1c0,0.2,0.4-0.2,0.5-0.1
			l0.2-0.1c0.1,0,0.2,0.1,0.1,0.1c0.2,0,0.2,0,0.3-0.1l0.2,0.1c0.6,0,1.4-0.2,2.1-0.8c0.9-0.7,1.2-2.4,1.1-3.3
			c-0.1-0.7-0.1-1.4-0.3-2.1c-0.2-0.7-0.5-1.4-1.1-1.8c0,0-0.1-0.1-0.1-0.1c-0.3-0.3-0.6-0.6-1-0.8c0,0-0.3-0.2-0.8-0.4
			c-0.5-0.2-1.1-0.3-1.5-0.3c-0.5,0-0.8,0.2-0.7,0.3c0.1,0.2,0.6,0.4,1.3,0.9l0,0c0.5,0.2,0.8,0.4,1.2,0.5c-0.1,0.2,0.4,0.3,0.4,0.4
			l0,0c0.4,0.1,0.4,0.6,0.7,0.7c0,0-0.1,0-0.1,0c0.2,0.2,0.4,0.4,0.3,0.5c0.3,0.4,0.5,1.2,0.7,1.5l0,0c0.2,0.2,0.1,0.3,0.1,0.5
			c0,0,0,0,0,0c0.1,0.2,0,0.7,0,0.8l-0.1,0c0,0.1,0,0.3-0.1,0.4l0.1-0.2c0.2,0.1-0.2,0.3-0.2,0.6c-0.1,0.2,0.2,0.8-0.1,1
			c0,0.2-0.1-0.2-0.1,0c-0.1-0.1,0-0.1-0.1-0.1c-0.1,0.2-0.3,0.1-0.4,0.3l0-0.1c-0.2,0.3-0.6,0.1-0.8,0.2c-0.4,0.1-0.3-0.2-0.7,0
			l-0.2-0.1c-0.2,0-0.1,0.2-0.3,0.1c0-0.1-0.2-0.1-0.1-0.1c-0.4-0.1-0.9,0.2-1.4-0.1c-0.1,0.1-0.4,0-0.5,0.1c0-0.1-0.6-0.1-0.2-0.2
			c0,0,0.1,0,0.1,0l0.1-0.1c-0.3-0.2-0.6,0-0.9-0.1c0.1,0,0.2,0.1,0.1,0.1l-0.3-0.1l0.1-0.1l-0.4-0.1l0,0.1
			c-0.2-0.1-0.2-0.3-0.5-0.2c-0.1,0,0.2,0.2-0.1,0.1c-0.3-0.2-0.8-0.4-1-0.5c0,0.1-0.1,0.1-0.2,0.1l0-0.1c-0.4,0-0.1-0.2-0.4-0.3
			l0.1,0l-0.2,0.1c-0.4,0-0.1-0.2-0.5-0.2c0.1,0.1,0,0.2-0.2,0.1l0.1-0.1c-0.1,0-0.1,0-0.2-0.1c0.1,0,0.1-0.1,0-0.2l0.1,0l-0.3,0
			c-0.1-0.2-0.4-0.3-0.4-0.4c0,0-0.2-0.3-0.4-0.3c0.1,0,0-0.2,0.1-0.2c-0.1,0-0.4-0.2-0.3-0.4l0,0c-0.1-0.4-0.4-0.7-0.3-1.2
			c-0.1,0-0.1-0.2-0.2-0.1c-0.2-0.5,0.2-0.9-0.2-1.1c0-0.2,0.1-0.3,0.1-0.4l0,0.1c0-0.4,0-0.6,0.1-0.9c0-0.2-0.2-0.2-0.1-0.5
			c0.1,0.1,0.1,0,0.1-0.1c0,0.1,0,0.1,0.1,0c0,0,0,0,0-0.1l0,0c0-0.1,0-0.1,0-0.1c0,0,0,0-0.1,0c0.1-0.1,0.2-0.3,0.3-0.2
			c0.1-0.2,0.6-0.3,1-0.4c0.1,0.1,0,0.1-0.2,0.2l0.3-0.1c0,0.1-0.2,0.1-0.3,0.1c0.4,0.1,0.8-0.2,1.3-0.1l0.1-0.1l0,0
			c0,0,0.1-0.1,0.2-0.1c0.1,0.1,0,0.2,0.2,0.2c0.2,0.1,0.5,0,0.7-0.1c-0.1,0-0.1-0.1,0-0.1c0.1,0,0.2,0.1,0.3,0.1l0,0.1
			c0-0.1,0.3-0.1,0.3-0.1c0.1,0.1-0.2,0.1-0.2,0.1c0.4,0,0.2,0,0.7,0.1c0.2,0,0-0.1,0.1-0.2c0.2,0,0.4,0,0.6,0.1l0-0.1
			c0.4,0,0.6,0.1,0.8,0.3c0.8,0.1,1.2,0.3,1.5,0.3c0.3,0,0.3-0.1,0.3-0.2c-0.1-0.3-0.6-0.8-0.6-0.8
			C203.7,305.8,202.8,305.9,201.3,305.8z"/>
	</g>
	<g>
		<path class="st5" d="M205.3,311.6L205.3,311.6C205.3,311.6,205.3,311.6,205.3,311.6z"/>
		<path class="st5" d="M203.4,312L203.4,312L203.4,312z"/>
		<polygon class="st5" points="205.2,309.8 205.2,309.8 205.3,309.8 		"/>
		<path class="st5" d="M205,312.9c0.7,0.1,1.1-0.2,1.4-0.5c0.3-0.3,0.6-0.7,0.4-1.4c-0.1-0.3-0.2-0.7-0.6-1c-0.4-0.3-0.8-0.3-1-0.3
			c-0.2,0.2-0.5,0-0.7,0.2l-0.1-0.1c-0.1,0.1-0.1,0.1-0.2,0.1l0,0c-0.1,0.1-0.2,0.1-0.3,0.2l0,0l-0.1,0.1l0,0
			c-0.4,0.4-0.3,0.4-0.5,0.6l0.1,0c-0.4,0.4-0.2,0.6-0.3,1.2l0,0c0.4,0.7,0.3,0.5,0.5,0.7c0.1,0.2,0.4,0.4,0.7,0.4
			c-0.1,0,0,0.1,0,0.1c0.3,0,0.6,0,0.6-0.2c0.2,0,0.2,0,0.2,0.1c0-0.1,0.1-0.2,0.2-0.2L205,312.9c0.2,0,0.3-0.1,0.4-0.1l-0.1-0.1
			c0.2-0.1,0.2,0.2,0.3,0l-0.1-0.1c0.2-0.1,0.5-0.1,0.7-0.3c0.1-0.1,0.2-0.3,0.2-0.5c0.1-0.6-0.2-1.2-0.6-1.5
			c-0.4-0.3-0.8-0.5-1.2-0.6l0-0.1c0-0.2-0.3,0.2-0.3,0.1l-0.1,0.1c0,0-0.1-0.1,0-0.1c-0.1,0-0.1,0-0.2,0.1l-0.1-0.1
			c-0.4,0-0.8,0.3-1.2,0.6c-0.3,0.2-0.6,0.6-0.6,1c0,0.4,0.1,0.8,0.2,1.1c0.2,0.3,0.3,0.7,0.6,1.1c0.2,0.4,0.6,0.7,1.1,0.7
			c0,0,0.1,0,0.1,0c0.2,0.1,0.5,0.1,0.8,0c0,0,0.9-0.2,1.2-0.7c0.2-0.2,0.2-0.5,0-0.5c-0.2-0.1-0.5,0-1-0.1l0,0
			c-0.2,0-0.3,0-0.5,0.2c0-0.2-0.2,0-0.2-0.1l0,0c-0.2,0.1-0.2-0.2-0.3-0.1c0,0,0-0.1,0.1-0.1c-0.1,0-0.2,0-0.1-0.1
			c-0.2-0.1-0.3-0.3-0.5-0.3l0,0c-0.2,0-0.1-0.1-0.2-0.1c0,0,0,0,0,0c-0.2,0-0.1-0.2-0.1-0.3l0.1,0c0-0.1,0-0.1,0-0.2l0,0.1
			c-0.2,0,0.1-0.1,0-0.2c0-0.1-0.3-0.4-0.2-0.5c0-0.1,0.1,0.1,0.1,0c0.1,0.1,0,0.1,0.1,0.1c0-0.1,0.2,0,0.2-0.1l0.1,0.1
			c0-0.2,0.2,0,0.3-0.1c0.1-0.1,0.1,0.2,0.3,0.1l0.1,0.1c0.1,0,0.1-0.1,0.1-0.1c0,0.1,0.1,0.1,0,0.1c0.1,0.1,0.4-0.1,0.4,0.2
			c0.1-0.1,0.1,0,0.2-0.1c0,0,0.1,0.1-0.1,0.1c0,0,0,0,0,0l-0.1,0.1c-0.1,0.1,0.1,0,0.1,0.1c0,0,0,0,0.1,0l0,0l-0.1,0c0,0,0,0,0,0
			l0.1,0c0,0-0.2,0-0.1,0.1c0.1,0,0.1,0,0.2,0l0,0c-0.1,0-0.2,0-0.2,0c0.1,0.1,0.1,0.1,0.1,0.1l-0.1-0.1c0,0.2-0.1-0.1-0.1,0l0-0.1
			l0.1,0.2c0,0.2-0.1-0.2-0.1,0.1c0,0,0.1,0.2,0,0.2l0-0.1c0,0,0,0.1,0,0c0,0,0-0.1,0-0.1l0-0.1c0,0.1,0,0.1,0,0.2
			c0-0.1-0.1,0,0-0.1c0,0,0-0.1-0.1,0c0,0,0-0.1,0.1-0.1c0,0,0,0,0,0c0,0-0.1,0.1-0.1,0.1l0,0c0,0,0.1,0,0.2,0c0,0,0-0.1,0,0
			c-0.1-0.1,0-0.1-0.1-0.1c0-0.2,0.3,0.1,0.2-0.3c0.1-0.1,0.1,0.1,0.2,0.1l0,0c0.1-0.1,0.2-0.1,0.3-0.1c0.1,0,0.1-0.2,0.2-0.2
			c0,0.1,0,0.1,0,0.1c0,0,0,0,0,0.1c0,0,0,0,0,0l0,0c0,0,0,0,0-0.1c0,0,0,0,0,0c0,0.1,0.1,0.1,0,0.1c-0.1,0,0.2,0,0.2,0.2
			c-0.1,0-0.1,0-0.2,0l0,0.1c-0.1,0-0.1,0-0.1-0.1c-0.1,0,0.1,0.2-0.1,0.2l0,0.1l0,0c0,0,0,0.1,0,0.1c-0.1-0.1-0.1-0.2-0.1-0.1
			c0-0.1,0,0.1,0,0.1c0,0,0,0.1,0,0.1c0,0,0-0.1,0-0.1l0-0.1c0,0.1-0.1,0.1-0.1,0.1c0-0.1,0.1,0,0.1-0.1c-0.1,0,0,0-0.1,0
			c-0.1,0-0.1,0.1-0.2,0.1c0,0-0.2-0.1-0.1-0.1l-0.1,0c-0.1-0.1,0-0.3,0.1-0.2c0.1-0.4,0.5-0.5,0.7-0.5c0.2,0,0.3-0.1,0.3-0.2
			c0-0.2-0.3-0.4-0.6-0.4c-0.2-0.1-0.4,0-0.4,0c-0.8,0-1.3,0.7-1.2,1.5C203.8,312.4,204.2,312.8,205,312.9z"/>
	</g>
	<g>
		<defs>
			<path id="SVGID_1_" d="M625.7,488c0,0-33.9,9.2-126.8,9.5c0,0-128.3-1.9-135.3-2.5c-7-0.6-75.4-9.5-123.9-41.2
				c0,0-44.7-31.1-48-69c0,0-8.6-15.6-11.8-25.8c0,0,48.9-55.2,118.5-32.6C511,400.8,625.7,488,625.7,488z"/>
		</defs>
		<clipPath id="SVGID_00000000190019961069871030000009406080032360834708_">
			<use xlink:href="#SVGID_1_"  style="overflow:visible;"/>
		</clipPath>
		<g style="clip-path:url(#SVGID_00000000190019961069871030000009406080032360834708_);">
			<g>
				<g>
					<path class="st7" d="M254.8,417.2c1.6,0.7,3.2,0.6,4.4-0.3c0.3-0.2,0.5-0.4,0.7-0.7c0.4-0.5,0.8-1.1,1-1.9c0,0,0-0.1,0-0.1
						c0-0.3,0.1-0.5,0.1-0.7c0.3,0.1,0.7,0.2,1,0.3c0,0,0,0,0.1,0c0.1,0,0.2,0,0.3,0c0.6,0,1.2-0.2,1.6-0.7c0.5-0.5,0.7-1.3,0.6-2.2
						c0.1,0,0.3,0,0.4,0c0,0,0,0,0.1,0c0.2-0.1,0.5-0.2,0.7-0.3c0.2-0.1,0.3-0.2,0.4-0.3c0.4-0.4,0.7-1,0.7-1.6c0.2,0,0.3,0,0.5,0
						c0.1,0,0.1,0,0.2,0c0.3-0.1,0.7-0.3,0.9-0.5c0.6-0.6,0.9-1.5,0.7-2.4c0-0.2-0.1-0.3-0.1-0.5c1.2,0.1,2.4-0.2,3.3-0.9
						c0.6-0.5,1-1.2,1.3-1.9c0,0,0-0.1,0-0.1c0.1-0.2,0.1-0.3,0.1-0.5c0.7,0.1,1.4-0.1,1.9-0.5c0.2-0.2,0.4-0.4,0.6-0.6
						c0,0,0,0,0-0.1c0.2-0.3,0.3-0.5,0.3-0.8c0.2,0,0.5,0,0.7,0c0,0,0.1,0,0.2,0c0.4-0.1,0.8-0.2,1.2-0.4c0.6-0.4,0.9-1.1,1-1.9
						c0.4,0,0.9,0,1.3-0.1c0.1,0,0.2,0,0.2,0c0.3-0.1,0.5-0.2,0.8-0.4c0.6-0.4,0.9-0.9,1.1-1.5c0-0.1,0-0.1,0-0.2c0,0,0,0,0,0
						c0.3,0,0.5,0,0.8,0c0.4-0.1,0.8-0.2,1.1-0.4c0.5-0.3,0.9-0.9,1.1-1.5c0,0,0.1,0,0.1,0c0.6,0.2,1.4,0.2,2.3-0.4
						c0.3-0.2,0.5-0.3,0.7-0.5c0.1-0.1,0.3-0.3,0.4-0.4c0.2-0.3,0.3-0.7,0.4-1c0,0,0,0,0.1,0c0.1,0,0.2,0,0.3-0.1
						c0.7-0.2,1.4-0.5,2-0.9c1.3-0.7,2.4-1.8,3.1-3c0.1-0.2,0.1-0.3,0.2-0.4c0-0.2,0.1-0.4,0.1-0.5c0.1-1.6-1.4-2.9-3.3-3.1
						c0,0,0,0,0,0c-0.9,0-1.6,0.2-2.1,0.4c-0.1-0.2-0.3-0.5-0.5-0.8c-0.8-1.2-2.4-1.8-3.9-1.6c-0.4,0-1,0.2-1.6,0.5
						c-0.9,0.5-1.4,1.3-1.4,2.2c-0.2,0-0.4-0.1-0.5-0.1c0,0,0,0,0,0c-1.2-0.1-2.4,0.1-3.4,0.7c-0.5,0.3-0.9,0.6-1.2,1
						c-0.4,0.5-0.7,1.1-0.9,1.8c-0.2-0.1-0.4-0.2-0.6-0.3c-0.6-0.2-1.3-0.2-1.8,0.1c0,0-0.1,0-0.1,0.1c0,0,0,0-0.1,0
						c-0.1,0-0.1,0.1-0.2,0.1c-0.9,0.5-1.1,1.3-1.1,1.8c-1.1-0.1-2,0.1-2.8,0.6c-0.3,0.2-0.5,0.3-0.7,0.6c0,0,0,0.1-0.1,0.1
						c-0.1,0.1-0.2,0.2-0.2,0.4c-0.7-0.1-1.3,0.1-1.8,0.5c-0.4,0.3-0.7,0.6-0.8,1.1c-0.1,0.2-0.1,0.4-0.2,0.7c0,0.2,0,0.4,0,0.6
						c-0.2,0-0.3,0-0.4,0c-0.9,0-1.7,0.3-2.4,0.8c-0.8,0.6-1.4,1.6-1.5,2.7c-1-0.5-2.1-0.4-2.9,0.3c-0.3,0.2-0.5,0.5-0.7,0.8
						c-0.1,0.2-0.1,0.3-0.1,0.5c-0.1,0.3-0.1,0.7-0.1,1c-1.2-0.2-2.4,0.1-3.2,0.9c-0.2,0.2-0.4,0.3-0.5,0.5
						c-0.4,0.4-1.2,1.1-1.3,2.4c-0.1,0.2-0.1,0.5-0.1,0.8c0,0.3,0.1,0.6,0.2,0.8c-0.4,0-0.9,0.1-1.2,0.2c-0.1,0-0.2,0-0.3,0.1
						c-0.4,0.1-1.1,0.2-1.6,0.7c0,0,0,0,0,0c-0.1,0.1-0.1,0.1-0.2,0.1c-0.1,0.1-0.1,0.2-0.2,0.3c-0.8,1.4-0.7,3.5,0,5.4
						c0.9,2.1,2.3,3.9,4,5.1c0.2,0.1,0.4,0.2,0.5,0.3C254.7,417.1,254.8,417.1,254.8,417.2z M286,385.5c-0.4-0.5-0.7-1.1-0.9-1.6
						c0,0,0,0,0,0c-0.1-0.4,0.2-0.7,0.5-0.9c0.3-0.2,0.7-0.2,0.9-0.3c0.7-0.1,1.4,0.2,1.8,0.8c0.6,0.6,0.7,1.4,1.3,2.1
						c0,0,0.1,0,0.2,0c1-0.2,1.8-0.9,2.9-0.9c0.8,0,1.4,0.6,1.4,1.2c0,0.1,0,0.2,0,0.2c-0.6,1-1.5,1.8-2.5,2.3
						c-0.5,0.3-1,0.5-1.6,0.7c-0.5,0.1-1.1-0.1-1.5-0.5C287.4,387.7,286.6,386.7,286,385.5z M278.9,388.3c-0.1-0.6,0-1.2,0.4-1.7
						c0.2-0.3,0.5-0.5,0.8-0.7c0.6-0.4,1.4-0.5,2.2-0.5c1.6,0.1,3,1.2,4,2.2c0.6,0.7,1.1,1.3,1.6,2c0.3,0.4,0.3,1,0.1,1.4
						c-0.1,0.1-0.3,0.2-0.4,0.3c-0.2,0.1-0.5,0.2-0.8,0.1c-0.9-0.1-1.6-1-2.2-1.6c-0.3,0.2-0.6,0.4-0.8,0.7c0.2,0.5,0.5,1,0.7,1.6
						c0,0.2,0,0.4,0,0.6c-0.1,0.2-0.2,0.3-0.4,0.4c-0.1,0.1-0.3,0.1-0.4,0.1c-0.1,0-0.2,0-0.3,0c-0.7-0.1-1.3-0.4-1.8-0.9
						C280.2,391.4,279.3,389.9,278.9,388.3C279,388.2,278.9,388.3,278.9,388.3z M272.2,393.1c-0.4-0.5-0.7-1-0.9-1.6
						c0.1-0.1,0.3-0.3,0.4-0.3c0.8-0.5,1.9-0.5,2.9-0.2c0.7,0.1,1.3,0.5,2,0.7c-0.5-0.8-1.3-1.5-1.3-2.4c0-0.3,0.1-0.4,0.3-0.5
						c0.1-0.1,0.2-0.1,0.3-0.2c0.7,0.3,1.4,0.7,1.9,1.2c1.1,1.1,2.1,2.2,2.9,3.4c0.4,0.5,0.7,1.1,0.7,1.7c0,0.1,0,0.2-0.1,0.3
						c0,0,0,0,0,0.1c-0.1,0-0.1,0.1-0.2,0.2c0,0-0.1,0.1-0.1,0.1c-0.1,0.1-0.2,0.1-0.3,0.1c-0.8,0.1-1.6,0.1-2.4-0.1
						c-0.6-0.1-1.2-0.6-1.8-0.6c0.5,0.8,1.2,1.4,1.4,2.3c0,0.1,0,0.2-0.1,0.3c0,0.1-0.1,0.2-0.1,0.2c0,0,0,0-0.1,0.1
						c0,0-0.1,0.1-0.1,0.1c-0.1,0.1-0.3,0.1-0.4,0.1c-0.7,0-1.5-0.3-1.9-1C274.2,395.7,273.2,394.4,272.2,393.1z M269.1,394.7
						c-0.4-0.5-0.6-1.1-0.6-1.6c0,0,0,0,0,0c0.1-0.2,0.2-0.3,0.3-0.4c0.1-0.1,0.3-0.1,0.4-0.2c0,0,0.1,0,0.2,0c0.1,0,0.3,0,0.4,0.1
						c0.2,0.1,0.4,0.2,0.5,0.4c1.4,1.7,2.8,3.5,4.1,5.2c0.2,0.4,0.6,0.9,0.3,1.4c-0.1,0.1-0.1,0.2-0.2,0.2c-0.6,0.5-1.8-0.1-2.3-0.8
						C271.2,397.6,270.2,396.1,269.1,394.7z M264.3,398.6C264.3,398.6,264.3,398.7,264.3,398.6c-0.3-1.2,0.1-2.3,0.9-2.9
						c0.4-0.3,0.9-0.5,1.5-0.5c0.1,0,0.2,0,0.3,0c0.7,0.1,1.3,0.7,1.4,1.4c0,0.9-0.9,1.2-1.3,1.9c-0.5,0.9,0.8,2.5,1.8,2
						c0-0.1,0.1-0.2,0.1-0.3c-0.3-0.1-0.7,0-0.9-0.4c-0.4-0.5-0.2-1.1,0.2-1.4c0.1-0.1,0.2-0.1,0.3-0.2c0.5-0.4,1.3-0.4,1.9-0.1
						c1,0.9,1.8,2.3,1.5,3.5c-0.2,0.5-0.5,0.9-0.8,1.2c-0.4,0.3-0.8,0.5-1.3,0.6c-0.5,0.1-1.1,0-1.6-0.1
						C266.4,402.4,264.8,400.7,264.3,398.6z M260.8,400.7c-0.4-0.5-0.5-1.2-0.3-1.7c0.1-0.1,0.1-0.3,0.2-0.3c0.4-0.3,1-0.3,1.5,0
						c0.1,0.1,0.2,0.2,0.3,0.3c1.2,1.4,2.3,2.9,3.5,4.3c0.6,0.8,1.3,1.5,1.3,2.4c0,0.2,0,0.3,0,0.5c0,0.2-0.1,0.3-0.2,0.4
						c0,0-0.1,0.1-0.1,0.1c0,0-0.1,0.1-0.1,0.1c-0.8,0.1-1.5-0.3-2-1C263.4,404.2,262.1,402.5,260.8,400.7z M257,407.3
						c-0.7-1-1.7-1.9-1.9-3.1c0,0,0,0,0,0.1c0-0.7,0.3-1.2,0.7-1.6c0.1-0.1,0.1-0.2,0.2-0.3c0.1-0.1,0.3-0.3,0.4-0.4c0,0,0,0,0,0
						c0,0,0,0,0.1-0.1c0.4-0.4,0.9-0.6,1.5-0.6c0.2,0,0.4,0,0.6,0c0.9,0.2,1.9,0.7,2.4,1.6c0.5,0.7,0.7,1.6,0.5,2.3
						c1.1,0.5,2.2,0.8,3.1,1.8c0.1,0.2,0.1,0.3,0.2,0.4c0,0.1,0.1,0.3,0,0.4c0,0.3-0.1,0.5-0.3,0.7c-0.1,0.1-0.1,0.1-0.2,0.1
						c-0.1,0.1-0.2,0.1-0.3,0.1c-0.9,0.1-1.9,0-2.9-0.3c0.6,0.6,1.1,1.3,1.3,2c0.1,0.4,0,0.7-0.2,0.9c-0.1,0.1-0.3,0.2-0.6,0.2
						c0,0-0.1,0-0.1,0c-0.5-0.1-1-0.3-1.4-0.7C259.2,410,258.1,408.7,257,407.3z M251.7,411.3c-0.6-1.3-0.6-2.7,0-3.6c0,0,0,0,0.1,0
						c0-0.1,0.1-0.1,0.1-0.2c0.1-0.1,0.3-0.2,0.5-0.3c0.2-0.1,0.3-0.1,0.5-0.1c0.1,0,0.2-0.1,0.3-0.1c0.8-0.3,1.7-0.2,2.5,0.2
						c1,0.5,1.9,1.4,2.6,2.5c0.7,1.2,1,2.5,0.8,3.6c-0.1,0.5-0.3,0.9-0.6,1.3c-0.1,0.2-0.3,0.3-0.5,0.4c-0.8,0.6-2,0.7-3.1,0.2
						C253.6,414.4,252.4,413,251.7,411.3z"/>
					<path d="M287.5,381c1,0.2,1.9,0.8,2.5,1.6c0.2,0.3,0.4,0.5,0.5,0.8c0.6-0.2,1.3-0.4,2.1-0.4c0,0,0,0,0,0c0,0,0,0,0,0
						c0.2,0,0.4,0,0.5,0.1c1.6,0.3,2.9,1.6,2.8,3c0,0.2,0,0.4-0.1,0.5c0,0.2-0.1,0.3-0.2,0.4c-0.7,1.2-1.8,2.2-3.1,3
						c-0.6,0.4-1.3,0.6-2,0.9c-0.1,0-0.2,0.1-0.3,0.1c0,0,0,0-0.1,0c0,0.4-0.2,0.7-0.4,1c-0.1,0.2-0.2,0.3-0.4,0.4
						c-0.2,0.1-0.4,0.3-0.7,0.5c-0.8,0.5-1.5,0.5-2.1,0.4c-0.1,0-0.2,0-0.2,0c0,0-0.1,0-0.1,0c0,0,0,0,0,0c-0.2,0.6-0.6,1.1-1.1,1.5
						c-0.3,0.2-0.7,0.3-1.1,0.4c-0.2,0-0.5,0.1-0.8,0c0,0,0,0,0,0c0,0,0,0,0,0c0,0.1,0,0.1,0,0.2c-0.2,0.6-0.5,1.2-1.1,1.5
						c-0.2,0.2-0.5,0.3-0.8,0.4c-0.1,0-0.2,0-0.2,0c-0.4,0.1-0.9,0.1-1.3,0.1c-0.1,0.7-0.4,1.4-1,1.9c-0.3,0.2-0.8,0.4-1.2,0.4
						c-0.1,0-0.1,0-0.2,0c0,0,0,0,0,0c-0.2,0-0.5,0-0.7,0c0,0.3-0.1,0.5-0.3,0.8c0,0,0,0,0,0.1c-0.1,0.2-0.4,0.4-0.6,0.6
						c-0.5,0.4-1.2,0.6-1.9,0.5c0,0.2-0.1,0.3-0.1,0.5c0,0.1,0,0.1,0,0.1c-0.3,0.7-0.8,1.4-1.3,1.9c-0.9,0.8-2.1,1.1-3.3,0.9
						c0,0.2,0.1,0.3,0.1,0.5c0.2,0.9-0.1,1.8-0.7,2.4c-0.3,0.2-0.6,0.4-0.9,0.5c-0.1,0-0.1,0-0.2,0c-0.2,0-0.3,0-0.5,0c0,0,0,0,0,0
						c-0.1,0.6-0.3,1.2-0.7,1.6c-0.1,0.1-0.3,0.3-0.4,0.3c-0.2,0.2-0.4,0.3-0.7,0.3c0,0,0,0,0,0c0,0,0,0,0,0c-0.1,0-0.3,0-0.4,0
						c0.1,0.9-0.1,1.6-0.6,2.2c-0.4,0.4-1,0.7-1.6,0.7c0,0,0,0,0,0c-0.1,0-0.2,0-0.3,0c0,0,0,0,0,0c0,0,0,0-0.1,0
						c-0.3-0.1-0.7-0.2-1-0.3c0,0.2-0.1,0.5-0.1,0.7c0,0,0,0.1,0,0.1c-0.2,0.7-0.5,1.3-1,1.9c-0.2,0.2-0.4,0.5-0.7,0.7
						c-0.8,0.6-1.8,0.8-2.8,0.7c-0.5-0.1-1-0.2-1.6-0.4c-0.1,0-0.1-0.1-0.2-0.1c-0.2-0.1-0.4-0.2-0.5-0.3c-1.7-1.1-3.1-2.9-4-5.1
						c-0.8-1.9-0.8-4,0-5.4c0.1-0.1,0.1-0.2,0.2-0.3c0.1-0.1,0.1-0.1,0.2-0.1c0,0,0,0,0,0c0.5-0.5,1.1-0.7,1.6-0.7
						c0.1-0.1,0.2-0.1,0.3-0.1c0.4-0.1,0.8-0.2,1.2-0.2c-0.1-0.3-0.1-0.5-0.2-0.8c0-0.3,0-0.6,0.1-0.8c0.2-1.3,1-2,1.3-2.4
						c0.2-0.2,0.4-0.3,0.5-0.5c0.8-0.7,2-1,3.2-0.9c0-0.4,0-0.7,0.1-1c0-0.2,0.1-0.3,0.1-0.5c0.2-0.3,0.4-0.6,0.7-0.8
						c0.6-0.5,1.4-0.7,2.2-0.5c0.2,0,0.5,0.1,0.7,0.2c0.2-1.1,0.7-2.1,1.5-2.7c0.7-0.5,1.5-0.8,2.4-0.8c0,0,0,0,0,0
						c0.1,0,0.3,0,0.4,0c0-0.2,0-0.4,0-0.6c0-0.3,0.1-0.5,0.2-0.7c0.2-0.5,0.5-0.8,0.9-1.1c0.5-0.4,1.1-0.5,1.8-0.5
						c0.1-0.1,0.1-0.2,0.2-0.4c0,0,0-0.1,0.1-0.1c0.2-0.2,0.4-0.4,0.7-0.6c0.8-0.5,1.7-0.7,2.8-0.6c0-0.5,0.2-1.3,1.1-1.8
						c0.1,0,0.1-0.1,0.2-0.1c0,0,0.1,0,0.1,0c0,0,0.1,0,0.1-0.1c0.4-0.3,0.9-0.3,1.4-0.2c0.1,0,0.2,0.1,0.3,0.1
						c0.2,0.1,0.4,0.2,0.6,0.3c0.1-0.7,0.4-1.3,0.9-1.8c0.3-0.4,0.7-0.7,1.2-1c1-0.6,2.2-0.8,3.4-0.7c0,0,0,0,0,0
						c0.2,0,0.3,0,0.5,0.1c0,0,0,0,0,0c0-0.9,0.5-1.7,1.4-2.2c0.6-0.3,1.2-0.5,1.6-0.5C286.5,380.9,287,380.9,287.5,381
						 M289.3,389.2c0.2,0,0.4,0,0.5,0c0.6-0.2,1.1-0.4,1.6-0.7c1-0.6,1.9-1.4,2.5-2.3c0-0.1,0-0.1,0-0.2c0-0.6-0.5-1.1-1.1-1.2
						c-0.1,0-0.2,0-0.2,0c-1.1,0-1.9,0.7-2.9,0.9c0,0-0.1,0-0.2,0c-0.6-0.6-0.7-1.4-1.3-2.1c-0.3-0.4-0.7-0.7-1.2-0.8
						c-0.2,0-0.4-0.1-0.7,0c-0.3,0-0.7,0.1-0.9,0.3c-0.3,0.2-0.6,0.5-0.5,0.9c0,0,0,0,0,0c0.2,0.6,0.5,1.2,0.9,1.6
						c0.7,1.1,1.4,2.2,2.4,3.1C288.6,388.9,289,389.1,289.3,389.2 M278.9,388.3C278.9,388.3,279,388.2,278.9,388.3
						c0.4,1.6,1.3,3.1,2.6,4.3c0.4,0.4,1,0.7,1.6,0.8c0.1,0,0.2,0,0.2,0c0,0,0,0,0,0c0.1,0,0.2,0,0.3,0c0.1,0,0.3-0.1,0.4-0.1
						c0.2-0.1,0.3-0.3,0.4-0.4c0-0.2,0.1-0.4,0-0.6c-0.2-0.6-0.4-1.1-0.7-1.6c0.2-0.2,0.5-0.5,0.8-0.7c0.6,0.6,1.3,1.4,2.2,1.5
						c0,0,0,0,0.1,0c0,0,0.1,0,0.1,0c0.3,0,0.5,0,0.7-0.2c0.2-0.1,0.3-0.2,0.4-0.3c0.3-0.4,0.2-0.9-0.1-1.4c-0.5-0.7-1-1.4-1.6-2
						c-1-0.9-2.1-1.9-3.6-2.2c-0.2,0-0.3-0.1-0.5-0.1c-0.8-0.1-1.6,0.1-2.2,0.5c-0.3,0.2-0.6,0.4-0.8,0.7
						C279,387,278.8,387.6,278.9,388.3 M276.5,391.6c-0.6-0.1-1.2-0.5-1.9-0.7c-0.1,0-0.1,0-0.2,0c-0.1,0-0.3-0.1-0.4-0.1
						c-0.9-0.2-1.8-0.1-2.4,0.3c-0.1,0.1-0.3,0.2-0.4,0.3c0.2,0.6,0.5,1.1,0.9,1.6c1,1.3,2.1,2.6,3.1,3.9c0.4,0.5,1,0.9,1.5,1
						c0.1,0,0.3,0,0.4,0c0.2,0,0.3-0.1,0.4-0.1c0,0,0.1-0.1,0.1-0.1c0,0,0-0.1,0.1-0.1c0,0,0.1-0.1,0.1-0.2c0-0.1,0.1-0.2,0.1-0.3
						c-0.2-0.9-0.9-1.5-1.4-2.3c0,0,0.1,0,0.1,0c0.6,0.1,1.1,0.5,1.6,0.6c0,0,0,0,0,0c0.2,0.1,0.4,0.1,0.5,0.1
						c0.6,0.1,1.2,0.1,1.8,0c0.1,0,0.2-0.1,0.3-0.1c0,0,0.1-0.1,0.1-0.1c0.1-0.1,0.1-0.1,0.2-0.2c0,0,0,0,0-0.1
						c0.1-0.1,0.1-0.2,0.1-0.3c0-0.6-0.3-1.2-0.7-1.7c-0.9-1.2-1.8-2.4-2.9-3.4c-0.6-0.5-1.2-1-1.9-1.2c-0.1,0.1-0.2,0.1-0.3,0.2
						c-0.2,0.1-0.3,0.3-0.3,0.5C275.2,390.1,276,390.8,276.5,391.6 M269.5,392.4C269.5,392.4,269.5,392.4,269.5,392.4
						c-0.1,0-0.2,0-0.2,0c-0.1,0-0.3,0.1-0.4,0.2c-0.1,0.1-0.3,0.3-0.3,0.4c0,0,0,0,0,0c0,0.6,0.2,1.1,0.6,1.6c1,1.4,2,2.9,3.2,4.2
						c0.3,0.4,0.9,0.8,1.5,0.9c0.3,0.1,0.6,0,0.8-0.2c0.1-0.1,0.1-0.1,0.2-0.2c0.3-0.4-0.1-1-0.3-1.4c-1.3-1.8-2.7-3.5-4.1-5.2
						c-0.2-0.1-0.3-0.3-0.5-0.4c-0.1,0-0.1,0-0.2-0.1C269.7,392.4,269.6,392.4,269.5,392.4 M264.3,398.7
						C264.3,398.7,264.3,398.6,264.3,398.7c0.5,2,2.1,3.8,4,4.5c0.2,0.1,0.4,0.1,0.6,0.2c0.3,0.1,0.7,0.1,1,0c0.5-0.1,1-0.3,1.3-0.6
						c0.4-0.3,0.7-0.7,0.8-1.2c0.4-1.2-0.5-2.6-1.5-3.5c-0.2-0.1-0.4-0.2-0.6-0.2c-0.5-0.1-0.9,0-1.3,0.3c-0.1,0.1-0.2,0.1-0.3,0.2
						c-0.4,0.3-0.7,0.9-0.2,1.4c0.1,0.3,0.3,0.3,0.5,0.4c0.1,0,0.2,0,0.3,0c0,0,0,0,0,0c0,0.1-0.1,0.2-0.1,0.3
						c-0.2,0.1-0.4,0.1-0.5,0.1c-0.8-0.1-1.6-1.3-1.3-2.1c0.4-0.7,1.3-1,1.3-1.9c-0.1-0.7-0.7-1.2-1.3-1.3c0,0-0.1,0-0.1,0
						c-0.1,0-0.2,0-0.3,0c-0.6,0-1.1,0.2-1.5,0.5C264.4,396.3,264,397.4,264.3,398.7 M266.4,406.7c0.2,0,0.3,0,0.5,0
						c0.1,0,0.1-0.1,0.1-0.1c0.1,0,0.1,0,0.1-0.1c0.1-0.1,0.2-0.2,0.2-0.4c0-0.1,0.1-0.3,0-0.5c-0.1-0.9-0.8-1.7-1.3-2.4
						c-1.2-1.4-2.3-2.9-3.5-4.3c-0.1-0.1-0.2-0.2-0.3-0.3c-0.2-0.1-0.4-0.2-0.6-0.2c-0.4-0.1-0.7,0-0.9,0.2
						c-0.1,0.1-0.2,0.2-0.2,0.3c-0.2,0.5-0.1,1.2,0.3,1.7c1.3,1.8,2.6,3.4,4,5C265.2,406.3,265.8,406.6,266.4,406.7 M255.2,404.3
						C255.2,404.3,255.2,404.2,255.2,404.3c0.1,1.2,1.1,2,1.8,3c1,1.4,2.2,2.7,3.4,3.8c0.4,0.4,0.9,0.6,1.4,0.7c0,0,0.1,0,0.1,0
						c0.2,0,0.4-0.1,0.6-0.2c0.2-0.2,0.3-0.5,0.2-0.9c-0.2-0.8-0.7-1.5-1.3-2c0.4,0.2,0.8,0.3,1.3,0.3c0.5,0.1,1.1,0.1,1.6,0
						c0.1,0,0.2,0,0.3-0.1c0.1,0,0.1-0.1,0.2-0.1c0.2-0.2,0.3-0.4,0.3-0.7c0-0.2,0-0.3,0-0.4c0-0.1-0.1-0.3-0.2-0.4
						c-0.8-1-2-1.3-3.1-1.8c0.2-0.7,0-1.6-0.5-2.3c-0.6-0.9-1.5-1.5-2.4-1.6c0,0,0,0,0,0c0,0,0,0-0.1,0c-0.2,0-0.4,0-0.6,0
						c-0.6,0-1.1,0.2-1.5,0.6c0,0,0,0-0.1,0.1c0,0,0,0,0,0c-0.1,0.1-0.3,0.3-0.4,0.4c-0.1,0.1-0.2,0.2-0.2,0.3
						C255.5,403.1,255.2,403.6,255.2,404.3 M256.1,415.5c0.7,0.1,1.4-0.1,2-0.5c0.2-0.1,0.3-0.3,0.5-0.4c0.3-0.4,0.5-0.8,0.6-1.3
						c0.2-1.1-0.1-2.5-0.8-3.6c-0.7-1-1.6-1.9-2.6-2.5c-0.4-0.2-0.7-0.3-1.1-0.4c-0.5-0.1-1-0.1-1.4,0.1c-0.1,0.1-0.2,0.1-0.3,0.1
						c-0.2,0-0.4,0.1-0.5,0.1c-0.2,0.1-0.3,0.1-0.5,0.3c-0.1,0.1-0.1,0.1-0.1,0.2c0,0,0,0-0.1,0c-0.5,0.9-0.5,2.3,0,3.6
						c0.6,1.7,1.8,3.1,3.2,3.9C255.3,415.4,255.7,415.5,256.1,415.5 M287.9,379.4L287.9,379.4c-0.7-0.2-1.5-0.2-2.2-0.1
						c-0.5,0-1.4,0.2-2.3,0.7c-0.9,0.5-1.5,1.1-1.9,1.9c-1.3,0-2.5,0.3-3.5,0.9c-0.7,0.4-1.2,0.8-1.6,1.3c-0.2,0.2-0.4,0.5-0.6,0.8
						c-0.8-0.1-1.6,0.1-2.3,0.5c0,0-0.1,0-0.1,0.1c-0.1,0-0.2,0.1-0.2,0.1c-0.7,0.4-1.2,0.9-1.5,1.6c-0.9,0.1-1.7,0.4-2.5,0.8
						c-0.3,0.2-0.6,0.4-0.8,0.7c-0.1,0-0.1,0.1-0.2,0.1c-0.6,0.1-1.2,0.3-1.8,0.7c-0.7,0.4-1.1,1-1.4,1.8c0,0.1-0.1,0.2-0.1,0.4
						c-0.9,0.2-1.6,0.5-2.3,1c-0.7,0.5-1.3,1.2-1.6,2.1c-1.1-0.1-2.1,0.2-2.8,0.8c-0.4,0.3-0.7,0.7-1,1.3c-0.1,0.3-0.2,0.5-0.2,0.8
						c-1.1,0.1-2.1,0.5-2.9,1.2c-0.2,0.2-0.4,0.3-0.6,0.5c-0.4,0.4-1.5,1.3-1.7,3.1c-0.1,0.3-0.1,0.5-0.1,0.8c-0.1,0-0.1,0-0.2,0.1
						c-0.1,0-0.1,0-0.2,0.1c-0.5,0.1-1.4,0.3-2,1c-0.1,0.1-0.2,0.1-0.3,0.2c-0.1,0.1-0.2,0.2-0.2,0.3c0,0-0.1,0.1-0.1,0.1
						c0,0,0,0.1,0,0.1c-1,1.9-1,4.6,0.1,7.2c1.1,2.7,2.9,4.9,5,6.4c0.2,0.1,0.3,0.2,0.5,0.3c0,0,0.1,0.1,0.1,0.1
						c0.1,0,0.1,0.1,0.2,0.1c0.1,0,0.1,0.1,0.2,0.1c0.8,0.3,1.5,0.5,2.1,0.6c1.4,0.1,2.6-0.2,3.6-1c0.3-0.3,0.6-0.6,0.9-0.9
						c0.5-0.6,0.9-1.3,1.1-2c0.1,0,0.1,0,0.2,0c0,0,0.1,0,0.1,0c0,0,0,0,0,0c1,0,1.8-0.4,2.5-1.1c0.5-0.5,0.8-1.2,1-2
						c0.2-0.1,0.4-0.2,0.5-0.3c0.3-0.2,0.5-0.4,0.7-0.5c0.4-0.4,0.7-0.8,0.9-1.4c0.6-0.1,1.1-0.4,1.5-0.8c0.7-0.7,1.1-1.6,1.2-2.6
						c1-0.2,1.9-0.6,2.7-1.3c0.7-0.6,1.3-1.4,1.7-2.3c0.6-0.1,1.2-0.4,1.7-0.8c0.3-0.2,0.5-0.5,0.8-0.7c0.1-0.1,0.2-0.2,0.4-0.3
						c0-0.1,0-0.1,0-0.2c0.7-0.1,1.3-0.4,1.8-0.7c0.6-0.4,1-1,1.3-1.6c0.1,0,0.2,0,0.3-0.1c0,0,0.1,0,0.2,0c0,0,0.1,0,0.1,0
						c0,0,0.1,0,0.1,0c0.4-0.1,0.8-0.3,1.3-0.6c0.6-0.4,1.1-0.9,1.4-1.6c0.6-0.1,1.2-0.3,1.7-0.7c0.5-0.3,0.9-0.7,1.2-1.1
						c0.7,0,1.5-0.2,2.3-0.8c0.3-0.2,0.7-0.5,0.9-0.6c0.3-0.3,0.5-0.5,0.7-0.9c0.1-0.2,0.2-0.4,0.3-0.5c0.7-0.3,1.3-0.6,1.9-0.9
						c1.6-0.9,2.9-2.2,3.8-3.6c0.2-0.3,0.3-0.6,0.4-0.9c0.1-0.2,0.1-0.5,0.1-0.8c0.1-2.1-1.6-4-4.1-4.6c0-0.1-0.1-0.1-0.1-0.2
						c-0.4,0-0.7,0-1.1,0c0,0,0,0-0.1,0c-0.1,0-0.3,0-0.4,0c0,0-0.1,0-0.1,0c-0.3,0-0.5,0-0.8,0.1
						C290.5,380.4,289.2,379.7,287.9,379.4L287.9,379.4L287.9,379.4z M289.5,387.3c0.1,0,0.2,0,0.4,0c0,0,0.1,0,0.1,0
						c0,0,0.1,0,0.1,0c0,0,0,0,0.1,0c-0.2,0.1-0.3,0.2-0.5,0.2C289.6,387.4,289.5,387.3,289.5,387.3L289.5,387.3z M280.8,387.9
						c0-0.1,0-0.2,0.1-0.2c0.1-0.1,0.3-0.3,0.4-0.3c0.3-0.2,0.7-0.3,1.1-0.2c0.1,0,0.2,0,0.2,0c0.5,0.1,1,0.4,1.6,0.8
						c-0.3,0.2-0.6,0.4-0.9,0.6c-0.4,0.3-0.8,0.6-1,0.9c-0.2,0.2-0.4,0.4-0.5,0.6C281.3,389.5,281,388.8,280.8,387.9
						C280.8,388,280.8,388,280.8,387.9C280.8,387.9,280.8,387.9,280.8,387.9z M274.1,392.8c-0.1-0.1-0.1-0.1-0.2-0.2
						c0.1,0,0.1,0,0.2,0c0.1,0,0.1,0,0.2,0c0.1,0,0.1,0,0.2,0c0,0,0,0,0,0c0.1,0,0.3,0.1,0.5,0.2
						C274.7,392.9,274.4,392.8,274.1,392.8C274.1,392.8,274.1,392.8,274.1,392.8z M254.2,408.9c0.2-0.1,0.5-0.1,0.7,0
						c0.2,0,0.4,0.1,0.6,0.2c0.5,0.3,1.1,0.8,1.6,1.5c0.4,0.6,0.5,1.3,0.4,1.9c0,0.2-0.2,0.4-0.3,0.6c-0.1,0.1-0.1,0.2-0.2,0.2
						c-0.4,0.3-0.8,0.4-1.2,0.3c-0.2,0-0.4-0.1-0.6-0.1c-0.9-0.6-1.6-1.4-1.9-2.4c-0.2-0.6-0.3-1.1-0.2-1.5c0.1,0,0.1,0,0.2,0
						c0-0.1,0.1-0.3,0.1-0.4c0.1,0,0.2,0,0.3-0.1C253.8,409,254,409,254.2,408.9C254.2,408.9,254.2,408.9,254.2,408.9z"/>
				</g>
				<g id="path10_00000117667386447029869400000016797981839037527971_">
					<path class="st3" d="M311.1,441.9c0.1,0.2,0.2,0.2,0.3,0C311.3,441.7,311.2,441.7,311.1,441.9z"/>
				</g>
				<g id="path12_00000035517966925306083530000010607440610579466899_">
					<path class="st3" d="M325.8,429.5c-0.1,0.2,0.2,0.3,0.3,0.1C326.1,429.4,325.8,429.3,325.8,429.5z"/>
				</g>
				<g id="path14_00000052099845297212223850000002057063604239281797_">
					<path class="st3" d="M307.3,447.4c0.1,0.3,0.1,0.5,0.2,0.8c0.1-0.3,0.1-0.6,0.1-0.9C307.5,447.3,307.4,447.2,307.3,447.4
						C307.3,447.4,307.3,447.4,307.3,447.4z"/>
				</g>
				<g id="path16_00000008833071432976664710000012577027401911888315_">
					<path class="st3" d="M309.8,449c0,0.2,0.3,0.3,0.3,0.1C310.1,448.8,309.9,448.8,309.8,449z"/>
				</g>
				<g id="path18_00000175284515425166513520000018190209471340485045_">
					<path class="st3" d="M327.3,436.5c0,0.2,0.3,0.2,0.4,0C327.7,436.2,327.3,436.3,327.3,436.5z"/>
				</g>
				<g id="path24_00000170957138732542476990000002989763479997462428_">
					<path class="st4" d="M311.1,441.9c0.1-0.2,0.2-0.2,0.3,0C311.2,442.1,311.2,442.1,311.1,441.9z"/>
				</g>
				<g id="path26_00000088835326018987858500000007653607097102025906_">
					<path class="st4" d="M325.8,429.5c0.1-0.2,0.4-0.1,0.3,0.1C326,429.8,325.7,429.7,325.8,429.5z"/>
				</g>
				<g>
					<g>
						<path class="st7" d="M256,410.2c0.6,0.7,0.7,1.6,0.2,2.1c-0.4,0.5-1.3,0.4-1.9-0.3c-0.6-0.7-0.7-1.6-0.2-2.2
							C254.6,409.4,255.4,409.6,256,410.2z"/>
						<path class="st7" d="M259.4,403.6c0.6,0.7,0.6,1.6,0.1,2.1c-0.5,0.5-1.4,0.3-1.9-0.3c-0.6-0.7-0.6-1.6-0.1-2.1
							C258,402.8,258.8,403,259.4,403.6z"/>
						<path class="st7" d="M283.4,387.4c0.5,0.6,0.3,1.4-0.4,1.8c-0.7,0.4-1.6,0.2-2.1-0.4c-0.5-0.6-0.3-1.5,0.3-1.9
							C282,386.5,282.9,386.7,283.4,387.4z"/>
						<g>
							<path class="st7" d="M338.4,404.6c4.5-2.6,9.3-5.2,14.2-7.9c-2.2-3-4.4-6-6.7-9.1c-4.9,2.6-9.6,5.1-14.2,7.7
								c-0.4-0.5-0.7-0.9-1.1-1.4c3.6-1.9,7.3-3.9,11-5.8c-1-1.3-2-2.6-3-3.9c0.5,0.1,1.1,0.2,1.6,0.3c-2.6-3.7-5.4-7.5-8.1-11.4
								c-16.1,7.9-30.8,15.4-43.2,23.9c-0.7-0.4-1.4-0.9-2.2-1.3c-2.8,1.3-5.4,2.6-8,3.9c1.7,9.1,3.9,18,6.5,26.7
								c-8.5-8.3-21.3-11.4-28.8-5.5c0-0.1,0-0.2,0-0.3c0-0.6-0.2-1.2-0.5-1.8c-0.4-0.8-1-1.5-1.8-2c-0.6-0.4-1.3-0.5-1.9-0.4
								c-0.3-0.5-0.7-1-1.2-1.3c0-0.6-0.1-1.3-0.4-2c-0.1-0.2-0.2-0.4-0.3-0.6c-0.9-1.3-2.3-2.1-3.4-1.9c-1.1,0.2-1.7,1-2,1.4
								c-0.3,0.4-0.6,0.8-0.9,1.2c-0.3,0.4-0.5,0.8-0.6,1.5c-0.1,0.2,0,0.5,0,0.7c0,0.2,0.1,0.4,0.1,0.7c-0.2-0.1-0.4-0.2-0.6-0.2
								c-0.1,0-0.2-0.1-0.3-0.1c-0.5,0-0.9,0.2-1.2,0.6c-0.3,0.5-0.3,1.3-0.2,2.1c-0.7-0.1-1.3,0.2-1.7,0.8
								c-0.4,0.7-0.4,1.8-0.1,2.8c-0.7,0.2-1.2,0.6-1.6,1.2c-0.2,0.3-0.4,0.6-0.6,0.9c-0.4,0.8-0.6,1.8-0.7,2.9c0,0.1,0,0.3,0,0.5
								c0,1.1,0.1,3.1,1.4,5.2c0,0.1,0.1,0.1,0.1,0.2c1.1,1.8,2.8,2.7,3.8,2.1c0.3-0.1,0.5-0.4,0.7-0.7c0.3,0.2,0.5,0.5,0.8,0.7
								c1,1,2.1,1.6,3.1,1.8c0.9,0.2,1.5-0.2,1.9-0.9c0-0.1,0-0.1,0.1-0.2c0.2-0.5,0.5-1.9-1.2-4.4c0,0,0,0,0-0.1
								c-0.1-0.1-0.2-0.3-0.3-0.5c0.1,0.1,0.2,0.1,0.3,0.2c1,0.8,2.1,1.1,3,0.8c0.1-0.1,0.3-0.2,0.4-0.3c0.1-0.1,0.2-0.2,0.2-0.4
								c0.3-0.6,0.3-1.2,0.2-1.9c0.2,0,0.3-0.1,0.5-0.1c-2.3,11.2,6.2,27.3,16.1,35.9c10.7,9.4,18.6,8.4,23.5,0.5
								c6.2,6.4,11.7,12.4,16.3,18.2c1.4,1.8,2.7,3.7,3.9,5.5c-0.1-0.3-0.2-0.6-0.4-0.9c1.3,1.7,2.5,3.4,3.7,5.1
								c3.6-8.8,8.5-17,14.9-24.7c0.2,0.3,0.5,0.6,0.7,0.9c3.3-4,6.9-7.8,11-11.6c-2.5-3.8-5.3-7.6-8.3-11.6
								c-0.5-6.4-0.9-12.9-1.3-19.5c3.9,5.5,7.5,10.8,10.7,16c0.4-0.3,0.8-0.6,1.2-0.8c-0.4,0.6-0.3,2.1-0.3,2.1c0,1.5,2.7,4,2.7,4
								c3.3,1.7,8-1.2,8-1.2c5-3.4,6.2-7.2,6.2-7.2c-0.3-5.4-3.7-6.2-3.7-6.2c0.7-0.5,1.4-0.9,2.2-1.4c-1.2-2.7-2.6-5.4-4-8.2
								c-3-3.6-6.3-7.3-9.7-11.1C342.8,410.3,340.6,407.5,338.4,404.6z M242.6,425.3c0.4,1.1,0.5,2.2,0.1,2.9c0,0,0,0.1-0.1,0.1
								c1.1,1.5,2.4,2.7,3.4,4.2c0.2,0.3,0.4,0.6,0.5,0.9c0,0.1,0.1,0.2,0.1,0.2c0,0.1,0,0.2,0.1,0.3c0,0.2,0,0.3,0,0.4c0,0,0,0,0,0
								c-0.2,0.4-0.5,0.5-0.9,0.4c-0.6-0.1-1.3-0.5-2-1.2c-0.8-0.8-1.7-1.7-2.5-2.7c-0.1,0.5-0.1,1.1-0.3,1.5
								c-0.1,0.2-0.2,0.4-0.5,0.5c-0.4,0.2-1-0.1-1.4-0.8c0,0,0-0.1,0-0.1c-0.8-1.3-0.9-2.6-0.8-3.7c0,0,0,0,0,0
								c0.1-0.9,0.3-1.7,0.6-2.4c0.1-0.3,0.3-0.6,0.5-0.8c0.4-0.7,1.1-1,1.8-1C241.8,424.3,242.3,424.7,242.6,425.3z M250.5,425.2
								c0.4,0.7,0.5,1.4,0.2,1.8c-0.1,0.1-0.1,0.2-0.2,0.3c-0.4,0.2-0.9-0.1-1.3-0.4c-0.7-0.5-1.4-1.1-2.1-1.8
								c-0.1,0.1-0.2,0.3-0.4,0.4c0.7,0.8,1.5,1.6,2.1,2.6c0.4,0.6,0.6,1.3,0.3,1.8c0,0,0,0.1-0.1,0.1c-0.5,0.2-1.1,0-1.7-0.5
								c-2.2-1.6-4.2-4-6-6.6c0,0,0,0,0,0c-0.2-0.3-0.3-0.7-0.4-1c0-0.3,0-0.6,0.1-0.8c0.1-0.2,0.3-0.3,0.4-0.3c0,0,0.1,0,0.1,0
								c0.1,0,0.2,0,0.3,0.1c0.8,0.4,1.6,1.1,2.3,1.9c0.1-0.2,0.2-0.4,0.4-0.6c-0.3-0.9-1-1.7-1.5-2.6c-0.1-0.2-0.2-0.4-0.2-0.7
								c0-0.2,0-0.4,0-0.6c0,0,0,0,0-0.1c0-0.1,0.1-0.1,0.2-0.1c0.2,0,0.4,0.1,0.6,0.3c0,0,0,0,0,0c0.2,0.1,0.4,0.3,0.6,0.5
								c-0.1-0.1-0.1-0.1-0.2-0.2c0.8,0.7,1.7,1.3,2.5,2.1C248.2,422,249.6,423.4,250.5,425.2z M252.4,426.1c0-0.1,0-0.2,0-0.2
								c0,0,0.1,0,0.1,0C252.5,425.9,252.5,426,252.4,426.1z M254.4,419.3c0.1,0.2,0.2,0.5,0.2,0.7c-0.1,1-0.4,1.8-0.8,2.5
								c-0.1,0.2-0.3,0.4-0.4,0.5c-0.5,0.6-1.3,0.9-2.2,0.6c-0.4-0.2-0.9-0.4-1.3-0.8c-1.5-1.5-3.1-3.2-4.2-5.4
								c-0.3-0.5-0.4-1-0.5-1.5c-0.1-0.5,0.1-0.8,0.3-1.2c0.3-0.4,0.6-0.8,0.9-1.2c0.3-0.5,0.7-0.9,1.3-1c0.4-0.1,0.9,0.2,1.3,0.7
								c0.2,0.5,0.2,0.9,0,1.3c-0.2,0.5-0.4,0.9-0.7,1.3c-0.2,0.2-0.4,0.5-0.6,0.7c0.2,0.2,0.4,0.4,0.6,0.6c0.5-0.4,1-0.9,1.8-0.6
								c0.5,0.2,0.9,0.9,0.9,1.5c0,0,0,0.1,0,0.1c-0.1,0.5-0.3,0.9-0.5,1.3c-0.1,0.1-0.2,0.2-0.3,0.3c0.2,0.2,0.5,0.5,0.7,0.3
								c0.5-0.7,1.1-1.3,1.8-1.7C253.4,418.2,254.1,418.6,254.4,419.3z"/>
							<path class="st0" d="M239.6,419.3c0.4-0.6,1-0.9,1.7-0.8c-0.2-0.8-0.1-1.5,0.2-2.1c0.3-0.4,0.7-0.6,1.2-0.6
								c0.1,0,0.2,0,0.3,0.1c0.2,0,0.4,0.1,0.6,0.2c0-0.2-0.1-0.4-0.1-0.7c0-0.2,0-0.5,0-0.7c0.1-0.7,0.3-1.2,0.6-1.5
								c0.3-0.4,0.6-0.8,0.9-1.2c0.3-0.4,0.9-1.2,2-1.4c1.1-0.3,2.5,0.5,3.4,1.9c0.1,0.2,0.2,0.3,0.3,0.6c0.3,0.7,0.4,1.4,0.4,2
								c0.5,0.4,0.9,0.8,1.2,1.3c0.6-0.1,1.2,0.1,1.9,0.4c0.7,0.5,1.4,1.2,1.8,2c0.3,0.6,0.4,1.2,0.5,1.8c0,0.1,0,0.2,0,0.3
								c7.6-6,20.4-2.8,28.8,5.5c-2.5-8.7-4.7-17.6-6.5-26.7c2.6-1.3,5.3-2.7,8-3.9c0.7,0.4,1.4,0.9,2.2,1.3
								c12.4-8.5,27.1-16,43.2-23.9c2.7,3.9,5.5,7.7,8.1,11.4c-0.5-0.1-1.1-0.2-1.6-0.3c1,1.3,2,2.6,3,3.9c-3.8,1.9-7.5,3.9-11,5.8
								c0.4,0.5,0.7,0.9,1.1,1.4c4.6-2.6,9.3-5.1,14.2-7.7c2.3,3.1,4.6,6.1,6.7,9.1c-4.9,2.6-9.6,5.2-14.2,7.9
								c2.2,2.9,4.4,5.8,6.4,8.6c3.4,3.8,6.7,7.5,9.7,11.1c1.4,2.8,2.7,5.5,4,8.2c-0.7,0.5-1.4,0.9-2.2,1.4c0,0,3.5,0.8,3.7,6.2
								c0,0-1.1,3.5-5.6,6.8c-0.2,0.1-0.4,0.3-0.6,0.4c0,0-4.7,2.9-8,1.2c0,0-2.7-2.5-2.7-4c0,0-0.1-1.5,0.3-2.1
								c-0.4,0.3-0.8,0.6-1.2,0.8c-3.2-5.1-6.8-10.5-10.7-16c0.4,6.6,0.9,13,1.3,19.5c3.1,4,5.8,7.8,8.3,11.6
								c-4,3.7-7.7,7.6-11,11.6c-0.2-0.3-0.4-0.6-0.7-0.9c-6.4,7.7-11.3,16-14.9,24.7c-1.2-1.7-2.4-3.4-3.7-5.1
								c0.1,0.3,0.2,0.6,0.4,0.9c-1.2-1.8-2.5-3.6-3.9-5.5c-4.6-5.8-10.1-11.8-16.3-18.2c-4.9,7.9-12.8,8.9-23.5-0.5
								c-9.9-8.7-18.4-24.8-16.1-35.9c-0.2,0.1-0.3,0.1-0.5,0.1c0.1,0.7,0,1.4-0.2,1.9c-0.1,0.1-0.1,0.3-0.2,0.4
								c-0.1,0.1-0.3,0.2-0.4,0.3c-0.9,0.3-2,0-3-0.8c-0.1-0.1-0.2-0.1-0.3-0.2c0.1,0.2,0.2,0.3,0.3,0.5c0,0.1,0,0.1,0,0.1
								c1.7,2.5,1.4,3.9,1.2,4.4c0,0,0,0.1-0.1,0.2c-0.4,0.7-1,1.1-1.9,0.9c-1-0.2-2.1-0.8-3.1-1.8c-0.3-0.2-0.5-0.5-0.8-0.7
								c-0.2,0.3-0.4,0.6-0.7,0.7c-1,0.6-2.7-0.3-3.8-2.1c0-0.1-0.1-0.1-0.1-0.2c-1.3-2.2-1.4-4.2-1.4-5.2c0-0.2,0-0.3,0-0.5
								c0.1-1.1,0.4-2.1,0.7-2.9c0.2-0.4,0.3-0.6,0.6-0.9c0.4-0.6,0.9-1,1.6-1.2C239.2,421,239.3,420,239.6,419.3 M241.5,422.9
								C241.5,422.8,241.5,422.8,241.5,422.9c1.8,2.5,3.7,5,6,6.6c0.6,0.5,1.2,0.6,1.7,0.5c0.1,0,0.1-0.1,0.1-0.1
								c0.2-0.5,0.1-1.2-0.3-1.8c-0.7-0.9-1.4-1.8-2.1-2.6c0.1-0.1,0.2-0.3,0.4-0.4c0.7,0.7,1.4,1.3,2.1,1.8
								c0.4,0.3,0.9,0.6,1.3,0.4c0.1-0.1,0.2-0.2,0.2-0.3c0.2-0.4,0.2-1.1-0.2-1.8c-0.9-1.8-2.3-3.1-3.6-4.5
								c-0.8-0.7-1.6-1.4-2.5-2.1c0.1,0.1,0.1,0.2,0.2,0.2c-0.2-0.2-0.4-0.4-0.6-0.5c0,0,0,0,0,0c-0.2-0.1-0.4-0.2-0.6-0.3
								c-0.1,0-0.2,0.1-0.2,0.1c0,0,0,0,0,0.1c0,0.1-0.1,0.3,0,0.6c0,0.2,0.1,0.5,0.2,0.7c0.5,0.9,1.2,1.7,1.5,2.6
								c-0.1,0.2-0.2,0.4-0.4,0.6c-0.7-0.8-1.5-1.5-2.3-1.9c-0.1-0.1-0.2-0.1-0.3-0.1c0,0-0.1,0-0.1,0c-0.2,0-0.3,0.2-0.4,0.3
								c-0.1,0.2-0.2,0.5-0.1,0.8C241.2,422.2,241.3,422.5,241.5,422.9 M241.2,432.5c0.2-0.4,0.2-1.1,0.3-1.5c0.8,1,1.6,1.9,2.5,2.7
								c0.7,0.7,1.3,1.1,2,1.2c0.4,0.1,0.7,0,0.9-0.4c0,0,0,0,0,0c0.1-0.1,0-0.3,0-0.4c0-0.1,0-0.2-0.1-0.3c0-0.1,0-0.2-0.1-0.2
								c-0.1-0.3-0.3-0.7-0.5-0.9c-1-1.5-2.4-2.6-3.4-4.2c0,0,0-0.1,0.1-0.1c0.3-0.7,0.3-1.8-0.1-2.9c-0.3-0.6-0.8-1-1.3-1.1
								c-0.8,0-1.4,0.3-1.8,1c-0.2,0.2-0.3,0.5-0.5,0.8c-0.3,0.7-0.5,1.5-0.6,2.4c0,0,0,0,0,0c0,1.1,0,2.4,0.8,3.7c0,0,0,0.1,0,0.1
								c0.4,0.7,1.1,1,1.4,0.8C240.9,432.9,241.1,432.7,241.2,432.5 M253.8,422.5c0.4-0.7,0.7-1.5,0.8-2.5c0-0.2-0.1-0.5-0.2-0.7
								c-0.3-0.7-1-1.1-1.5-0.9c-0.7,0.4-1.3,1-1.8,1.7c-0.2,0.2-0.5-0.2-0.7-0.3c0.1-0.1,0.2-0.2,0.3-0.3c0.2-0.4,0.4-0.8,0.5-1.3
								c0-0.1,0-0.1,0-0.1c0-0.6-0.4-1.3-0.9-1.5c-0.8-0.3-1.3,0.3-1.8,0.6c-0.2-0.2-0.4-0.4-0.6-0.6c0.2-0.2,0.4-0.5,0.6-0.7
								c0.3-0.4,0.5-0.8,0.7-1.3c0.2-0.3,0.2-0.8,0-1.3c-0.4-0.5-0.9-0.8-1.3-0.7c-0.6,0.1-1,0.5-1.3,1c-0.3,0.4-0.6,0.8-0.9,1.2
								c-0.2,0.3-0.4,0.6-0.3,1.2c0.1,0.5,0.2,1,0.5,1.5c1,2.1,2.6,3.8,4.2,5.4c0.4,0.3,0.8,0.6,1.3,0.8c0.9,0.2,1.7,0,2.2-0.6
								C253.5,422.9,253.7,422.7,253.8,422.5 M252.4,426.1c0-0.1,0.1-0.1,0.1-0.2c0,0-0.1,0-0.1,0
								C252.4,425.9,252.4,426,252.4,426.1 M236.9,416.3c-0.4,0.7-0.6,1.7-0.6,2.7c-0.4,0.3-0.7,0.6-1,1c-0.3,0.4-0.5,0.8-0.7,1.2
								c-0.5,1-0.8,2.2-1,3.6c0,0.4,0,0.7,0,1c0,2.9,0.9,5.7,2.5,8.3c0.1,0.1,0.2,0.2,0.2,0.4c2.3,3.5,5.5,5.3,7.5,4.4
								c1.2,0.9,2.5,1.5,3.7,1.7c0.7,0.2,1.4,0.1,2-0.2c2.9,10.4,10.1,20.8,17.6,27.4c11.1,9.6,19.2,9.2,24.6,1.8
								c5.6,5.8,10.6,11.2,14.8,16.6c1.3,1.8,2.6,3.6,3.8,5.4c0.2,0.4,0.5,0.6,0.8,0.6c0.9,1.2,1.7,2.4,2.5,3.6
								c0.6,0.9,1.5,0.7,2-0.5c0,0,0,0,0,0c3.3-8.1,7.8-15.8,13.5-23c0.6,0.2,1.4-0.1,2-0.8c0,0,0,0,0,0c3.3-4,6.9-7.9,10.9-11.6
								c0.5-0.5,0.9-1.1,1.1-1.8c0.2-0.7,0.1-1.3-0.2-1.7c-2.4-3.6-5-7.3-7.9-11.1c-0.1-2.7-0.3-5.5-0.4-8.2
								c1.8,2.6,3.5,5.2,5.1,7.8c0.2,0.3,0.4,0.5,0.7,0.6c0.2,2,2.1,4,3.3,5c0.1,0.1,0.2,0.2,0.3,0.2c4.2,2.2,10-1.4,10.3-1.6
								c0.1,0,0.1-0.1,0.2-0.1c0.2-0.2,0.5-0.3,0.7-0.5c4.5-3.3,6.8-7.1,7.3-8.8c0.1-0.2,0.1-0.5,0.1-0.7c-0.1-2.9-1-4.7-2.1-5.9
								c0.6-0.7,0.8-1.6,0.5-2.2c-1.2-2.7-2.5-5.4-3.9-8.1c-0.1-0.1-0.1-0.2-0.2-0.3c-3-3.6-6.2-7.2-9.6-11
								c-1.6-2.1-3.2-4.3-4.8-6.5c3.6-2.1,7.4-4.2,11.3-6.2c1.7-0.9,2.5-2.5,1.7-3.6c-2.1-3-4.4-6-6.6-9.1c-0.4-0.5-1.1-0.9-2-1
								c-0.9-0.1-1.8,0.1-2.7,0.5c0,0-0.1,0-0.1,0c0,0-0.1,0-0.1,0.1c-0.2-0.3-0.4-0.5-0.6-0.8c0.3-0.7,0.3-1.4-0.1-2
								c-2.6-3.7-5.3-7.4-8-11.3c-0.4-0.6-1.2-1-2.1-1.1c-0.9-0.1-1.9,0-2.8,0.4c0,0-0.1,0-0.1,0c-15.4,7.5-29.6,14.5-41.8,22.4
								c-0.1,0-0.1-0.1-0.2-0.1c-1-0.6-2.3-0.7-3.4-0.3c-2.8,1.3-5.5,2.5-8.1,3.9c-0.1,0.1-0.2,0.1-0.3,0.2c-0.9,0.6-1.3,1.7-1,2.8
								c1.3,6.5,2.9,12.9,4.6,19.1c-7.4-4.5-16.3-6.1-23-3c-0.7-0.9-1.5-1.6-2.4-2.2c-0.4-0.3-0.8-0.5-1.2-0.6
								c-0.1-0.2-0.2-0.5-0.3-0.7c-0.2-0.5-0.5-1-0.8-1.5c-1.8-2.7-4.6-4.4-7-4c-1.8,0.2-2.8,1.5-3.2,2c-0.3,0.4-0.6,0.8-0.9,1.2
								c-0.3,0.5-0.7,1.1-0.9,2c-0.7,0.2-1.3,0.6-1.7,1.3c-0.3,0.4-0.5,1-0.6,1.6C237.7,415.3,237.3,415.7,236.9,416.3
								C236.9,416.3,236.9,416.3,236.9,416.3z"/>
						</g>
						<g>
							<path class="st7" d="M254.8,417.2c1.6,0.7,3.2,0.6,4.4-0.3c0.3-0.2,0.5-0.4,0.7-0.7c0.4-0.5,0.8-1.1,1-1.9c0,0,0-0.1,0-0.1
								c0-0.3,0.1-0.5,0.1-0.7c0.3,0.1,0.7,0.2,1,0.3c0,0,0,0,0.1,0c0.1,0,0.2,0,0.3,0c0.6,0,1.2-0.2,1.6-0.7
								c0.5-0.5,0.7-1.3,0.6-2.2c0.1,0,0.3,0,0.4,0c0,0,0,0,0.1,0c0.2-0.1,0.5-0.2,0.7-0.3c0.2-0.1,0.3-0.2,0.4-0.3
								c0.4-0.4,0.7-1,0.7-1.6c0.2,0,0.3,0,0.5,0c0.1,0,0.1,0,0.2,0c0.3-0.1,0.7-0.3,0.9-0.5c0.6-0.6,0.9-1.5,0.7-2.4
								c0-0.2-0.1-0.3-0.1-0.5c1.2,0.1,2.4-0.2,3.3-0.9c0.6-0.5,1-1.2,1.3-1.9c0,0,0-0.1,0-0.1c0.1-0.2,0.1-0.3,0.1-0.5
								c0.7,0.1,1.4-0.1,1.9-0.5c0.2-0.2,0.4-0.4,0.6-0.6c0,0,0,0,0-0.1c0.2-0.3,0.3-0.5,0.3-0.8c0.2,0,0.5,0,0.7,0c0,0,0.1,0,0.2,0
								c0.4-0.1,0.8-0.2,1.2-0.4c0.6-0.4,0.9-1.1,1-1.9c0.4,0,0.9,0,1.3-0.1c0.1,0,0.2,0,0.2,0c0.3-0.1,0.5-0.2,0.8-0.4
								c0.6-0.4,0.9-0.9,1.1-1.5c0-0.1,0-0.1,0-0.2c0,0,0,0,0,0c0.3,0,0.5,0,0.8,0c0.4-0.1,0.8-0.2,1.1-0.4c0.5-0.3,0.9-0.9,1.1-1.5
								c0,0,0.1,0,0.1,0c0.6,0.2,1.4,0.2,2.3-0.4c0.3-0.2,0.5-0.3,0.7-0.5c0.1-0.1,0.3-0.3,0.4-0.4c0.2-0.3,0.3-0.7,0.4-1
								c0,0,0,0,0.1,0c0.1,0,0.2,0,0.3-0.1c0.7-0.2,1.4-0.5,2-0.9c1.3-0.7,2.4-1.8,3.1-3c0.1-0.2,0.1-0.3,0.2-0.4
								c0-0.2,0.1-0.4,0.1-0.5c0.1-1.6-1.4-2.9-3.3-3.1c0,0,0,0,0,0c-0.9,0-1.6,0.2-2.1,0.4c-0.1-0.2-0.3-0.5-0.5-0.8
								c-0.8-1.2-2.4-1.8-3.9-1.6c-0.4,0-1,0.2-1.6,0.5c-0.9,0.5-1.4,1.3-1.4,2.2c-0.2,0-0.4-0.1-0.5-0.1c0,0,0,0,0,0
								c-1.2-0.1-2.4,0.1-3.4,0.7c-0.5,0.3-0.9,0.6-1.2,1c-0.4,0.5-0.7,1.1-0.9,1.8c-0.2-0.1-0.4-0.2-0.6-0.3
								c-0.6-0.2-1.3-0.2-1.8,0.1c0,0-0.1,0-0.1,0.1c0,0,0,0-0.1,0c-0.1,0-0.1,0.1-0.2,0.1c-0.9,0.5-1.1,1.3-1.1,1.8
								c-1.1-0.1-2,0.1-2.8,0.6c-0.3,0.2-0.5,0.3-0.7,0.6c0,0,0,0.1-0.1,0.1c-0.1,0.1-0.2,0.2-0.2,0.4c-0.7-0.1-1.3,0.1-1.8,0.5
								c-0.4,0.3-0.7,0.6-0.8,1.1c-0.1,0.2-0.1,0.4-0.2,0.7c0,0.2,0,0.4,0,0.6c-0.2,0-0.3,0-0.4,0c-0.9,0-1.7,0.3-2.4,0.8
								c-0.8,0.6-1.4,1.6-1.5,2.7c-1-0.5-2.1-0.4-2.9,0.3c-0.3,0.2-0.5,0.5-0.7,0.8c-0.1,0.2-0.1,0.3-0.1,0.5
								c-0.1,0.3-0.1,0.7-0.1,1c-1.2-0.2-2.4,0.1-3.2,0.9c-0.2,0.2-0.4,0.3-0.5,0.5c-0.4,0.4-1.2,1.1-1.3,2.4
								c-0.1,0.2-0.1,0.5-0.1,0.8c0,0.3,0.1,0.6,0.2,0.8c-0.4,0-0.9,0.1-1.2,0.2c-0.1,0-0.2,0-0.3,0.1c-0.4,0.1-1.1,0.2-1.6,0.7
								c0,0,0,0,0,0c-0.1,0.1-0.1,0.1-0.2,0.1c-0.1,0.1-0.1,0.2-0.2,0.3c-0.8,1.4-0.7,3.5,0,5.4c0.9,2.1,2.3,3.9,4,5.1
								c0.2,0.1,0.4,0.2,0.5,0.3C254.7,417.1,254.8,417.1,254.8,417.2z M286,385.5c-0.4-0.5-0.7-1.1-0.9-1.6c0,0,0,0,0,0
								c-0.1-0.4,0.2-0.7,0.5-0.9c0.3-0.2,0.7-0.2,0.9-0.3c0.7-0.1,1.4,0.2,1.8,0.8c0.6,0.6,0.7,1.4,1.3,2.1c0,0,0.1,0,0.2,0
								c1-0.2,1.8-0.9,2.9-0.9c0.8,0,1.4,0.6,1.4,1.2c0,0.1,0,0.2,0,0.2c-0.6,1-1.5,1.8-2.5,2.3c-0.5,0.3-1,0.5-1.6,0.7
								c-0.5,0.1-1.1-0.1-1.5-0.5C287.4,387.7,286.6,386.7,286,385.5z M278.9,388.3c-0.1-0.6,0-1.2,0.4-1.7c0.2-0.3,0.5-0.5,0.8-0.7
								c0.6-0.4,1.4-0.5,2.2-0.5c1.6,0.1,3,1.2,4,2.2c0.6,0.7,1.1,1.3,1.6,2c0.3,0.4,0.3,1,0.1,1.4c-0.1,0.1-0.3,0.2-0.4,0.3
								c-0.2,0.1-0.5,0.2-0.8,0.1c-0.9-0.1-1.6-1-2.2-1.6c-0.3,0.2-0.6,0.4-0.8,0.7c0.2,0.5,0.5,1,0.7,1.6c0,0.2,0,0.4,0,0.6
								c-0.1,0.2-0.2,0.3-0.4,0.4c-0.1,0.1-0.3,0.1-0.4,0.1c-0.1,0-0.2,0-0.3,0c-0.7-0.1-1.3-0.4-1.8-0.9
								C280.2,391.4,279.3,389.9,278.9,388.3C279,388.2,278.9,388.3,278.9,388.3z M272.2,393.1c-0.4-0.5-0.7-1-0.9-1.6
								c0.1-0.1,0.3-0.3,0.4-0.3c0.8-0.5,1.9-0.5,2.9-0.2c0.7,0.1,1.3,0.5,2,0.7c-0.5-0.8-1.3-1.5-1.3-2.4c0-0.3,0.1-0.4,0.3-0.5
								c0.1-0.1,0.2-0.1,0.3-0.2c0.7,0.3,1.4,0.7,1.9,1.2c1.1,1.1,2.1,2.2,2.9,3.4c0.4,0.5,0.7,1.1,0.7,1.7c0,0.1,0,0.2-0.1,0.3
								c0,0,0,0,0,0.1c-0.1,0-0.1,0.1-0.2,0.2c0,0-0.1,0.1-0.1,0.1c-0.1,0.1-0.2,0.1-0.3,0.1c-0.8,0.1-1.6,0.1-2.4-0.1
								c-0.6-0.1-1.2-0.6-1.8-0.6c0.5,0.8,1.2,1.4,1.4,2.3c0,0.1,0,0.2-0.1,0.3c0,0.1-0.1,0.2-0.1,0.2c0,0,0,0-0.1,0.1
								c0,0-0.1,0.1-0.1,0.1c-0.1,0.1-0.3,0.1-0.4,0.1c-0.7,0-1.5-0.3-1.9-1C274.2,395.7,273.2,394.4,272.2,393.1z M269.1,394.7
								c-0.4-0.5-0.6-1.1-0.6-1.6c0,0,0,0,0,0c0.1-0.2,0.2-0.3,0.3-0.4c0.1-0.1,0.3-0.1,0.4-0.2c0,0,0.1,0,0.2,0
								c0.1,0,0.3,0,0.4,0.1c0.2,0.1,0.4,0.2,0.5,0.4c1.4,1.7,2.8,3.5,4.1,5.2c0.2,0.4,0.6,0.9,0.3,1.4c-0.1,0.1-0.1,0.2-0.2,0.2
								c-0.6,0.5-1.8-0.1-2.3-0.8C271.2,397.6,270.2,396.1,269.1,394.7z M264.3,398.6C264.3,398.6,264.3,398.7,264.3,398.6
								c-0.3-1.2,0.1-2.3,0.9-2.9c0.4-0.3,0.9-0.5,1.5-0.5c0.1,0,0.2,0,0.3,0c0.7,0.1,1.3,0.7,1.4,1.4c0,0.9-0.9,1.2-1.3,1.9
								c-0.5,0.9,0.8,2.5,1.8,2c0-0.1,0.1-0.2,0.1-0.3c-0.3-0.1-0.7,0-0.9-0.4c-0.4-0.5-0.2-1.1,0.2-1.4c0.1-0.1,0.2-0.1,0.3-0.2
								c0.5-0.4,1.3-0.4,1.9-0.1c1,0.9,1.8,2.3,1.5,3.5c-0.2,0.5-0.5,0.9-0.8,1.2c-0.4,0.3-0.8,0.5-1.3,0.6c-0.5,0.1-1.1,0-1.6-0.1
								C266.4,402.4,264.8,400.7,264.3,398.6z M260.8,400.7c-0.4-0.5-0.5-1.2-0.3-1.7c0.1-0.1,0.1-0.3,0.2-0.3c0.4-0.3,1-0.3,1.5,0
								c0.1,0.1,0.2,0.2,0.3,0.3c1.2,1.4,2.3,2.9,3.5,4.3c0.6,0.8,1.3,1.5,1.3,2.4c0,0.2,0,0.3,0,0.5c0,0.2-0.1,0.3-0.2,0.4
								c0,0-0.1,0.1-0.1,0.1c0,0-0.1,0.1-0.1,0.1c-0.8,0.1-1.5-0.3-2-1C263.4,404.2,262.1,402.5,260.8,400.7z M257,407.3
								c-0.7-1-1.7-1.9-1.9-3.1c0,0,0,0,0,0.1c0-0.7,0.3-1.2,0.7-1.6c0.1-0.1,0.1-0.2,0.2-0.3c0.1-0.1,0.3-0.3,0.4-0.4c0,0,0,0,0,0
								c0,0,0,0,0.1-0.1c0.4-0.4,0.9-0.6,1.5-0.6c0.2,0,0.4,0,0.6,0c0.9,0.2,1.9,0.7,2.4,1.6c0.5,0.7,0.7,1.6,0.5,2.3
								c1.1,0.5,2.2,0.8,3.1,1.8c0.1,0.2,0.1,0.3,0.2,0.4c0,0.1,0.1,0.3,0,0.4c0,0.3-0.1,0.5-0.3,0.7c-0.1,0.1-0.1,0.1-0.2,0.1
								c-0.1,0.1-0.2,0.1-0.3,0.1c-0.9,0.1-1.9,0-2.9-0.3c0.6,0.6,1.1,1.3,1.3,2c0.1,0.4,0,0.7-0.2,0.9c-0.1,0.1-0.3,0.2-0.6,0.2
								c0,0-0.1,0-0.1,0c-0.5-0.1-1-0.3-1.4-0.7C259.2,410,258.1,408.7,257,407.3z M251.7,411.3c-0.6-1.3-0.6-2.7,0-3.6
								c0,0,0,0,0.1,0c0-0.1,0.1-0.1,0.1-0.2c0.1-0.1,0.3-0.2,0.5-0.3c0.2-0.1,0.3-0.1,0.5-0.1c0.1,0,0.2-0.1,0.3-0.1
								c0.8-0.3,1.7-0.2,2.5,0.2c1,0.5,1.9,1.4,2.6,2.5c0.7,1.2,1,2.5,0.8,3.6c-0.1,0.5-0.3,0.9-0.6,1.3c-0.1,0.2-0.3,0.3-0.5,0.4
								c-0.8,0.6-2,0.7-3.1,0.2C253.6,414.4,252.4,413,251.7,411.3z"/>
						</g>
						<g>
							<path id="path2_00000093885631280969508990000001250335318679567489_" class="st3" d="M246.9,420.6c-0.8-0.7-1.6-1.4-2.5-2.1
								c0.1,0.2,0.2,0.3,0.3,0.5c-0.1-0.1-0.1-0.1-0.2-0.2c-0.2-0.2-0.4-0.4-0.6-0.5c0,0,0,0,0,0c-0.2-0.1-0.4-0.2-0.6-0.3
								c-0.1,0-0.2,0.1-0.2,0.1c0,0,0,0,0,0.1c0,0.1-0.1,0.3,0,0.6c0,0.2,0.1,0.5,0.2,0.7c0.5,0.9,1.2,1.7,1.5,2.6
								c-0.1,0.2-0.2,0.4-0.4,0.6c-0.7-0.8-1.5-1.5-2.3-1.9c-0.1-0.1-0.2-0.1-0.3-0.1c0,0-0.1,0-0.1,0c-0.2,0-0.3,0.2-0.4,0.3
								c-0.1,0.2-0.2,0.5-0.1,0.8c0,0.3,0.1,0.7,0.4,1c0,0,0,0,0,0c1.7,2.6,3.7,5,6,6.6c0.6,0.5,1.2,0.6,1.7,0.5
								c0.1,0,0.1-0.1,0.1-0.1c0.2-0.5,0.1-1.2-0.3-1.8c-0.7-0.9-1.4-1.8-2.1-2.6c0.1-0.1,0.2-0.3,0.4-0.4c0.7,0.7,1.4,1.3,2.1,1.8
								c0.4,0.3,0.9,0.6,1.3,0.4c0.1-0.1,0.2-0.2,0.2-0.3c0.2-0.4,0.2-1.1-0.2-1.8C249.6,423.4,248.2,422,246.9,420.6z M261.8,405.4
								c0.2-0.7,0-1.6-0.5-2.3c-0.6-0.9-1.5-1.5-2.4-1.6c-0.2,0-0.4-0.1-0.6,0c-0.6,0-1.1,0.2-1.5,0.6c0,0,0,0-0.1,0.1c0,0,0,0,0,0
								c-0.2,0.2-0.5,0.4-0.7,0.7c-0.4,0.4-0.7,0.9-0.7,1.6c0,0,0,0,0-0.1c0.1,1.2,1.2,2.1,1.9,3.1c1,1.4,2.2,2.7,3.4,3.8
								c0.4,0.4,0.9,0.6,1.4,0.7c0,0,0.1,0,0.1,0c0.2,0,0.4-0.1,0.6-0.2c0.2-0.2,0.3-0.5,0.2-0.9c-0.2-0.8-0.7-1.5-1.3-2
								c1,0.4,1.9,0.5,2.9,0.3c0.1,0,0.2,0,0.3-0.1c0.1,0,0.1-0.1,0.2-0.1c0.2-0.2,0.3-0.4,0.3-0.7c0-0.2,0-0.3,0-0.4
								c-0.1-0.1-0.1-0.3-0.2-0.4C264,406.1,262.8,405.8,261.8,405.4z M259,405.4c-0.1,0.1-0.3,0.2-0.5,0c-0.2-0.1-0.3-0.4-0.5-0.6
								c0,0,0,0,0,0c0.1-0.2,0.3-0.5,0.6-0.5c0,0,0.1,0,0.2,0c0.1,0,0.1,0.1,0.2,0.1C259.2,404.8,259.2,405.2,259,405.4z
								 M241.3,424.2c-0.8,0-1.4,0.3-1.8,1c-0.2,0.2-0.3,0.5-0.5,0.8c-0.3,0.7-0.5,1.5-0.6,2.4c0,0,0,0,0,0c0,1.1,0,2.4,0.8,3.7
								c0,0,0,0.1,0,0.1c0.4,0.7,1.1,1,1.4,0.8c0.2-0.1,0.4-0.3,0.5-0.5c0.2-0.4,0.2-1.1,0.3-1.5c0.8,1,1.6,1.9,2.5,2.7
								c0.7,0.7,1.3,1.1,2,1.2c0.4,0.1,0.7,0,0.9-0.4c0.1-0.1,0.1-0.3,0.1-0.5c0-0.1,0-0.2-0.1-0.3c0-0.1,0-0.2-0.1-0.2
								c-0.1-0.3-0.3-0.6-0.5-0.9c-1-1.5-2.4-2.6-3.4-4.2c0,0,0-0.1,0.1-0.1c0.3-0.7,0.3-1.8-0.1-2.9
								C242.3,424.7,241.8,424.3,241.3,424.2z M252.9,418.4c-0.7,0.4-1.3,1-1.8,1.7c-0.2,0.2-0.5-0.2-0.7-0.3
								c0.1-0.1,0.2-0.2,0.3-0.3c0.2-0.4,0.4-0.8,0.5-1.3c0-0.1,0-0.1,0-0.1c0-0.6-0.4-1.3-0.9-1.5c-0.8-0.3-1.3,0.3-1.8,0.6
								c-0.2-0.2-0.4-0.4-0.6-0.6c0.2-0.2,0.4-0.5,0.6-0.7c0.3-0.4,0.5-0.8,0.7-1.3c0.2-0.3,0.2-0.8,0-1.3c-0.4-0.5-0.9-0.8-1.3-0.7
								c-0.6,0.1-1,0.5-1.3,1c-0.3,0.4-0.6,0.8-0.9,1.2c-0.2,0.3-0.4,0.6-0.3,1.2c0.1,0.5,0.2,1,0.5,1.5c1,2.1,2.6,3.8,4.2,5.4
								c0.4,0.3,0.8,0.6,1.3,0.8c0.9,0.2,1.7,0,2.2-0.6c0.1-0.2,0.3-0.3,0.4-0.5c0.4-0.7,0.7-1.5,0.8-2.5c0-0.2-0.1-0.5-0.2-0.7
								C254.1,418.6,253.4,418.2,252.9,418.4z M262.6,399c-0.1-0.1-0.2-0.2-0.3-0.3c-0.5-0.3-1.1-0.4-1.5,0
								c-0.1,0.1-0.2,0.2-0.2,0.3c-0.2,0.5-0.1,1.2,0.3,1.7c1.3,1.8,2.6,3.4,4,5c0.5,0.7,1.3,1.1,2,1c0.1,0,0.1-0.1,0.1-0.1
								c0.1,0,0.1,0,0.1-0.1c0.1-0.1,0.2-0.2,0.2-0.4c0-0.1,0.1-0.3,0-0.5c-0.1-0.9-0.8-1.7-1.3-2.4
								C264.9,401.9,263.8,400.4,262.6,399z M255.8,407.3c-0.9-0.4-1.8-0.5-2.5-0.2c-0.1,0.1-0.2,0.1-0.3,0.1
								c-0.2,0-0.4,0.1-0.5,0.1c-0.2,0.1-0.4,0.2-0.6,0.5c0,0,0,0-0.1,0c-0.5,0.9-0.5,2.3,0,3.6c0.6,1.7,1.8,3.1,3.2,3.9
								c1.2,0.5,2.3,0.4,3.1-0.2c0.2-0.1,0.3-0.3,0.5-0.4c0.3-0.4,0.5-0.8,0.6-1.3c0.2-1.1-0.1-2.5-0.8-3.6
								C257.7,408.7,256.8,407.8,255.8,407.3z M256,411.9c-0.4,0-0.8,0.1-1.2-0.3c0,0,0-0.1-0.1-0.1c0,0-0.1-0.1-0.1-0.2
								c-0.1-0.1-0.1-0.3-0.1-0.4c0-0.1,0-0.2,0.1-0.3c0,0,0,0,0,0c0,0,0.1-0.1,0.1-0.1c0,0,0,0,0.1-0.1c0.3-0.3,0.9,0,1.2,0.4
								C256.1,411.2,256,411.5,256,411.9z M269.9,392.5c-0.2-0.1-0.3-0.1-0.4-0.1c-0.1,0-0.1,0-0.2,0c-0.1,0-0.3,0.1-0.4,0.2
								c-0.1,0.1-0.3,0.3-0.3,0.4c0,0,0,0,0,0c0,0.6,0.2,1.1,0.6,1.6c1,1.4,2,2.9,3.2,4.2c0.5,0.7,1.7,1.2,2.3,0.8
								c0.1-0.1,0.1-0.1,0.2-0.2c0.3-0.4-0.1-1-0.3-1.4c-1.3-1.8-2.7-3.5-4.1-5.2C270.3,392.7,270.1,392.6,269.9,392.5z
								 M277.7,389.7c-0.6-0.5-1.2-1-1.9-1.2c-0.1,0.1-0.2,0.1-0.3,0.2c-0.2,0.1-0.3,0.3-0.3,0.5c0,0.9,0.8,1.7,1.3,2.4
								c-0.7-0.1-1.3-0.6-2-0.7c-1-0.3-2.1-0.3-2.9,0.2c-0.1,0.1-0.3,0.2-0.4,0.3c0.2,0.6,0.5,1.1,0.9,1.6c1,1.3,2.1,2.6,3.1,3.9
								c0.5,0.6,1.2,1,1.9,1c0.3,0,0.5-0.2,0.6-0.4c0,0,0.1-0.1,0.1-0.1c0-0.1,0.1-0.2,0.1-0.3c-0.2-0.9-0.9-1.5-1.4-2.3
								c0.6,0.1,1.2,0.5,1.8,0.6c0.8,0.2,1.6,0.3,2.4,0.1c0.2-0.1,0.4-0.2,0.5-0.4c0.1-0.1,0.1-0.2,0.2-0.3c0-0.6-0.3-1.2-0.7-1.7
								C279.8,391.9,278.8,390.8,277.7,389.7z M270.5,398c-0.6-0.4-1.4-0.3-1.9,0.1c-0.1,0.1-0.2,0.1-0.3,0.2
								c-0.4,0.3-0.7,0.9-0.2,1.4c0.2,0.4,0.6,0.4,0.9,0.4c0,0.1-0.1,0.2-0.1,0.3c-1,0.4-2.2-1.1-1.8-2c0.4-0.7,1.3-1,1.3-1.9
								c-0.1-0.7-0.7-1.3-1.4-1.4c-0.1,0-0.2,0-0.3,0c-0.6,0-1.1,0.2-1.5,0.5c-0.8,0.6-1.2,1.7-0.9,2.9c0,0,0,0,0,0
								c0.5,2,2.1,3.8,4,4.5c0.5,0.2,1.1,0.2,1.6,0.1c1-0.1,1.8-0.8,2.2-1.8C272.4,400.3,271.6,398.9,270.5,398z M282.4,385.4
								c-0.8-0.1-1.6,0.1-2.2,0.5c-0.3,0.2-0.6,0.4-0.8,0.7c-0.4,0.5-0.6,1.1-0.4,1.7c0,0,0,0,0,0c0.4,1.6,1.3,3.1,2.5,4.3
								c0.5,0.5,1.2,0.8,1.8,0.9c0.1,0,0.2,0,0.3,0c0.1,0,0.3-0.1,0.4-0.1c0.2-0.1,0.3-0.3,0.4-0.4c0-0.2,0.1-0.4,0-0.6
								c-0.2-0.6-0.4-1.1-0.7-1.6c0.2-0.2,0.5-0.5,0.8-0.7c0.6,0.6,1.3,1.4,2.2,1.6c0.3,0.1,0.6,0,0.8-0.1c0.2-0.1,0.3-0.2,0.4-0.3
								c0.3-0.4,0.2-0.9-0.1-1.4c-0.5-0.7-1-1.4-1.6-2C285.4,386.6,284,385.6,282.4,385.4z M283,388.7c-0.1,0.1-0.2,0.2-0.3,0.3
								c0,0-0.1,0.1-0.1,0.1c-0.4,0-0.5-0.4-0.7-0.6c0,0,0,0,0,0c-0.2-0.2-0.1-0.5,0.1-0.6c0.1-0.1,0.4-0.1,0.5,0
								c0.3,0,0.4,0.4,0.6,0.5C283,388.4,283,388.6,283,388.7z M292.6,384.7c-1.1,0-1.9,0.7-2.9,0.9c-0.1,0-0.1,0-0.2,0
								c-0.6-0.6-0.7-1.4-1.3-2.1c-0.4-0.6-1.1-0.9-1.8-0.8c-0.3,0-0.7,0.1-0.9,0.3c-0.3,0.2-0.6,0.5-0.5,0.9c0,0,0,0,0,0
								c0.2,0.6,0.5,1.2,0.9,1.6c0.7,1.1,1.4,2.2,2.4,3.1c0.4,0.4,1,0.6,1.5,0.5c0.6-0.2,1.1-0.4,1.6-0.7c1-0.6,1.9-1.4,2.5-2.3
								c0-0.1,0-0.1,0-0.2C294,385.3,293.4,384.7,292.6,384.7z"/>
						</g>
					</g>
					<g id="path4_00000068663643362925257310000016328164445457698956_">
						<path class="st4" d="M283,401.4c0.7-0.5,1.5-0.9,2.3-1.2c0.3-0.1,0.7-0.4,1.1-0.2c5.7,3.6,11.3,6.9,16.7,9.9
							c4.7,2.6,9.3,5.1,13.7,7.4c2.7,1.4,5.4,2.8,8,4.2c0.7,0.4,1.4,0.7,2,1.2c-1.8,1.3-3.6,2.6-5.4,3.9c-2.1,1.7-4.2,3.3-6.2,5.1
							c-0.5,0.5-1,0.9-1.5,1.4c-0.8,0.7-1.4,1.4-2.2,2c-0.7-0.8-1.4-1.7-2.2-2.5c-0.6-0.6-1.1-1.4-1.7-2c-0.3-0.2-0.6-0.4-1-0.4
							c-0.6-0.1-1.2-0.5-1.8-0.6c0.2,0.5,0.5,1,0.9,1.3c0.7,0.9,1.5,1.7,2.3,2.5c0.7,0.7,1.3,1.5,2,2.2c0.2,0.2,0.5,0.5,0.2,0.7
							c-1,1-2.1,2-3,3.1c-2.4,2.6-4.8,5.2-6.8,8.1c-1,1.2-1.8,2.6-2.7,3.8c-0.2,0.4-0.5,0.8-0.8,1.1c-0.6-0.4-1.1-1.1-1.3-1.9
							c-0.3-1.4-0.8-2.8-1.2-4.3c-1.7-5.4-3.2-10.9-4.7-16.5c-1.4-5.3-2.7-10.6-3.9-16c-0.8-3.9-1.9-7.7-2.6-11.6
							C283.1,401.9,283,401.7,283,401.4C283,401.4,283,401.4,283,401.4z M286,410.7c0.1,0.1,0.2,0.2,0.3,0.3
							c0.2-0.1,0.3-0.3,0.5-0.4c-0.1-0.1-0.2-0.2-0.2-0.3C286.3,410.5,286.2,410.6,286,410.7z M295.2,419c0.6,0.8,1.1,1.7,2,2.3
							c0.6,0.4,1.3,0.5,2,0.5c0.8,0,1.6-0.1,2.3-0.4c-0.4-0.5-0.9-0.9-1.4-1.4c0.5-0.2,1-0.6,1.5-1
							C299.7,417.9,297.1,417.8,295.2,419C295.2,419,295.2,419,295.2,419z M296.1,425.9c-0.2,0.9-0.1,1.7,0.2,2.6
							c0.6-0.3,1.1-0.7,1.5-1.2c0.1,0.9,0.5,1.7,1.1,2.3c1-1.1,1.5-2.6,1.4-4.2c-0.1-1-0.7-1.7-1.4-2.5c-0.2-0.3-0.5,0.1-0.7,0.1
							C297.3,423.8,296.3,424.6,296.1,425.9C296.1,425.9,296.1,425.9,296.1,425.9z M308.5,416.8c0.3,0,0.5,0,0.8,0
							c0.1-0.2,0.1-0.4,0.2-0.7C309.1,416.4,308.8,416.6,308.5,416.8z M300.3,423.5c0.8,1.2,2.1,2,3.5,2.2c1.3-0.1,2.6-0.6,3.6-1.5
							c-0.7-0.5-1.5-0.7-2.3-0.7c0.6-0.6,1.5-1,1.9-1.8c-0.7-0.1-1.4-0.2-2.1-0.2C303.1,421.6,301.5,422.3,300.3,423.5
							C300.3,423.5,300.3,423.5,300.3,423.5z M300.9,427.9c-0.9,0.9-1.3,2.2-1.1,3.5c0.1,1,0.6,1.9,1.2,2.5c0.5-0.7,0.8-1.5,1.1-2.4
							c0.4,0.5,0.9,0.9,1.4,1.3c0.4-0.8,0.6-1.6,0.8-2.4c0.1-1.4-0.7-2.5-1.2-3.7c-0.2-0.3-0.5-0.5-0.9-0.3
							C301.7,426.9,301.3,427.4,300.9,427.9C300.9,427.9,300.9,427.9,300.9,427.9z M304,426.8c0.3,0.6,0.7,1.2,1.2,1.7
							c0.7,0.7,1.7,1,2.7,1.1c1.2-0.1,2.4-0.5,3.3-1.2c-0.6-0.5-1.4-0.9-2.2-1.1c0.8-0.4,1.4-1,2-1.6c-0.6-0.2-1.2-0.3-1.8-0.3
							c-0.7-0.1-1.4-0.1-2.1,0.1C306,425.7,304.9,426.2,304,426.8C304,426.8,304,426.8,304,426.8z M301.5,436c0.1,0,0.2,0.1,0.4,0.1
							c0.1-0.3,0.2-0.5,0.3-0.7c-0.1-0.1-0.1-0.2-0.2-0.2C301.8,435.4,301.6,435.7,301.5,436C301.5,436,301.5,436,301.5,436z
							 M255.2,434.3c0.5-2.6,1.5-4.9,2.9-6.8c0.9-1.1,1.9-2,3.1-2.8c0.4-0.3,0.9-0.5,1.4-0.6c1.2-0.3,2.2-1.3,3.5-1.5
							c1.3-0.2,2.8-0.4,4.1-0.6c0.7,0,1.5,0.2,2.2,0.6c1.3,0.6,2.6,1.3,3.9,1.9c0.7,0.3,1.4,0.8,2.1,1.4c-0.1,0.1-0.3,0.2-0.4,0.4
							c0.1,0,0.2,0.1,0.3,0.1c0.1-0.1,0.2-0.3,0.4-0.4c2.5,1.8,4.8,3.7,6.9,5.9c0.6,0.5,1.2,1.1,1.7,1.7c0.6,0.9,1.4,1.5,2,2.5
							c1.3,2.2,1.9,4.7,2.7,7.1c0.2,0.8,0.1,1.6,0.2,2.4c0.2,3.2,0.1,6.4-0.2,9.5c-0.2,1.1-0.4,2.1-0.7,3c-0.1,0.5-0.2,1-0.4,1.4
							c-0.7,1.1-1.3,2.4-2,3.5c-2.1,2.7-4.6,4.3-7.7,4.6c-1.4,0.2-2.9,0-4.5-0.7c-2.6-1.1-5.4-2.9-8.2-5.4c-2.6-2.5-5.1-5.4-7.4-8.8
							c-1-1.4-2-3-2.9-4.6c-0.7-1.4-1.4-2.8-2.1-4.2c-0.4-0.8-0.7-1.7-0.7-2.5C255,439,255,436.5,255.2,434.3
							C255.3,434.3,255.3,434.3,255.2,434.3z M265.7,434c0.2,0.3,0.5,0.6,0.8,0.7c0,0,0.1-0.1,0.1-0.1
							C266.4,434.1,266,434,265.7,434C265.7,434,265.7,434,265.7,434z M268.2,430.2c0.3,0.2,0.7,0.4,1,0.5c0-0.2,0-0.4,0.1-0.6
							c-0.1-0.2-0.2-0.3-0.3-0.5C268.8,430,268.5,430.2,268.2,430.2C268.2,430.2,268.2,430.2,268.2,430.2z M270.2,429.5
							c0.1,0.2,0.2,0.4,0.3,0.6c0.2-0.2,0.5-0.3,0.7-0.5C270.9,429.4,270.5,429.4,270.2,429.5C270.2,429.5,270.2,429.5,270.2,429.5z
							 M264.1,450.6c0-0.1,0.1-0.3,0.1-0.4c-0.3-0.2-0.5-0.3-0.8-0.5C263.6,450.1,263.8,450.4,264.1,450.6L264.1,450.6z
							 M276.6,428.1c0.6-0.1,1.1-0.4,1.5-0.9c-0.1-0.1-0.2-0.2-0.3-0.3C277.3,427.3,276.9,427.7,276.6,428.1L276.6,428.1z
							 M278.1,431c0.1,0.4,0.2,0.8,0.4,1.2c0.1-0.1,0.2-0.2,0.3-0.4c-0.1-0.3-0.2-0.6-0.3-0.9C278.4,431,278.3,431,278.1,431
							C278.1,431,278.1,431,278.1,431z M279.1,430.2c0.1,0.1,0.2,0.2,0.2,0.3c0.1-0.1,0.1-0.2,0.2-0.2c-0.1-0.1-0.2-0.2-0.2-0.3
							C279.2,430,279.1,430.1,279.1,430.2z M277.8,434.5c0.1-0.2,0.1-0.4,0.2-0.6c-0.1-0.2-0.2-0.4-0.4-0.6
							C277.4,433.6,277.5,434.1,277.8,434.5C277.8,434.5,277.8,434.5,277.8,434.5z M277,434.5c0.2,0.2,0.5,0.5,0.7,0.7
							c0-0.1,0-0.3,0-0.4C277.4,434.6,277.2,434.5,277,434.5C277,434.5,277,434.5,277,434.5z M279.8,431.7c0.1,0.1,0.2,0.3,0.4,0.4
							c0.1-0.1,0.1-0.2,0.2-0.2c-0.1-0.1-0.2-0.2-0.3-0.3C279.9,431.6,279.8,431.6,279.8,431.7z M281.2,433.3
							c0.3,0.1,0.6,0.2,0.9,0.4c-0.1-0.5-0.4-0.9-0.7-1.2C281.3,432.7,281.2,433,281.2,433.3C281.2,433.3,281.2,433.3,281.2,433.3z
							 M325.5,379.1c1.7-0.8,3.2-1.8,4.9-2.5c1,1.4,2,2.8,3,4.2c0.6,0.9,1.5,1.6,2,2.5c-0.4-0.1-0.7-0.1-1.1-0.3
							c-0.1,0-0.2,0.1-0.3,0.1c1.4,1.6,2.7,3.2,3.8,4.9c-1.3,0.8-2.7,1.4-3.9,2.2c-1.5,0.9-3.1,1.6-4.6,2.5
							c-0.8,0.5-1.6,0.9-2.5,1.4c0.5,0.7,1.2,1.2,1.6,1.9c0.2,0.3,0.2,0.6,0.2,1c0.4,0,0.7,0.1,0.9,0.4c0.9,1.7,2.3,3,3.3,4.6
							c0.3,0.6,0.9,1,1.2,1.6c0.7,1.1,1.4,2.1,2.2,3.1c0.9,1.2,1.8,2.4,2.8,3.5c1,1.1,1.6,2.4,2.4,3.5c-3.7,2.2-7.2,4.4-10.6,6.7
							c-0.6-0.6-1.1-1.3-1.6-2c-0.7-0.9-1.5-1.9-2.2-2.8c-0.8-1.3-1.9-2.4-2.7-3.6c-0.5-1-1.3-1.8-1.9-2.7c-1.7-2.3-3.5-4.7-5.5-7
							c-0.7-0.8-1.5-1.6-2.2-2.5c-4.2,2.5-8.4,4.9-12.3,7.4c-2-2-3.7-4.3-5.6-6.5c-1.1-1.1-2.1-2.4-3.1-3.6c0.9-0.6,1.9-1.2,2.8-1.8
							c0.9-0.7,1.8-1.1,2.6-1.7c1.3-1,2.8-1.8,4.2-2.7c1.4-0.7,2.6-1.6,4-2.3c1.4-0.7,2.7-1.4,4.1-2.1c0.8-0.4,1.4-0.9,2.2-1.3
							C317.5,383.1,321.4,381.1,325.5,379.1C325.5,379.2,325.5,379.1,325.5,379.1z M315.4,385c0.1,0.1,0.3,0.3,0.4,0.4
							c0.1,0,0.2-0.1,0.3-0.1c-0.1-0.2-0.1-0.4-0.2-0.6C315.7,384.8,315.5,384.9,315.4,385z M316.1,384.6c0.2,0.1,0.4,0.1,0.6,0.2
							c0.1-0.1,0.2-0.1,0.4-0.2c-0.1-0.1-0.2-0.2-0.3-0.4C316.5,384.4,316.3,384.5,316.1,384.6C316.1,384.6,316.1,384.6,316.1,384.6
							z M311,396.4c0-0.2,0.1-0.3,0.1-0.5c-0.2-0.1-0.5-0.1-0.7-0.2C310.4,396,310.6,396.3,311,396.4C311,396.4,311,396.4,311,396.4
							z"/>
					</g>
					<g id="path28_00000024686605059771064510000001874641002396924065_">
						<path class="st3" d="M355.1,431.8c-0.4-0.7-0.7-1.5-1.1-2.2c-0.4,0.1-0.8,0.2-1.1,0.4c0.1-0.2,0.2-0.5,0.3-0.7l0,0
							c0.1,0.1,0.2,0.3,0.3,0.4c0.2-0.1,0.4-0.2,0.6-0.4c-0.4-0.8-0.8-1.6-1.2-2.5c0,0,0,0,0,0c-0.6-1.1-1.6-1.9-2.4-2.9
							c-0.4-0.3-0.5-0.8-1.1-0.9c-0.1-0.8-0.9-1.1-1.4-1.7c-0.3-0.5-0.7-1-1.2-1.4c-0.3-0.4-0.6-0.8-1-1.2c-1.1-1.3-2-2.6-3.3-3.8
							c-0.8,0.5-1.7,1-2.6,1.4c-1.8,1.1-3.6,2-5.3,3.1c-1.3,0.7-2.5,1.5-3.7,2.3c0.8,1.4,2,2.6,2.7,4c0,0,0,0,0,0
							c0.6,0.7,1.1,1.5,1.7,2.2c0.6,1.2,1.5,2.2,2.2,3.2c1.3,1.9,2.5,3.9,3.8,5.7c0.6,1.1,1.3,2.1,2,3.1c0.6-0.3,1.1-0.6,1.6-1
							c0.9-0.7,2-1.2,2.9-1.9c0.8-0.5,1.6-1,2.4-1.5c1.6-1.1,3.3-2,5-3.1c0,0,0.1,0,0.1-0.1C355.4,432.2,355.3,432,355.1,431.8
							C355.2,431.7,355.2,431.8,355.1,431.8z M352.1,426.4c0.1-0.1,0.3,0,0.3,0.1c0,0,0,0.1,0,0.1
							C352.2,426.7,352,426.5,352.1,426.4C352.1,426.4,352.1,426.4,352.1,426.4C352.1,426.4,352.1,426.4,352.1,426.4z M337.7,428.2
							C337.7,428.3,337.7,428.3,337.7,428.2c0.1,0.1,0.1,0.2,0.1,0.2c0,0.2-0.1,0.3-0.2,0.5c0,0,0,0,0,0c-0.1-0.2-0.1-0.3-0.2-0.5
							C337.5,428.4,337.6,428.3,337.7,428.2C337.7,428.2,337.7,428.2,337.7,428.2z M337.4,427c0,0,0-0.1,0-0.1
							c0.1-0.1,0.2-0.1,0.2-0.1C337.6,426.9,337.5,427.1,337.4,427C337.4,427,337.4,427,337.4,427z M336.4,425.6
							C336.4,425.6,336.4,425.6,336.4,425.6c-0.1-0.1-0.1-0.1-0.2-0.2l0,0c-0.1-0.2-0.3-0.3-0.5-0.3c0,0,0,0,0,0c0.3,0,0.5,0,0.8,0
							C336.5,425.2,336.4,425.4,336.4,425.6C336.4,425.6,336.4,425.6,336.4,425.6z M339.4,426.3c-0.1,0.1-0.2,0.1-0.2,0.2
							c0,0,0,0-0.1,0c0,0,0-0.2,0-0.2c0.1-0.1,0.1-0.1,0.2-0.2C339.3,426.1,339.4,426.3,339.4,426.3
							C339.4,426.3,339.4,426.3,339.4,426.3z M342.2,428.5c-0.1,0.2-0.3,0.4-0.4,0.6c-0.1-0.1-0.2-0.2-0.3-0.4c0,0,0,0,0,0
							C341.7,428.6,342,428.6,342.2,428.5C342.2,428.5,342.2,428.5,342.2,428.5z M341.4,419.7c-0.2-0.1-0.4-0.1-0.6-0.2
							c0.1-0.1,0.3-0.1,0.4-0.2C341.2,419.5,341.3,419.6,341.4,419.7C341.4,419.7,341.4,419.7,341.4,419.7z M347.8,426.5
							c0,0.1,0.1,0.2,0.2,0.2c-0.2,0-0.3,0-0.5,0l0,0C347.6,426.7,347.7,426.6,347.8,426.5z"/>
					</g>
					<g id="path34_00000049205740505034747350000018078946054846485928_">
						<path class="st3" d="M329.2,434.7c-0.3-2.5-0.5-5.1-0.8-7.6c-3.3,2.3-6.4,4.8-9.3,7.3c0.2,1.1,0.4,2.2,0.6,3.2
							c0.6,2.5,1.1,5,1.8,7.5c-0.1,0-0.1,0.1-0.2,0.1c-0.3-0.3-0.7-0.5-1.2-0.5c-0.7-0.2-1.2-0.6-1.9-0.7c-0.3,0-0.5-0.1-0.8-0.2
							c-0.6-0.3-1.2-0.4-1.8-0.6c-2.2-0.9-4.6-1.7-6.9-2.7c-0.4-0.2-0.8-0.4-1.2-0.5c-0.7,0.6-1.3,1.3-1.9,2c-0.7,0.8-1.4,1.6-2,2.5
							c-0.5,0.6-0.9,1.1-1.4,1.7c0.5,0.7,1,1.7,1.9,1.9c2.2,0.9,4.4,1.9,6.6,2.8c0-0.1,0.1-0.3,0.1-0.4c0.2,0,0.3,0,0.5,0
							c-0.2,0.2-0.3,0.4-0.5,0.5c2.2,0.9,4.3,1.9,6.3,2.8c1.6,0.7,3.2,1.5,4.8,2.3c1,0.6,1.6,1.7,2.4,2.5c1.1,1.3,2.1,2.5,3.1,3.7
							c0.6,0.6,1,1.5,1.7,2.1c0.6,0.7,1.1,1.5,1.6,2.3c2.4-2.7,5-5.4,7.7-8.1c-0.3-0.5-0.7-0.9-1-1.4c-0.7-1.1-1.5-2.1-2.2-3.2
							c-0.5-0.5-0.8-1.1-1.3-1.7c-0.8-1.2-1.7-2.3-2.5-3.5c-0.4-0.4-0.7-0.8-1-1.2C330.1,443.3,329.6,439.1,329.2,434.7
							C329.2,434.7,329.2,434.7,329.2,434.7z M327.3,436.5c0-0.2,0.4-0.2,0.4,0C327.7,436.7,327.3,436.7,327.3,436.5z M307.5,448.2
							c-0.1-0.3-0.2-0.5-0.2-0.8c0.1-0.1,0.2-0.1,0.4-0.1C307.6,447.6,307.6,447.9,307.5,448.2C307.5,448.2,307.5,448.2,307.5,448.2
							z M310.1,449c0,0.2-0.3,0.2-0.3-0.1C309.9,448.8,310.2,448.8,310.1,449z M316.5,449.5C316.5,449.5,316.5,449.5,316.5,449.5
							c0.1,0.1,0.1,0.2,0.2,0.3c0,0,0,0,0,0c-0.1,0.1-0.2,0.2-0.3,0.3C316.4,449.9,316.4,449.7,316.5,449.5
							C316.5,449.5,316.5,449.5,316.5,449.5z M317.8,450.5c-0.1,0.1-0.2,0.2-0.3,0.3c-0.1-0.1-0.2-0.2-0.2-0.3c0,0,0,0,0,0
							c0.1-0.1,0.2-0.2,0.3-0.2C317.6,450.3,317.7,450.4,317.8,450.5C317.8,450.5,317.8,450.5,317.8,450.5z M318.2,445.4
							C318.2,445.4,318.2,445.4,318.2,445.4c0.1-0.1,0.1-0.1,0.2-0.2c0,0,0,0,0.1-0.1c0.1,0.1,0.2,0.2,0.2,0.3c0,0,0,0,0,0
							c-0.1,0.1-0.2,0.2-0.3,0.3C318.3,445.6,318.2,445.5,318.2,445.4C318.2,445.4,318.2,445.4,318.2,445.4z M319.2,449.1
							c0.2,0.1,0.4,0.2,0.6,0.2c0,0,0,0.1,0,0.1c0.1,0.2,0.1,0.4,0.2,0.6c0,0,0,0,0,0c-0.2,0.1-0.4,0.1-0.6,0c0,0,0,0,0,0
							c0,0-0.1,0-0.1,0c0,0,0,0,0,0C319.3,449.7,319.3,449.4,319.2,449.1C319.2,449.1,319.2,449.1,319.2,449.1z M314.1,445.5
							C314.1,445.5,314.1,445.5,314.1,445.5c-0.1-0.1-0.1-0.2-0.2-0.3l0,0c0-0.1,0-0.3,0-0.4c0-0.2,0-0.4-0.2-0.6l0,0
							c0.1-0.1,0.1-0.1,0.2-0.2c0.2,0.1,0.5,0.2,0.7,0.3c0,0,0,0,0,0c-0.1,0.1-0.2,0.1-0.2,0.2c0,0,0,0,0,0
							c-0.1,0.1-0.1,0.1-0.2,0.2c0,0,0,0-0.1,0.1c0,0.1,0,0.1-0.1,0.2C314.2,445.2,314.1,445.3,314.1,445.5
							C314.1,445.5,314.1,445.5,314.1,445.5z M323.5,456.7L323.5,456.7c-0.1-0.1-0.1-0.2-0.2-0.3c0,0,0,0,0,0
							c0.1-0.1,0.1-0.1,0.2-0.2c0,0,0.1,0.1,0.1,0.2C323.6,456.6,323.5,456.6,323.5,456.7z M320.4,450.7c-0.1,0.2-0.2,0.4-0.4,0.6
							c-0.2,0-0.4,0-0.5-0.1c0,0,0,0,0,0c0.2-0.2,0.3-0.4,0.4-0.6c0.1,0,0.2-0.1,0.4-0.1C320.2,450.6,320.3,450.7,320.4,450.7
							C320.3,450.7,320.3,450.7,320.4,450.7z M323.4,454c-0.1,0.1-0.1,0.2-0.2,0.2c0,0,0,0,0-0.1c0,0,0,0,0,0c0,0-0.1-0.1-0.1-0.1
							c0,0,0,0,0,0c0,0-0.1-0.1-0.1-0.1l0,0c0,0,0.1-0.1,0.1-0.1c0,0,0.1-0.1,0.1-0.1c0,0,0.1-0.1,0.1-0.1c0,0,0,0,0,0
							C323.2,453.8,323.3,453.9,323.4,454C323.3,454,323.4,454,323.4,454z M322.5,452.5C322.5,452.5,322.5,452.5,322.5,452.5
							c0,0.1,0,0.1,0,0.2c0,0,0,0,0,0c0,0,0,0,0,0c0,0,0,0,0,0c0,0-0.1,0-0.1,0c0,0,0,0,0-0.1c0,0,0,0,0-0.1c0,0,0,0,0,0
							C322.3,452.5,322.4,452.4,322.5,452.5C322.4,452.4,322.4,452.4,322.5,452.5C322.5,452.4,322.5,452.4,322.5,452.5
							C322.5,452.5,322.5,452.5,322.5,452.5C322.5,452.5,322.5,452.5,322.5,452.5z M318.9,447.9c0,0-0.1,0.1-0.1,0c0,0,0,0,0,0
							C318.8,447.5,318.9,447.8,318.9,447.9C318.9,447.9,318.9,447.9,318.9,447.9z M319,447.5c0.1-0.1,0.2-0.2,0.3-0.3
							c0.1,0.1,0.2,0.2,0.2,0.3c0,0,0,0,0,0c-0.1,0.1-0.2,0.2-0.3,0.3C319.1,447.7,319,447.6,319,447.5
							C319,447.5,319,447.5,319,447.5z M320.4,447.5c-0.3,0.1-0.5,0.2-0.7,0.4c0,0-0.1-0.1-0.1-0.2l0,0c0.2-0.2,0.4-0.4,0.5-0.5
							C320.2,447.3,320.3,447.4,320.4,447.5C320.4,447.5,320.4,447.5,320.4,447.5z M322.5,447.6
							C322.5,447.6,322.5,447.5,322.5,447.6c0.1-0.3,0.3-0.2,0.3,0c0,0,0,0,0,0c0,0,0,0,0,0c0,0,0,0,0,0c0,0.1-0.1,0.1-0.2,0.1
							C322.5,447.7,322.5,447.6,322.5,447.6C322.5,447.6,322.5,447.6,322.5,447.6z M319.5,445.5
							C319.5,445.5,319.5,445.5,319.5,445.5c0.2-0.2,0.2,0,0.1,0C319.6,445.6,319.5,445.7,319.5,445.5
							C319.5,445.5,319.5,445.5,319.5,445.5z M322.4,448.7c0.1-0.1,0.2-0.2,0.3-0.3c0.1,0.1,0.2,0.2,0.2,0.3l0,0
							c-0.1,0.2-0.3,0.4-0.4,0.6C322.6,449.1,322.5,448.9,322.4,448.7C322.4,448.7,322.4,448.7,322.4,448.7z M328.8,456.1
							c0,0.1-0.1,0.2-0.1,0.2c0,0,0,0,0,0c0,0,0,0,0,0c0,0,0,0,0,0c-0.1,0-0.1-0.2,0-0.2c0,0,0,0,0,0c0,0,0,0,0.1-0.1c0,0,0,0,0,0
							C328.7,455.9,328.8,456,328.8,456.1C328.8,456.1,328.8,456.1,328.8,456.1C328.8,456.1,328.8,456.1,328.8,456.1z M325.3,451.4
							C325.3,451.4,325.3,451.4,325.3,451.4c0-0.2,0.1-0.3,0.2-0.3c0,0,0.1,0,0.1,0c0,0,0,0,0,0c0,0,0,0,0,0c0,0.1,0,0.1-0.1,0.1
							C325.5,451.5,325.4,451.5,325.3,451.4C325.3,451.4,325.3,451.4,325.3,451.4z M331.8,460.1
							C331.8,460.1,331.8,460.1,331.8,460.1c-0.1-0.1,0-0.4,0-0.5c0.1,0.1,0.2,0.2,0.3,0.4C332,460,331.9,460.2,331.8,460.1
							C331.8,460.1,331.8,460.1,331.8,460.1z M322.9,447C322.9,447,322.9,447,322.9,447c0.1-0.4,0.5-0.1,0.5,0.2c0,0,0,0,0,0
							c0,0,0,0,0,0.1c0,0.1-0.1,0.1-0.1,0.1C323.2,447.3,323,447.1,322.9,447C322.9,447,322.9,447,322.9,447z M326.3,451.2
							c0,0-0.1,0-0.1,0c0,0,0,0-0.1,0c-0.1,0-0.1,0-0.2,0c0.1-0.2,0.2-0.5,0.3-0.7c0,0,0.1-0.1,0.1-0.1
							C326.3,450.6,326.3,450.9,326.3,451.2C326.3,451.2,326.3,451.2,326.3,451.2z M333.5,459.1c0.1,0.2,0.1,0.4,0.2,0.5
							c-0.2,0-0.4,0-0.6,0.1c0,0-0.1-0.1-0.1-0.1c0,0,0,0,0,0C333.2,459.6,333.4,459.3,333.5,459.1
							C333.5,459.1,333.5,459.1,333.5,459.1z M321.6,442.8L321.6,442.8c-0.2,0-0.3-0.1-0.5-0.1l0,0c0.1-0.1,0.2-0.1,0.4-0.2
							C321.6,442.6,321.6,442.7,321.6,442.8C321.6,442.8,321.6,442.8,321.6,442.8z M330.2,453.1L330.2,453.1
							c-0.1,0.1-0.1,0.1-0.2,0.2c0,0,0,0,0,0c-0.1-0.1-0.1-0.1-0.2-0.2c0,0,0,0,0,0c0.1,0,0.1-0.1,0.2-0.1c0,0,0,0,0,0
							c0,0,0,0,0.1-0.1C330.2,453,330.2,453.1,330.2,453.1C330.2,453.2,330.2,453.2,330.2,453.1z M332,455.3c0,0.1-0.1,0.3-0.1,0
							l0,0C332,455.2,332,455.3,332,455.3C332,455.3,332,455.3,332,455.3z M322.9,441.2c-0.3,0.1-0.5,0.2-0.8,0.3c0-0.1,0-0.2,0-0.4
							c0,0,0,0,0,0C322.4,441.1,322.7,441.1,322.9,441.2C322.9,441.2,322.9,441.2,322.9,441.2z M321.5,438.5
							c-0.1,0.1-0.2,0.2-0.3,0.3c-0.1-0.1-0.1-0.1-0.2-0.2l0,0c0.1-0.1,0.2-0.2,0.3-0.3C321.4,438.4,321.5,438.5,321.5,438.5
							C321.5,438.5,321.5,438.5,321.5,438.5z M320.2,435.9L320.2,435.9c0.2-0.1,0.4,0,0.6,0.1c0,0,0,0,0,0c-0.1,0.1-0.2,0.1-0.3,0.2
							C320.4,436,320.3,435.9,320.2,435.9z M330.2,447.7c-0.2,0.1-0.4,0.1-0.6,0.2c0,0,0,0,0,0c0.1-0.2,0.2-0.5,0.4-0.7
							c0.1,0,0.2,0.1,0.2,0.1C330.2,447.5,330.2,447.6,330.2,447.7C330.2,447.7,330.2,447.7,330.2,447.7z M322.2,437.9
							c0-0.1,0-0.2,0-0.3c0.1-0.1,0.2-0.2,0.3-0.3c0.1,0.1,0.2,0.2,0.3,0.3C322.6,437.7,322.4,437.8,322.2,437.9
							C322.2,437.9,322.2,437.9,322.2,437.9z"/>
					</g>
					<g id="path36_00000138553139253751068710000006657435018932759740_">
						<path class="st3" d="M325,466.5c-0.6-0.8-1.2-1.6-1.9-2.3c-2,2.6-3.9,5.2-5.6,7.9c-0.6,1-1.2,1.9-1.8,2.7
							c-0.7-0.6-1.3-1.4-2-2.1c-0.7-0.8-1.4-1.7-2-2.7c-0.3-0.4-0.6-0.8-1-1.2c-1.2-1.5-2.4-3.2-3.8-4.8c-0.3-0.4-0.6-0.8-0.9-1.2
							c-0.1-0.2-0.3-0.3-0.4-0.5c-1.8-2.5-3.9-4.9-6.3-6.9c-0.4-0.4-0.9-0.8-1.4-1.1c-0.1,0.1-0.2,0.3-0.2,0.5
							c-0.2,0.1-0.3,0.2-0.4,0.4c-0.4,0.7-0.8,1.4-1.2,2c-0.4,0.8-0.8,1.5-1.3,2.1c-0.8,1.3-1.5,2.8-2.2,4.2c0,0,0,0,0,0
							c0.5,1,1.2,1.6,1.8,2.5c0.5,0.6,1.1,1.2,1.6,1.8c2.3,2.4,4.5,4.8,6.4,7.4c0.4,0.5,0.8,0.9,1.1,1.5c0.4,0.6,0.9,1.1,1.3,1.6
							c0.4,0.4,0.6,1,0.9,1.3c0.5,0.7,1,1.3,1.4,1.9c0.4,0.6,0.8,1.1,1.2,1.7c0.4,0.6,0.8,1.2,1.3,1.8c-0.2-0.7-0.5-1.3-0.8-1.9
							c-0.3-0.6-0.6-1.1-0.9-1.7c0.3,0.3,0.5,0.6,0.8,0.9c1.2,1.5,2.2,3,3.3,4.4c0.4,0.5,0.7,1.1,1.1,1.7c0.5,0.7,1,1.4,1.5,2.1
							c3.2-7.4,7.4-14.3,12.6-21C326.4,468.3,325.7,467.4,325,466.5C325,466.5,325,466.5,325,466.5z M299.1,467.6
							C299.1,467.6,299.1,467.6,299.1,467.6c0.2,0.1,0.3,0.3,0.5,0.4c0,0,0,0,0,0c-0.1,0-0.2,0-0.2,0c-0.1,0-0.2,0-0.3,0
							C299.1,467.8,299.1,467.7,299.1,467.6z M307.8,479.3C307.8,479.3,307.8,479.3,307.8,479.3c0.1-0.2,0.2-0.4,0.3-0.5
							c0,0.1,0,0.2,0,0.2c0,0.1-0.1,0.3-0.1,0.4c0,0,0,0,0,0.1l0,0C307.9,479.4,307.8,479.3,307.8,479.3
							C307.8,479.3,307.8,479.3,307.8,479.3z M306.1,478.4c0.1-0.1,0.2-0.1,0.4-0.2c0,0.2-0.1,0.3-0.1,0.5c0,0,0,0,0,0
							c0,0-0.1-0.1-0.1-0.1C306.2,478.4,306.1,478.4,306.1,478.4C306.1,478.4,306.1,478.4,306.1,478.4
							C306.1,478.4,306.1,478.4,306.1,478.4z M304.9,476.9c0,0,0-0.1,0-0.1c0.1,0.1,0.1,0.2,0.2,0.3c0,0,0,0,0,0
							c0,0.1-0.1,0.1-0.1,0.2c0,0-0.1-0.1-0.2-0.2C304.9,477,304.9,476.9,304.9,476.9z M309.6,482.9c0,0,0,0-0.1-0.1
							c0,0,0-0.1,0.1-0.1C309.6,482.7,309.6,482.9,309.6,482.9C309.6,482.9,309.6,482.9,309.6,482.9z M309.2,481.7
							C309.2,481.7,309.2,481.7,309.2,481.7c0.1-0.2,0.1,0.1,0.1,0.1C309.3,481.9,309.3,481.9,309.2,481.7
							C309.2,481.8,309.2,481.7,309.2,481.7z M313.9,487.7c-0.1,0.1-0.2,0-0.3-0.1c0.1-0.3,0.3-0.4,0.5-0.4
							C314.1,487.4,314,487.5,313.9,487.7C313.9,487.7,313.9,487.7,313.9,487.7z M314.9,487.2c-0.1,0.2-0.1,0.3-0.2,0.5
							c0-0.1-0.1-0.2-0.2-0.2c0,0,0,0,0,0C314.7,487.3,314.8,487.2,314.9,487.2C314.9,487.1,314.9,487.1,314.9,487.2z M314.1,485.5
							c0,0.1-0.1,0.2-0.1,0.3c-0.1-0.2-0.1-0.5-0.1-0.8C313.9,485.2,314,485.3,314.1,485.5C314.1,485.5,314.1,485.5,314.1,485.5z
							 M303.1,467.3C303.1,467.3,303.1,467.3,303.1,467.3C303.1,467.4,303.1,467.4,303.1,467.3C303.1,467.4,303.1,467.4,303.1,467.3
							c-0.1,0.2-0.3,0.2-0.3,0c0,0,0,0,0,0C302.9,467.1,303.1,467.1,303.1,467.3C303.1,467.3,303.1,467.3,303.1,467.3z M301.4,465.3
							c0,0.2,0,0.4-0.1,0.6c0.1,0.3,0.3,0.3,0.4,0.4c0,0,0,0,0,0c-0.3,0-0.5,0.1-0.8,0.1c0,0,0-0.1,0-0.1c0-0.2,0.2-0.2,0.3-0.2
							C301.2,465.8,301.3,465.6,301.4,465.3C301.4,465.3,301.4,465.3,301.4,465.3z M308.3,476.6c-0.1,0.1-0.2,0-0.1-0.2c0,0,0,0,0,0
							C308.2,476.4,308.3,476.4,308.3,476.6z M314.5,484.4c0,0.2-0.2,0.3-0.2,0.1C314.3,484.3,314.5,484.2,314.5,484.4
							C314.5,484.4,314.5,484.4,314.5,484.4z M294.6,460.6c0,0.1-0.1,0.2-0.1,0.3c0,0,0,0,0,0c0,0,0,0-0.1-0.1c0,0-0.1-0.1-0.1-0.1
							c0,0,0,0-0.1-0.1c0,0,0,0,0,0c0-0.1,0.1-0.2,0.1-0.3C294.4,460.4,294.5,460.5,294.6,460.6
							C294.6,460.6,294.6,460.6,294.6,460.6z M296.4,461.8c0,0.1,0,0.2,0,0.3l0,0c-0.1-0.1-0.2-0.2-0.3-0.3c0,0,0,0,0,0
							c0.1-0.1,0.1-0.3,0.2-0.4c0.2,0,0.3,0,0.5-0.1c0,0,0,0,0,0c-0.1,0.1-0.2,0.1-0.3,0.3c0,0,0,0.1-0.1,0.1
							C296.4,461.7,296.4,461.7,296.4,461.8z M306.8,473.3c0.1-0.1,0.1-0.2,0.2-0.4c0.2,0.2,0.4,0.4,0.6,0.5c0,0,0,0,0,0
							C307.3,473.5,307.1,473.4,306.8,473.3C306.8,473.3,306.8,473.3,306.8,473.3z M314.3,481.8c-0.1,0.1-0.1,0.3-0.2,0.4
							c-0.1,0-0.2-0.1-0.3-0.1c0,0,0,0,0,0C314,482,314.2,481.9,314.3,481.8C314.3,481.8,314.3,481.8,314.3,481.8z M303.7,467.8
							c-0.1,0.5-0.5,0.5-0.8,0.5c0,0,0,0,0,0C303.2,468,303.4,467.9,303.7,467.8z M306.3,470.2c0,0.1-0.1,0.1-0.1,0.2
							c-0.1-0.1-0.2-0.2-0.4-0.3c0,0,0,0,0,0c0.1,0,0.2-0.1,0.3-0.1C306.1,470,306.2,470.1,306.3,470.2
							C306.2,470.2,306.3,470.2,306.3,470.2z M302.4,465.4C302.4,465.4,302.4,465.4,302.4,465.4c0,0.2-0.2,0-0.2-0.1c0,0,0,0,0-0.1
							C302.2,465.1,302.4,465.3,302.4,465.4C302.4,465.4,302.4,465.4,302.4,465.4z M305,466C305,466,305,466,305,466
							c0.2-0.5,0.5-0.2,0.8-0.1c0,0,0,0,0,0C305.6,466,305.3,466,305,466C305,466,305,466,305,466z M307.3,467.4
							c0,0.4-0.4,0.2-0.5,0C306.8,467,307.2,467.1,307.3,467.4C307.3,467.4,307.3,467.4,307.3,467.4z M306.6,465.6
							C306.6,465.6,306.6,465.6,306.6,465.6c-0.1,0.2-0.1,0.2-0.2,0l0,0C306.4,465.4,306.5,465.4,306.6,465.6
							C306.6,465.6,306.6,465.6,306.6,465.6z M304.3,462.9C304.3,462.9,304.3,462.9,304.3,462.9
							C304.3,462.9,304.3,462.9,304.3,462.9C304.3,462.8,304.3,462.8,304.3,462.9L304.3,462.9L304.3,462.9c0-0.3,0.1-0.6,0.1-0.8
							c0.2,0,0.3,0,0.5,0c0,0,0,0,0,0C304.6,462.3,304.4,462.6,304.3,462.9C304.3,462.9,304.3,462.9,304.3,462.9z M315.8,475.1
							c0,0-0.1,0.1-0.1,0.1c-0.1-0.2,0-0.4,0.1-0.6c0,0,0,0,0,0C316,474.8,315.9,475,315.8,475.1
							C315.8,475.1,315.8,475.1,315.8,475.1z M322,475.4c0,0.1,0,0.1,0,0.2c0,0.1,0,0.1,0,0.2c0,0,0,0,0,0c-0.1,0.1-0.2,0.2-0.3,0.2
							c0,0-0.1-0.1-0.1-0.1l0,0c0.1-0.3,0.1-0.6,0-0.9l0,0c0.1,0.1,0.3,0.1,0.5,0c0-0.2,0-0.3,0-0.5c0,0,0,0,0,0c0.1,0,0.2,0,0.3,0
							C322.2,474.8,322,475.1,322,475.4C322,475.4,322,475.4,322,475.4z M321.1,470C321.1,470,321.1,470,321.1,470
							c-0.1,0-0.2,0-0.3-0.1c0,0,0,0,0,0c0.1-0.1,0.2-0.3,0.3-0.4c0,0,0,0,0,0C321.1,469.7,321.1,469.8,321.1,470
							C321.1,470,321.1,470,321.1,470z"/>
					</g>
					<g id="path38_00000074431342031792879730000014829647021475914166_">
						<path class="st3" d="M355.4,436.2c-0.7-0.2-1.4-0.6-2.3-0.5c-0.7,0.1-1.4,0.5-2.2,0.7c-0.8,0.3-1.8,0.6-2.4,1.3c0,0,0,0,0,0
							c-0.7,0.9-1.5,1.7-1.9,2.6c-0.4,1-0.9,1.7-1.2,2.6c0.1,0.5,0.3,1,0.4,1.5c0.1,0.7,0.6,1.1,0.9,1.6c0.2,0.2,0.3,0.6,0.6,0.6
							c1,0.1,2,0.2,3,0.1c0.8-0.1,1.6-0.4,2.4-0.7c0.6-0.5,1.1-1,1.7-1.5c1-1,2-2.1,3-3.1c0.2-0.2,0.4-0.5,0.3-0.7
							c-0.1-0.7-0.3-1.4-0.4-2c-0.4-0.7-0.8-1.4-1.2-2.1C356,436.4,355.8,436.2,355.4,436.2C355.4,436.2,355.4,436.2,355.4,436.2z
							 M349.9,446.4c0,0.2-0.3,0.2-0.3,0.1c0,0,0,0,0,0C349.6,446.4,349.9,446.3,349.9,446.4C349.9,446.4,349.9,446.4,349.9,446.4
							C349.9,446.5,349.9,446.4,349.9,446.4z M351,445.6c-0.1,0-0.2,0-0.3,0c0-0.1,0-0.2,0-0.3c0,0,0,0,0,0c0.2,0,0.5,0,0.8,0
							C351.3,445.4,351.2,445.5,351,445.6z M352.2,441.9c-0.2,0.2-0.2,0.2-0.3,0c0,0,0.1-0.1,0.2-0.1c0,0,0,0,0,0c0,0,0,0,0,0
							C352.2,441.8,352.2,441.8,352.2,441.9C352.2,441.9,352.2,441.9,352.2,441.9C352.2,441.9,352.2,441.9,352.2,441.9z
							 M353.8,439.6c-0.4,0.3-0.9,0.7-1.3,0.5c0,0,0,0,0,0c0.2-0.1,0.3-0.2,0.5-0.3c0.1,0,0.1,0,0.2-0.1c0.2,0,0.3-0.1,0.5-0.2
							C353.7,439.7,353.7,439.7,353.8,439.6C353.8,439.6,353.8,439.6,353.8,439.6z"/>
					</g>
				</g>
				<g id="path40_00000146480837479059428500000018347645486629956480_">
					<path class="st8" d="M344.6,390.3c1.8,2,2.8,4.2,4.2,6.4c-4.1,2.1-8.1,4.3-12,6.4c-1.6-1.9-3.5-3.7-4.8-5.8
						c0.1-0.4,0.6-0.5,1-0.7c2.7-1.4,5.4-2.9,8.2-4.3C342.3,391.7,343.1,390.8,344.6,390.3C344.6,390.3,344.6,390.3,344.6,390.3z"/>
				</g>
				<g id="path42_00000097490000207244071000000006791804782035725490_">
					<path class="st9" d="M343.1,395.6c0,0.4-0.2,0.7-0.6,0.8C342.4,396.1,342.6,395.9,343.1,395.6z"/>
				</g>
				<g id="path44_00000128464161008246874840000000067610636950673044_">
					<path class="st10" d="M338.5,400.7c0,0.2-0.1,0.3-0.4,0.4c-0.4-0.2-0.2-0.5,0.1-0.8c0.1,0,0.2,0,0.3,0.1
						C338.6,400.5,338.5,400.6,338.5,400.7z"/>
				</g>
				<g id="path46_00000011712570973413500630000011796032628389091458_">
					<path class="st11" d="M338.5,400.7c0-0.1-0.1-0.1-0.1-0.2c0-0.1,0.1-0.2,0.1-0.3c0.4-0.1,0.5,0.1,0.6,0.2
						C338.9,400.5,338.7,400.6,338.5,400.7C338.5,400.7,338.5,400.7,338.5,400.7z"/>
				</g>
				<g id="path48_00000081642376172937894890000011293096864052249238_">
					<path class="st12" d="M339.8,400.1c-0.2,0-0.3-0.1-0.3-0.3C339.9,399.7,339.9,399.9,339.8,400.1z"/>
				</g>
				<g id="path50_00000091013429743882067780000011099860307802771886_">
					<path class="st13" d="M340.3,399.4c0.1-0.1,0.2-0.1,0.3-0.2c0.2-0.1,0.3,0,0.4,0c0.1,0.1,0,0.3-0.1,0.3c0,0.1-0.1,0.2-0.3,0.2
						c0,0,0,0,0,0c0,0,0,0,0,0C340.4,399.8,340.3,399.6,340.3,399.4C340.3,399.4,340.3,399.4,340.3,399.4z"/>
				</g>
				<g id="path52_00000001643930811618165620000008719205789487000995_">
					<path class="st14" d="M343.7,396.8c0.3,0,0.5,0,0.3,0.3c-0.2,0.3-0.3,0.2-0.5,0.1C343.6,397,343.5,396.9,343.7,396.8
						C343.7,396.8,343.7,396.8,343.7,396.8z"/>
				</g>
				<g id="path54_00000148636380845506514200000011250688274338624661_">
					<path class="st15" d="M343.7,398.4c0-0.2,0-0.4,0.2-0.5c0.3,0,0.3,0.2,0.1,0.4c0,0.1-0.1,0.1-0.1,0.2
						C343.8,398.4,343.8,398.4,343.7,398.4z"/>
				</g>
				<g id="path56_00000101085245833058670630000016920704302551476625_">
					<path class="st16" d="M347.2,396.8c-0.2,0-0.3,0-0.5,0C347,396.4,347.1,396.5,347.2,396.8z"/>
				</g>
				<g id="path58_00000053541153250416060670000004023542761347906218_">
					<path class="st17" d="M337.7,398.3c0.2-0.2,0.4-0.2,0.5-0.1c0,0.1,0,0.1,0,0.2C338,398.4,337.8,398.4,337.7,398.3L337.7,398.3z
						"/>
				</g>
				<g id="path60_00000052086317101403284190000000469430716174185884_">
					<path class="st18" d="M339.4,396.8c-0.2,0.2-0.4,0.1-0.5,0c0,0,0-0.1,0.1-0.1C339.3,396.5,339.4,396.6,339.4,396.8z"/>
				</g>
				<g id="path62_00000103986903838284789240000018010675794643900578_">
					<path class="st19" d="M343.5,392.7c0.3-0.1,0.5,0,0.4,0.3c-0.2,0.3-0.3,0.2-0.5,0.1C343.4,392.9,343.4,392.8,343.5,392.7
						L343.5,392.7z"/>
				</g>
				<g id="path64_00000144323540059493328480000001896110719233184677_">
					<path class="st20" d="M338.7,394.2c-0.1,0-0.2-0.1-0.2-0.1c0-0.1,0.1-0.2,0.2-0.1C338.8,394.1,338.7,394.1,338.7,394.2
						C338.7,394.2,338.7,394.2,338.7,394.2z"/>
				</g>
				<g id="path66_00000150090199496932645500000017234182337444991159_">
					<path class="st21" d="M334.3,397.6c0-0.1,0.1-0.2,0.3-0.2C334.6,397.6,334.5,397.7,334.3,397.6z"/>
				</g>
				<g id="path68_00000053508069721205540730000016998484764335430840_">
					<path class="st22" d="M335.8,398.5c0-0.1,0.2-0.2,0.3-0.2C336.1,398.5,336,398.5,335.8,398.5z"/>
				</g>
				<g id="path70_00000071520501062964856890000008103693403641793425_">
					<path class="st23" d="M341.6,395.6c-0.2,0.1-0.5,0.3-0.7,0.1c0-0.1,0.1-0.2,0.3-0.2c0,0,0,0,0,0c0.1-0.1,0.2-0.1,0.3-0.2
						c0.1,0,0.2,0,0.2,0.1C341.6,395.5,341.6,395.6,341.6,395.6z"/>
				</g>
				<g id="path72_00000099657976891555356890000001145238530581377968_">
					<path class="st13" d="M341.6,395.6c0-0.1-0.1-0.1-0.1-0.2c0.2-0.1,0.4,0,0.4,0.1C341.8,395.6,341.6,395.6,341.6,395.6
						C341.6,395.6,341.6,395.6,341.6,395.6z"/>
				</g>
				<g id="path74_00000039104967948618537030000000808800265893063582_">
					<path class="st24" d="M344.9,393.7c0.2,0,0.3,0.1,0.2,0.2C344.8,393.9,344.8,393.8,344.9,393.7z"/>
				</g>
				<g id="path76_00000093140246666361919910000017288046182401685926_">
					<path class="st25" d="M344.4,394.2c0.2,0,0.3,0.1,0.2,0.2C344.3,394.4,344.3,394.3,344.4,394.2z"/>
				</g>
				<g id="path78_00000180343112915202669730000010295190255414587792_">
					<path class="st26" d="M335.3,399.9c-0.2,0-0.3-0.1-0.2-0.2C335.3,399.6,335.4,399.7,335.3,399.9z"/>
				</g>
				<g id="path80_00000079486702979571561380000012069733214531238799_">
					<path class="st27" d="M339.7,397.7c0,0.2-0.1,0.2-0.3,0.2C339.4,397.7,339.5,397.7,339.7,397.7z"/>
				</g>
				<g id="path82_00000137098230937183447840000012827437146685281929_">
					<path class="st28" d="M339.8,401.2c-0.2,0-0.3-0.1-0.2-0.2C339.9,401,340,401,339.8,401.2z"/>
				</g>
				<g id="path84_00000060745462044217511840000000560561417478458271_">
					<path class="st13" d="M343.8,398.6c0,0.1,0,0.2-0.2,0.2c-0.2-0.1-0.1-0.2,0-0.4c0,0,0,0,0,0
						C343.8,398.4,343.8,398.5,343.8,398.6C343.8,398.6,343.8,398.6,343.8,398.6C343.8,398.6,343.8,398.6,343.8,398.6z"/>
				</g>
				<g id="path86_00000094606866998501122740000004204179938590554009_">
					<path class="st29" d="M338.6,399.1c0.2,0,0.3,0.1,0.2,0.2C338.6,399.3,338.6,399.2,338.6,399.1z"/>
				</g>
				<g id="path88_00000116929626846316317500000004439780544372120479_">
					<path class="st30" d="M343.7,396.8c0,0.1,0,0.3-0.2,0.4C343.6,397.1,343,396.9,343.7,396.8z"/>
				</g>
				<g id="path90_00000031928490370940691420000012454479847203053758_">
					<path class="st31" d="M342.7,397.6c-0.1-0.1,0-0.3,0.2-0.3c0.2,0,0.1,0.1,0.1,0.2C342.9,397.6,342.8,397.6,342.7,397.6
						C342.7,397.6,342.7,397.6,342.7,397.6C342.7,397.6,342.7,397.6,342.7,397.6z"/>
				</g>
				<g id="path92_00000031890727590620889570000002202064682779285948_">
					<path class="st32" d="M345.3,396.8c0.2,0,0.4,0,0.4,0.1c0,0.2-0.2,0.1-0.3,0.1c-0.1,0-0.2,0-0.2-0.1
						C345.2,396.8,345.3,396.8,345.3,396.8z"/>
				</g>
				<g id="path94_00000019651669563792341120000007860393698140271002_">
					<path class="st33" d="M340.3,399.4c0.1,0.1,0.2,0.3,0.3,0.4C340.2,399.9,340.1,399.7,340.3,399.4z"/>
				</g>
				<g id="path96_00000006665728704056657830000013178350644236582289_">
					<path class="st34" d="M336.9,401.4c0.2,0,0.3,0.1,0.2,0.2C336.8,401.6,336.8,401.6,336.9,401.4z"/>
				</g>
				<g id="path98_00000180354045051770169550000002710518192651894162_">
					<path class="st35" d="M345.3,396.8c0,0.1,0.1,0.1,0.1,0.2c-0.2,0.1-0.4,0.1-0.4-0.1C345,396.7,345.2,396.8,345.3,396.8z"/>
				</g>
				<g id="path100_00000021103280836008173330000017298757324252176059_">
					<path class="st36" d="M341.1,399.3c-0.2,0.1-0.3,0-0.4,0C341,398.8,340.9,399.3,341.1,399.3z"/>
				</g>
				<g id="path102_00000122704616816684908660000004196066845451361668_">
					<path class="st37" d="M338.5,400.2c0.1,0.1,0,0.2-0.1,0.3c-0.1-0.1-0.1-0.1-0.1-0.2C338.3,400.3,338.4,400.2,338.5,400.2
						C338.5,400.2,338.5,400.2,338.5,400.2z"/>
				</g>
				<g id="polygon104_00000094619601914555265310000004684597218246004894_">
					<path class="st38" d="M341.8,398.5C341.8,398.5,341.9,398.5,341.8,398.5C341.9,398.4,341.9,398.5,341.8,398.5
						C341.9,398.5,341.8,398.5,341.8,398.5z"/>
				</g>
				<g id="polygon106_00000169543465893891744350000007286517891390766524_">
					<path class="st39" d="M346.5,396C346.5,396,346.5,396,346.5,396C346.6,396,346.6,396,346.5,396C346.6,396,346.5,396,346.5,396z
						"/>
				</g>
				<g id="path108_00000065052415246725038960000004694206772465470905_">
					<path class="st40" d="M342.7,397.6c0.1-0.1,0.2-0.1,0.3-0.2C343,397.7,342.9,397.8,342.7,397.6z"/>
				</g>
				<g id="polygon110_00000093872344954925151630000012692108490826937985_">
					<path class="st41" d="M342.6,398.3C342.6,398.3,342.6,398.3,342.6,398.3C342.6,398.4,342.6,398.4,342.6,398.3
						C342.6,398.4,342.6,398.3,342.6,398.3z"/>
				</g>
				<g id="polygon112_00000080190961292539541610000015798921433310899628_">
					<path class="st42" d="M336.4,402C336.4,401.9,336.4,401.9,336.4,402C336.5,401.9,336.5,401.9,336.4,402
						C336.5,402,336.4,402,336.4,402z"/>
				</g>
				<g id="path114_00000023281349495430602050000000093055095177417124_">
					<path class="st43" d="M339.1,400.4c0.1,0,0.2,0,0.3,0C339.2,400.6,339.1,400.4,339.1,400.4
						C339.1,400.4,339.1,400.4,339.1,400.4z"/>
				</g>
				<g id="path116_00000059989587412319340860000013574181245297351064_">
					<path class="st44" d="M340.6,399.8c0.1-0.1,0.2-0.1,0.3-0.2C341,399.9,340.9,399.9,340.6,399.8z"/>
				</g>
				<g id="polygon118_00000132803009831273143650000015044126428412116124_">
					<path class="st45" d="M337.5,400C337.4,400,337.4,400.1,337.5,400C337.4,400.1,337.4,400.1,337.5,400
						C337.4,400,337.4,400,337.5,400z"/>
				</g>
				<g id="path120_00000113340954213082972670000002690965091034364042_">
					<path class="st46" d="M343.8,398.6c0-0.1-0.1-0.1-0.1-0.2c0.1-0.1,0.2-0.1,0.3-0.2C344,398.4,343.9,398.5,343.8,398.6z"/>
				</g>
				<g id="polygon122_00000183237449290588719050000004998339869445939124_">
					<path class="st22" d="M339.2,401.3C339.1,401.3,339.1,401.3,339.2,401.3C339.1,401.3,339.1,401.3,339.2,401.3
						C339.2,401.3,339.2,401.3,339.2,401.3z"/>
				</g>
				<g id="polygon124_00000111878283360484323990000010335540505330728361_">
					<path class="st47" d="M341.4,396.2C341.5,396.2,341.5,396.3,341.4,396.2C341.5,396.3,341.4,396.3,341.4,396.2
						C341.4,396.3,341.4,396.3,341.4,396.2z"/>
				</g>
				<g id="polygon126_00000067942376073676470320000015958532340481784451_">
					<path class="st45" d="M342.9,395C342.9,395,342.9,395,342.9,395C342.9,395,342.9,394.9,342.9,395C343,395,343,395,342.9,395z"
						/>
				</g>
				<g id="polygon128_00000116234166266272782280000007541715127991941005_">
					<path class="st48" d="M337.3,397.9C337.4,397.9,337.4,397.9,337.3,397.9c0.1,0,0.1,0,0.1,0
						C337.4,397.9,337.4,397.9,337.3,397.9z"/>
				</g>
				<g id="path130_00000170246664771544970130000017302867013790290843_">
					<path class="st49" d="M341.1,395.5c-0.1,0.1-0.2,0.1-0.3,0.2C340.8,395.4,340.9,395.4,341.1,395.5z"/>
				</g>
				<g id="polygon132_00000003063715223868660550000010590779717065789846_">
					<path class="st50" d="M336.8,397.7C336.8,397.7,336.8,397.6,336.8,397.7C336.8,397.6,336.8,397.7,336.8,397.7
						C336.8,397.7,336.8,397.7,336.8,397.7z"/>
				</g>
				<g id="polygon134_00000129164524757559842940000012486070457625127059_">
					<path class="st39" d="M338.4,396.5C338.4,396.5,338.4,396.5,338.4,396.5C338.4,396.5,338.4,396.6,338.4,396.5
						C338.4,396.5,338.4,396.5,338.4,396.5z"/>
				</g>
				<g id="polygon136_00000026856221986298886430000002678568456688829597_">
					<path class="st41" d="M343.9,393.5C343.8,393.4,343.8,393.4,343.9,393.5C343.8,393.4,343.9,393.4,343.9,393.5
						C343.9,393.4,343.9,393.4,343.9,393.5z"/>
				</g>
				<g id="path138_00000110465576007542633610000004448509068182807970_">
					<path class="st51" d="M345.3,392.3c0.1,0,0.2,0,0.3,0C345.4,392.5,345.4,392.3,345.3,392.3
						C345.3,392.3,345.3,392.3,345.3,392.3z"/>
				</g>
				<g id="path140_00000134958325116435751480000008762684026193211801_">
					<path class="st14" d="M345.3,392.3c-0.1,0-0.2,0-0.3,0C345.1,392.1,345.2,392.3,345.3,392.3
						C345.3,392.3,345.3,392.3,345.3,392.3z"/>
				</g>
				<g id="path142_00000138572331835320139840000010881856053503475615_">
					<path class="st52" d="M343.5,392.7c0.1,0.1,0,0.2-0.1,0.3c-0.1-0.1-0.1-0.1-0.1-0.2C343.3,392.8,343.4,392.7,343.5,392.7
						C343.5,392.7,343.5,392.7,343.5,392.7z"/>
				</g>
				<g id="path144_00000058552189011846026730000003446104584094975118_">
					<path class="st53" d="M343.2,392.8c-0.1,0-0.2,0-0.3,0C343,392.6,343.1,392.8,343.2,392.8C343.2,392.8,343.2,392.8,343.2,392.8
						z"/>
				</g>
				<g id="polygon146_00000149348042303425021060000016063362837764854420_">
					<path class="st42" d="M343.6,391.9C343.6,391.9,343.6,392,343.6,391.9C343.6,392,343.6,391.9,343.6,391.9
						C343.6,391.9,343.6,391.9,343.6,391.9z"/>
				</g>
				<g id="polygon148_00000006685855426355307600000015318818305749135768_">
					<path class="st54" d="M332.9,397.2C332.9,397.2,332.9,397.3,332.9,397.2C332.9,397.3,332.9,397.3,332.9,397.2
						C332.9,397.3,332.9,397.3,332.9,397.2z"/>
				</g>
			</g>
		</g>
	</g>
</g>
</svg>
