<?xml version="1.0" encoding="UTF-8"?><svg id="b" xmlns="http://www.w3.org/2000/svg" width="169.96" height="84.92" viewBox="0 0 169.96 84.92"><g id="c"><path d="m121.77,5.46c-4.14-6.83-13.86-7.35-18.7-1l-24.97,32.72-18.01-14.48c-6.69-5.37-16.6-3.41-20.74,4.1L0,84.29l169.96.63L121.77,5.46Z" fill="#f4f9fd" stroke-width="0"/><path d="m56.95,65.29v.95s2.11-2.91,2.12-2.92c.46-.63,18.21-25.08,18.66-25.71.24-.33.18-.8-.14-1.05l-17.97-14.41c-6.75-5.39-16.55-2.78-20.72,4.76L.14,83.22c-.35.51.02,1.21.64,1.21l42.64-.11c.25,0,.48-.12.63-.32l7.66-10.55c-.06-.29-.09-.59-.09-.93m.09.54l5.24-7.16-9.45,3.58,4.22,3.58Z" fill="#ade6f1" stroke-width="0"/><path d="m118.86,21.97l-1.62.92,1.78.65c.33.12.5.48.38.81-.12.33-.48.5-.81.38l-2.79-1.03-2.91,1.65,2.91,1.65,2.79-1.03c.33-.12.69.05.81.38.12.33-.05.69-.38.81l-1.78.65,1.62.92,2.79-1.03c.33-.12.69.05.81.38.12.33-.05.69-.38.81l-2.56.94.52,2.68c.07.34-.16.68-.5.74-.04,0-.08.01-.12.01-.3,0-.56-.21-.62-.51l-.56-2.92-1.62-.92.36,1.86c.07.34-.16.68-.5.74-.34.07-.68-.16-.74-.5l-.56-2.92-2.94-1.66v3.38l2.27,1.92c.27.23.3.63.07.89-.23.27-.63.3-.89.07l-1.45-1.23v1.86l2.27,1.93c.27.23.3.63.07.89-.13.15-.3.22-.48.22-.14,0-.29-.05-.41-.15l-2.06-1.75s-.03,0-.04,0l-2.06,1.75c-.27.23-.67.19-.89-.07-.23-.27-.19-.67.07-.89l2.27-1.93v-1.86l-1.45,1.23c-.27.23-.67.19-.89-.07-.23-.27-.19-.67.07-.89l2.27-1.92v-3.38l-2.94,1.66-.56,2.92c-.07.34-.4.57-.74.5-.34-.07-.57-.4-.5-.74l.36-1.86-1.62.92-.56,2.92c-.06.3-.32.51-.62.51-.04,0-.08,0-.12-.01-.34-.07-.57-.4-.5-.74l.52-2.68-2.56-.94c-.33-.12-.5-.48-.38-.81.12-.33.48-.5.81-.38l2.79,1.03,1.62-.92-1.78-.65c-.33-.12-.5-.48-.38-.81.12-.33.48-.5.81-.38l2.79,1.03,2.91-1.65-2.91-1.65-2.79,1.03c-.33.12-.69-.05-.81-.38-.12-.33.05-.69.38-.81l1.78-.65-1.62-.92-2.79,1.03c-.33.12-.69-.05-.81-.38-.12-.33.05-.69.38-.81l2.53-.93s0-.01.01-.02c0,0,0-.01.01-.02l-.51-2.65c-.07-.34.16-.68.5-.74.34-.06.68.16.74.5l.56,2.92,1.62.92-.36-1.86c-.07-.34.16-.68.5-.74.34-.06.68.16.74.5l.56,2.92,2.94,1.66v-3.38l-2.27-1.93c-.27-.23-.3-.63-.07-.89.23-.27.63-.3.89-.07l1.45,1.23v-1.86l-2.27-1.93c-.27-.23-.3-.63-.07-.89.23-.27.63-.3.89-.07l2.08,1.77,2.08-1.77c.27-.23.67-.19.89.07.23.27.19.67-.07.89l-2.27,1.93v1.86l1.45-1.23c.27-.23.67-.19.89.07.23.27.19.67-.07.89l-2.27,1.93v3.38l2.94-1.66.56-2.92c.07-.34.4-.57.74-.5.34.07.57.4.5.74l-.36,1.86,1.62-.92.56-2.92c.07-.34.4-.57.74-.5.34.07.57.4.5.74l-.51,2.65s0,.01.01.02c0,0,0,.01.01.02l2.53.93c.33.12.5.48.38.81-.12.33-.49.5-.81.38l-2.79-1.03Z" fill="#ade6f1" stroke-width="0"/><circle cx="111.59" cy="12.95" r="1.28" fill="#ade6f1" stroke-width="0"/><circle cx="111.59" cy="37.71" r="1.28" fill="#ade6f1" stroke-width="0"/><circle cx="122.37" cy="19.41" r="1.28" fill="#ade6f1" stroke-width="0"/><circle cx="122.34" cy="31.22" r="1.28" fill="#ade6f1" stroke-width="0"/><circle cx="100.88" cy="19.29" r="1.28" fill="#ade6f1" stroke-width="0"/><circle cx="100.87" cy="31.36" r="1.28" fill="#ade6f1" stroke-width="0"/></g></svg>