<?xml version="1.0" encoding="UTF-8"?><svg id="b" xmlns="http://www.w3.org/2000/svg" width="55.74" height="63.31" viewBox="0 0 55.74 63.31"><g id="c"><path d="m44.64,23.87l-3.76,2.12,4.13,1.52c.76.28,1.15,1.12.87,1.88-.28.76-1.12,1.15-1.88.87l-6.47-2.38-6.75,3.81,6.75,3.81,6.47-2.38c.76-.28,1.6.11,1.88.87.28.76-.11,1.6-.87,1.88l-4.13,1.52,3.76,2.12,6.47-2.38c.76-.28,1.6.11,1.88.87.28.76-.11,1.6-.87,1.88l-5.93,2.18,1.19,6.21c.15.8-.37,1.56-1.16,1.72-.09.02-.19.03-.28.03-.69,0-1.3-.49-1.44-1.19l-1.3-6.77-3.76-2.12.83,4.32c.15.8-.37,1.56-1.16,1.72-.79.15-1.56-.37-1.72-1.16l-1.3-6.77-6.82-3.85v7.83l5.25,4.46c.62.53.69,1.45.17,2.07-.52.62-1.45.69-2.07.17l-3.35-2.85v4.31l5.25,4.46c.62.53.69,1.45.17,2.07-.29.34-.7.52-1.12.52-.34,0-.67-.11-.95-.35l-4.77-4.05s-.07,0-.1,0l-4.77,4.05c-.62.53-1.54.45-2.07-.17-.53-.62-.45-1.54.17-2.07l5.25-4.46v-4.32l-3.35,2.85c-.62.52-1.54.45-2.07-.17-.52-.62-.45-1.54.17-2.07l5.25-4.46v-7.83l-6.82,3.85-1.3,6.77c-.15.8-.93,1.32-1.72,1.16-.8-.15-1.32-.92-1.16-1.72l.83-4.32-3.76,2.12-1.3,6.77c-.13.7-.75,1.19-1.44,1.19-.09,0-.19,0-.28-.03-.8-.15-1.32-.92-1.16-1.72l1.19-6.21-5.93-2.18c-.76-.28-1.15-1.12-.87-1.88.28-.76,1.12-1.15,1.88-.87l6.47,2.38,3.76-2.12-4.13-1.52c-.76-.28-1.15-1.12-.87-1.88.28-.76,1.12-1.15,1.88-.87l6.47,2.38,6.75-3.81-6.75-3.81-6.47,2.38c-.76.28-1.6-.11-1.88-.87-.28-.76.11-1.6.87-1.88l4.13-1.52-3.76-2.12-6.47,2.38c-.76.28-1.6-.11-1.88-.87-.28-.76.11-1.6.87-1.88l5.87-2.16s.02-.03.02-.04c0-.02.02-.03.03-.04l-1.18-6.14c-.15-.8.37-1.56,1.16-1.72.79-.15,1.56.37,1.72,1.16l1.3,6.77,3.76,2.12-.83-4.32c-.15-.8.37-1.56,1.16-1.72.8-.15,1.56.37,1.72,1.16l1.3,6.77,6.82,3.85v-7.83l-5.25-4.46c-.62-.52-.69-1.45-.17-2.07.53-.62,1.45-.69,2.07-.17l3.35,2.85v-4.32l-5.25-4.46c-.62-.52-.69-1.45-.17-2.07.53-.62,1.45-.69,2.07-.17l4.82,4.09,4.82-4.09c.62-.52,1.54-.45,2.07.17.52.62.45,1.54-.17,2.07l-5.25,4.46v4.32l3.35-2.85c.62-.52,1.54-.45,2.07.17.52.62.45,1.54-.17,2.07l-5.25,4.46v7.83l6.82-3.85,1.3-6.77c.15-.8.93-1.32,1.72-1.16.8.15,1.32.92,1.16,1.72l-.83,4.32,3.76-2.12,1.3-6.77c.15-.8.93-1.31,1.72-1.16.8.15,1.32.92,1.16,1.72l-1.18,6.14s.02.03.02.04c0,.01.02.03.02.04l5.87,2.16c.76.28,1.15,1.12.87,1.88-.28.76-1.12,1.15-1.88.87l-6.47-2.38Z" fill="#b4e8f2" stroke-width="0"/><circle cx="27.8" cy="2.97" r="2.97" fill="#b4e8f2" stroke-width="0"/><circle cx="27.8" cy="60.34" r="2.97" fill="#b4e8f2" stroke-width="0"/><circle cx="52.77" cy="17.95" r="2.97" fill="#b4e8f2" stroke-width="0"/><circle cx="52.7" cy="45.31" r="2.97" fill="#b4e8f2" stroke-width="0"/><circle cx="3" cy="17.68" r="2.97" fill="#b4e8f2" stroke-width="0"/><circle cx="2.97" cy="45.64" r="2.97" fill="#b4e8f2" stroke-width="0"/></g></svg>